<svg width="15" height="16" viewBox="0 0 15 16" fill="none" xmlns="http://www.w3.org/2000/svg">
<circle cx="7.5" cy="7.86426" r="7.5" fill="white"/>
<path d="M11.7369 7.7138L9.22495 5.20181C9.15727 5.13644 9.06662 5.10027 8.97253 5.10109C8.87844 5.10191 8.78843 5.13965 8.7219 5.20618C8.65536 5.27272 8.61762 5.36272 8.61681 5.45681C8.61599 5.5509 8.65216 5.64155 8.71753 5.70923L10.6169 7.60865H4.30612C4.21095 7.60865 4.11967 7.64646 4.05237 7.71376C3.98507 7.78106 3.94727 7.87233 3.94727 7.96751C3.94727 8.06268 3.98507 8.15396 4.05237 8.22125C4.11967 8.28855 4.21095 8.32636 4.30612 8.32636H10.6169L8.71753 10.2258C8.68325 10.2589 8.65591 10.2985 8.63711 10.3423C8.6183 10.386 8.6084 10.4331 8.60799 10.4808C8.60757 10.5284 8.61665 10.5757 8.6347 10.6198C8.65274 10.6639 8.67939 10.704 8.71308 10.7377C8.74677 10.7713 8.78684 10.798 8.83094 10.816C8.87504 10.8341 8.9223 10.8432 8.96995 10.8427C9.01759 10.8423 9.06468 10.8324 9.10847 10.8136C9.15225 10.7948 9.19184 10.7675 9.22495 10.7332L11.7369 8.22122C11.8042 8.15392 11.842 8.06266 11.842 7.96751C11.842 7.87235 11.8042 7.78109 11.7369 7.7138Z" fill="#F6B620"/>
</svg>
