<svg width="1440" height="278" viewBox="0 0 1440 278" fill="none" xmlns="http://www.w3.org/2000/svg">
<rect x="-44.7256" y="176.034" width="1527.24" height="100" transform="rotate(-6.54825 -44.7256 176.034)" fill="#232323"/>
<path d="M-38.8443 208.447C-29.1162 207.33 -21.035 212.49 -19.776 223.458C-18.517 234.426 -25.2242 241.235 -34.9523 242.352C-44.6805 243.469 -52.7343 238.547 -54.0152 227.388C-55.2742 216.42 -48.5724 209.563 -38.8443 208.447ZM-35.8008 234.961C-30.0307 234.298 -26.1478 230.664 -26.8813 224.274C-27.6313 217.741 -32.2257 215.176 -37.9958 215.838C-43.7659 216.5 -47.6707 219.944 -46.9098 226.573C-46.1489 233.201 -41.5709 235.623 -35.8008 234.961ZM-3.72438 222.34C2.43586 222.551 9.42319 222.812 10.1512 229.154C10.9121 235.783 6.29121 237.618 -1.91093 238.559C-7.96716 239.254 -12.2418 238.634 -14.6341 236.734C-16.7073 235.088 -16.9646 232.847 -17.0757 231.458L-17.1359 230.934L-9.69672 230.08L-9.66935 230.318C-9.4066 232.607 -7.56945 233.459 -2.75308 232.906C0.155822 232.572 2.87787 231.874 2.67533 230.109C2.44543 228.106 -0.173452 228.02 -3.12067 228.02C-3.50764 228.017 -3.8946 228.013 -4.28157 228.009C-12.0741 227.889 -17.0399 226.719 -17.6529 221.378C-18.0799 217.659 -16.4431 212.978 -6.1427 211.795C4.92065 210.525 7.82112 215.169 8.29187 219.27L8.31924 219.508L0.92778 220.357L0.90041 220.118C0.659558 218.02 -1.28392 217.084 -5.48036 217.565C-9.53374 218.031 -10.2224 219.607 -10.1294 220.418C-9.99251 221.61 -9.1052 222.185 -4.34978 222.364L-3.72438 222.34ZM31.9342 224.528L39.0873 223.707C39.254 230.21 33.9898 234.438 26.3122 235.32C18.4439 236.223 11.5338 232.426 10.5157 223.556C9.52492 214.925 15.3676 209.423 23.2359 208.52C30.9135 207.638 36.9675 210.712 38.3155 216.983L31.2101 217.799C30.3603 215.867 28.4207 214.544 23.9858 215.053C19.2648 215.595 17.0533 218.216 17.5733 222.746C18.1207 227.515 20.8468 229.376 25.5678 228.834C30.1457 228.309 31.6232 226.448 31.9342 224.528ZM68.751 218.611L47.3873 221.063C48.3224 224.579 50.6708 226.098 55.3442 225.561C59.6837 225.063 61.6927 223.624 62.1578 221.783L69.1678 220.979C69.1148 226.831 64.8466 230.896 56.0722 231.903C46.9163 232.954 41.1929 228.973 40.1693 220.056C39.1676 211.329 43.9611 205.947 52.974 204.913C56.7412 204.48 59.9026 205.084 62.3246 206.4L62.3191 206.352C67.8743 209.29 68.9971 214.862 69.0371 218.578L68.751 218.611ZM53.702 211.255C49.6963 211.715 47.6724 213.445 47.126 216.262L61.2413 214.641C60.4392 212.704 58.8522 210.664 53.702 211.255ZM83.6014 201.155C91.7559 200.219 99.0255 203.782 100.093 213.081C101.171 222.475 94.8815 227.449 86.727 228.385C78.6202 229.315 71.3506 225.753 70.2886 216.502C69.2322 207.298 75.4946 202.086 83.6014 201.155ZM85.9716 221.804C90.5495 221.278 93.5405 218.713 92.9876 213.896C92.4183 208.937 88.9402 207.258 84.3623 207.784C79.832 208.304 76.8138 210.631 77.394 215.686C77.9687 220.693 81.4414 222.324 85.9716 221.804ZM111.136 225.583L103.935 226.409L99.9991 192.122L107.2 191.296L111.136 225.583ZM132.854 199.995L133.188 199.957L132.734 195.999L139.982 195.167L143.053 221.919L135.805 222.751L135.378 219.031L135.139 219.059C133.595 221.604 130.702 223.337 125.647 223.917C114.441 225.203 112.079 215.57 111.668 211.993C111.219 208.083 111.322 198.457 122.624 197.159C127.584 196.59 130.768 197.819 132.854 199.995ZM127.082 217.471C133.329 216.754 134.26 213.507 133.795 209.453C133.379 205.829 131.686 202.448 125.439 203.165C118.477 203.965 118.342 209.101 118.583 211.2C118.802 213.107 120.167 218.265 127.082 217.471Z" fill="white"/>
<path d="M215.057 171.378C216.569 194.324 215.763 195.339 193.071 199.066C216.017 197.554 217.032 198.36 220.759 221.052C219.247 198.106 220.053 197.091 242.745 193.364C219.799 194.876 218.784 194.07 215.057 171.378Z" fill="white"/>
<path d="M292.574 177.651L291.813 171.023L324.288 167.295L325.049 173.923L312.412 175.374L315.483 202.126L308.234 202.958L305.163 176.206L292.574 177.651ZM337.202 172.045C345.356 171.109 352.626 174.671 353.693 183.97C354.772 193.365 348.482 198.338 340.327 199.274C332.221 200.205 324.951 196.643 323.889 187.391C322.833 178.188 329.095 172.976 337.202 172.045ZM339.572 192.694C344.15 192.168 347.141 189.602 346.588 184.786C346.019 179.826 342.541 178.148 337.963 178.674C333.432 179.194 330.414 181.521 330.994 186.576C331.569 191.583 335.042 193.214 339.572 192.694ZM389.884 166.481L397.18 165.643L391.858 193.359L382.035 194.487L375.306 179.219L372.259 195.609L362.436 196.737L350.972 170.948L358.268 170.11L366.728 189.093L370.523 168.703L377.581 167.893L385.946 186.887L389.884 166.481ZM409.163 191.373L401.962 192.199L398.913 165.638L406.114 164.811L409.163 191.373ZM405.895 162.904L398.694 163.73L397.95 157.245L405.151 156.418L405.895 162.904ZM425.218 162.425C436.52 161.128 437.896 170.584 438.344 174.495L439.877 187.847L432.676 188.674L431.144 175.321C430.903 173.223 430.752 168.119 423.837 168.913C417.543 169.635 417.096 173.745 417.512 177.369L418.99 190.245L411.742 191.077L408.671 164.324L415.919 163.492L416.374 167.45L416.708 167.412C418.151 164.831 420.402 162.978 425.218 162.425ZM461.207 158.584L468.455 157.752L471.198 181.643C471.833 187.174 471.97 197.208 458.665 198.736C446.648 200.115 443.567 193.898 443.113 189.94C445.02 189.721 449.121 189.25 450.314 189.113C450.669 190.522 452.226 193.145 457.901 192.494C462.812 191.93 464.639 188.483 464.075 183.572L463.856 181.664L463.523 181.702C461.973 184.199 459.086 185.98 454.031 186.561C442.824 187.847 440.462 178.214 440.046 174.589C439.597 170.679 439.7 161.052 451.002 159.755C455.962 159.186 459.146 160.415 461.232 162.591L461.661 162.542L461.207 158.584ZM455.46 180.067C461.707 179.35 462.638 176.103 462.173 172.049C461.757 168.425 460.064 165.044 453.817 165.761C446.855 166.56 446.72 171.697 446.961 173.796C447.185 175.751 448.545 180.861 455.46 180.067Z" fill="white"/>
<path d="M542.904 133.745C544.416 156.691 543.61 157.706 520.918 161.433C543.864 159.921 544.88 160.727 548.606 183.419C547.094 160.473 547.9 159.458 570.592 155.731C547.646 157.243 546.631 156.437 542.904 133.745Z" fill="white"/>
<path d="M636.72 130.9C646.448 129.783 654.529 134.943 655.788 145.911C657.047 156.879 650.34 163.688 640.612 164.805C630.884 165.922 622.83 161 621.549 149.841C620.29 138.873 626.992 132.016 636.72 130.9ZM639.763 157.413C645.533 156.751 649.416 153.117 648.683 146.727C647.933 140.193 643.338 137.629 637.568 138.291C631.798 138.953 627.893 142.397 628.654 149.026C629.415 155.654 633.993 158.076 639.763 157.413ZM671.84 144.793C678 145.004 684.987 145.265 685.715 151.607C686.476 158.236 681.855 160.071 673.653 161.012C667.597 161.707 663.322 161.087 660.93 159.187C658.857 157.541 658.599 155.3 658.488 153.911L658.428 153.387L665.867 152.533L665.895 152.771C666.157 155.06 667.995 155.912 672.811 155.359C675.72 155.025 678.442 154.326 678.239 152.562C678.009 150.559 675.391 150.473 672.443 150.473C672.056 150.469 671.669 150.466 671.282 150.462C663.49 150.342 658.524 149.172 657.911 143.831C657.484 140.112 659.121 135.43 669.421 134.248C680.485 132.978 683.385 137.622 683.856 141.723L683.883 141.961L676.492 142.81L676.464 142.571C676.224 140.473 674.28 139.537 670.084 140.018C666.03 140.484 665.342 142.06 665.435 142.871C665.571 144.063 666.459 144.638 671.214 144.817L671.84 144.793ZM707.498 146.981L714.651 146.16C714.818 152.663 709.554 156.891 701.876 157.772C694.008 158.676 687.098 154.879 686.08 146.009C685.089 137.378 690.932 131.876 698.8 130.972C706.477 130.091 712.531 133.165 713.879 139.436L706.774 140.252C705.924 138.32 703.985 136.996 699.55 137.506C694.829 138.047 692.617 140.669 693.137 145.199C693.685 149.968 696.411 151.829 701.132 151.287C705.71 150.762 707.187 148.901 707.498 146.981ZM744.315 141.064L722.951 143.516C723.886 147.032 726.235 148.55 730.908 148.014C735.248 147.516 737.257 146.077 737.722 144.236L744.732 143.432C744.679 149.284 740.411 153.349 731.636 154.356C722.48 155.407 716.757 151.426 715.733 142.509C714.732 133.782 719.525 128.4 728.538 127.366C732.305 126.933 735.467 127.537 737.889 128.853L737.883 128.805C743.438 131.743 744.561 137.315 744.601 141.031L744.315 141.064ZM729.266 133.708C725.26 134.168 723.236 135.898 722.69 138.714L736.805 137.094C736.003 135.157 734.416 133.117 729.266 133.708ZM759.165 123.608C767.32 122.672 774.589 126.234 775.657 135.533C776.735 144.928 770.445 149.901 762.291 150.837C754.184 151.768 746.915 148.206 745.853 138.955C744.796 129.751 751.059 124.539 759.165 123.608ZM761.536 144.257C766.114 143.731 769.104 141.165 768.552 136.349C767.982 131.39 764.504 129.711 759.926 130.237C755.396 130.757 752.378 133.084 752.958 138.139C753.533 143.146 757.005 144.777 761.536 144.257ZM786.7 148.036L779.499 148.862L775.563 114.575L782.764 113.749L786.7 148.036ZM808.418 122.448L808.752 122.41L808.298 118.452L815.546 117.62L818.617 144.372L811.369 145.204L810.942 141.484L810.703 141.512C809.159 144.056 806.266 145.79 801.211 146.37C790.005 147.656 787.643 138.023 787.232 134.446C786.783 130.536 786.886 120.909 798.188 119.612C803.148 119.043 806.332 120.272 808.418 122.448ZM802.646 139.924C808.893 139.207 809.824 135.96 809.359 131.906C808.943 128.282 807.25 124.901 801.003 125.618C794.041 126.417 793.906 131.554 794.147 133.653C794.366 135.56 795.731 140.718 802.646 139.924Z" fill="white"/>
<path d="M890.621 93.8309C892.133 116.777 891.326 117.792 868.635 121.519C891.581 120.007 892.596 120.813 896.323 143.505C894.811 120.559 895.617 119.543 918.308 115.817C895.362 117.329 894.347 116.523 890.621 93.8309Z" fill="white"/>
<path d="M968.138 100.104L967.377 93.4754L999.852 89.7477L1000.61 96.3762L987.976 97.8267L991.047 124.579L983.798 125.411L980.727 98.6588L968.138 100.104ZM1012.77 94.498C1020.92 93.5619 1028.19 97.1241 1029.26 106.423C1030.34 115.817 1024.05 120.791 1015.89 121.727C1007.78 122.658 1000.52 119.096 999.453 109.844C998.397 100.641 1004.66 95.4285 1012.77 94.498ZM1015.14 115.146C1019.71 114.621 1022.7 112.055 1022.15 107.239C1021.58 102.279 1018.1 100.601 1013.53 101.126C1009 101.646 1005.98 103.974 1006.56 109.029C1007.13 114.036 1010.61 115.666 1015.14 115.146ZM1065.45 88.9338L1072.74 88.0963L1067.42 115.812L1057.6 116.94L1050.87 101.671L1047.82 118.062L1038 119.189L1026.54 93.4005L1033.83 92.563L1042.29 111.546L1046.09 91.1562L1053.15 90.346L1061.51 109.34L1065.45 88.9338ZM1084.73 113.826L1077.53 114.652L1074.48 88.0906L1081.68 87.264L1084.73 113.826ZM1081.46 85.3566L1074.26 86.1831L1073.51 79.6977L1080.71 78.8712L1081.46 85.3566ZM1100.78 84.8778C1112.08 83.5805 1113.46 93.0374 1113.91 96.9477L1115.44 110.3L1108.24 111.127L1106.71 97.7742C1106.47 95.676 1106.32 90.5719 1099.4 91.3657C1093.11 92.0882 1092.66 96.1979 1093.08 99.8221L1094.55 112.698L1087.31 113.53L1084.23 86.7773L1091.48 85.9452L1091.94 89.9032L1092.27 89.8649C1093.71 87.2835 1095.97 85.4307 1100.78 84.8778ZM1136.77 81.0366L1144.02 80.2046L1146.76 104.096C1147.4 109.627 1147.53 119.661 1134.23 121.188C1122.21 122.568 1119.13 116.351 1118.68 112.393C1120.58 112.174 1124.69 111.703 1125.88 111.566C1126.23 112.975 1127.79 115.598 1133.46 114.947C1138.38 114.383 1140.2 110.936 1139.64 106.025L1139.42 104.117L1139.09 104.155C1137.54 106.652 1134.65 108.433 1129.59 109.014C1118.39 110.3 1116.03 100.666 1115.61 97.0422C1115.16 93.1319 1115.26 83.5054 1126.57 82.208C1131.53 81.6387 1134.71 82.8676 1136.8 85.0439L1137.23 84.9946L1136.77 81.0366ZM1131.02 102.52C1137.27 101.803 1138.2 98.5557 1137.74 94.5023C1137.32 90.8781 1135.63 87.4971 1129.38 88.2142C1122.42 89.0134 1122.28 94.1503 1122.52 96.2485C1122.75 98.2037 1124.11 103.314 1131.02 102.52Z" fill="white"/>
<path d="M1218.47 56.1978C1219.98 79.1438 1219.17 80.1591 1196.48 83.8857C1219.43 82.3737 1220.44 83.1798 1224.17 105.872C1222.66 82.9256 1223.46 81.9104 1246.16 78.1837C1223.21 79.6958 1222.19 78.8896 1218.47 56.1978Z" fill="white"/>
<path d="M1312.28 53.3527C1322.01 52.236 1330.09 57.3961 1331.35 68.3641C1332.61 79.332 1325.9 86.1414 1316.18 87.258C1306.45 88.3747 1298.39 83.4531 1297.11 72.2943C1295.85 61.3264 1302.56 54.4694 1312.28 53.3527ZM1315.33 79.8666C1321.1 79.2042 1324.98 75.5697 1324.25 69.1797C1323.5 62.6466 1318.9 60.0818 1313.13 60.7441C1307.36 61.4065 1303.46 64.8502 1304.22 71.4787C1304.98 78.1072 1309.56 80.5289 1315.33 79.8666ZM1347.4 67.2462C1353.56 67.4571 1360.55 67.718 1361.28 74.0603C1362.04 80.6888 1357.42 82.5237 1349.22 83.4653C1343.16 84.1604 1338.89 83.5399 1336.49 81.6403C1334.42 79.994 1334.16 77.7527 1334.05 76.3643L1333.99 75.8398L1341.43 74.9858L1341.46 75.2243C1341.72 77.5132 1343.56 78.3653 1348.37 77.8124C1351.28 77.4785 1354.01 76.7795 1353.8 75.0151C1353.57 73.0123 1350.95 72.9264 1348.01 72.9265C1347.62 72.9226 1347.23 72.9187 1346.85 72.9148C1339.05 72.7946 1334.09 71.6253 1333.47 66.2844C1333.05 62.5648 1334.68 57.8836 1344.99 56.7012C1356.05 55.4313 1358.95 60.0748 1359.42 64.1759L1359.45 64.4143L1352.06 65.2628L1352.03 65.0243C1351.79 62.9261 1349.84 61.9896 1345.65 62.4713C1341.59 62.9366 1340.91 64.5135 1341 65.3241C1341.14 66.5163 1342.02 67.0909 1346.78 67.2697L1347.4 67.2462ZM1383.06 69.434L1390.22 68.6129C1390.38 75.1163 1385.12 79.3443 1377.44 80.2256C1369.57 81.1287 1362.66 77.332 1361.64 68.4622C1360.65 59.8309 1366.5 54.3287 1374.36 53.4255C1382.04 52.5442 1388.1 55.6179 1389.44 61.8891L1382.34 62.7047C1381.49 60.773 1379.55 59.4496 1375.11 59.9586C1370.39 60.5006 1368.18 63.1219 1368.7 67.6521C1369.25 72.4208 1371.97 74.2821 1376.7 73.7401C1381.27 73.2146 1382.75 71.354 1383.06 69.434ZM1419.88 63.5168L1398.52 65.9692C1399.45 69.4855 1401.8 71.0035 1406.47 70.4671C1410.81 69.969 1412.82 68.5305 1413.29 66.6894L1420.3 65.8848C1420.24 71.737 1415.97 75.8022 1407.2 76.8094C1398.04 77.8604 1392.32 73.8792 1391.3 64.9617C1390.3 56.235 1395.09 50.8533 1404.1 49.8187C1407.87 49.3862 1411.03 49.9897 1413.45 51.306L1413.45 51.2584C1419 54.196 1420.13 59.7683 1420.17 63.484L1419.88 63.5168ZM1404.83 56.161C1400.82 56.6208 1398.8 58.3509 1398.25 61.1676L1412.37 59.5473C1411.57 57.6102 1409.98 55.5699 1404.83 56.161ZM1434.73 46.0614C1442.88 45.1254 1450.15 48.6876 1451.22 57.9865C1452.3 67.3808 1446.01 72.3546 1437.85 73.2906C1429.75 74.2212 1422.48 70.659 1421.42 61.4077C1420.36 52.2042 1426.62 46.992 1434.73 46.0614ZM1437.1 66.7098C1441.68 66.1843 1444.67 63.6185 1444.12 58.8021C1443.55 53.8427 1440.07 52.1644 1435.49 52.6899C1430.96 53.2099 1427.94 55.5373 1428.52 60.5921C1429.1 65.5992 1432.57 67.2299 1437.1 66.7098ZM1462.26 70.4888L1455.06 71.3154L1451.13 37.0285L1458.33 36.2019L1462.26 70.4888ZM1483.98 44.9011L1484.32 44.8627L1483.86 40.9047L1491.11 40.0727L1494.18 66.825L1486.93 67.6571L1486.51 63.9375L1486.27 63.9649C1484.72 66.5095 1481.83 68.2428 1476.78 68.823C1465.57 70.1094 1463.21 60.4759 1462.8 56.8994C1462.35 52.9891 1462.45 43.3625 1473.75 42.0652C1478.71 41.4959 1481.9 42.7247 1483.98 44.9011ZM1478.21 62.3774C1484.46 61.6603 1485.39 58.4129 1484.92 54.3595C1484.51 50.7353 1482.81 47.3543 1476.57 48.0713C1469.61 48.8705 1469.47 54.0074 1469.71 56.1057C1469.93 58.0131 1471.29 63.1711 1478.21 62.3774Z" fill="white"/>
</svg>
