<svg width="40" height="30" viewBox="0 0 40 30" fill="none" xmlns="http://www.w3.org/2000/svg">
<path d="M8.84342 18.5376L8.39591 19.6632C7.46653 22.0007 6.01286 24.2837 4.09747 26.4609L4.09738 26.461C3.80062 26.7982 3.76692 27.2686 4.00118 27.633L4.00367 27.6368C4.18857 27.9274 4.47941 28.0804 4.81333 28.0804C4.95786 28.0804 5.01017 28.0682 5.037 28.0586L5.06453 28.0488L5.09258 28.0406C6.96123 27.494 10.0591 26.2549 12.7106 23.6239C15.3378 21.017 17.585 16.9882 17.7068 10.7285L8.84342 18.5376ZM8.84342 18.5376L7.6535 18.3113M8.84342 18.5376L7.6535 18.3113M7.6535 18.3113C3.78805 17.5762 1.00023 14.1433 1 10.2142L7.6535 18.3113ZM30.1368 18.5376L29.6892 19.6632C28.7599 22.0007 27.3062 24.2837 25.3908 26.4609L25.3907 26.461C25.094 26.7982 25.0603 27.2686 25.2945 27.633L25.297 27.6368C25.4819 27.9274 25.7727 28.0804 26.1067 28.0804C26.2512 28.0804 26.3035 28.0682 26.3303 28.0586L26.3579 28.0488L26.3859 28.0406C28.2546 27.494 31.3525 26.2549 34.004 23.6239C36.6299 21.0182 38.8763 16.9919 39 10.7372V10.5604C39 6.09171 35.714 2.33938 31.5114 1.90183C29.153 1.66404 26.7935 2.43881 25.0433 4.0094C24.178 4.79449 23.4864 5.75181 23.0128 6.81995C22.5389 7.88866 22.2939 9.04467 22.2933 10.2137L30.1368 18.5376ZM30.1368 18.5376L28.9468 18.3113M30.1368 18.5376L28.9468 18.3113M28.9468 18.3113C25.0814 17.5762 22.2935 14.1432 22.2933 10.2141L28.9468 18.3113ZM10.2321 1.90191C14.466 2.33898 17.7908 6.18561 17.7069 10.7276L1 10.2137C1.00063 9.04468 1.24573 7.8887 1.71957 6.82C2.19314 5.75191 2.88472 4.79459 3.74995 4.00946C5.49958 2.43929 7.85922 1.66378 10.2321 1.90191Z" stroke="#F6B620" stroke-width="2"/>
</svg>
