<svg width="326" height="7" viewBox="0 0 326 7" fill="none" xmlns="http://www.w3.org/2000/svg">
<g clip-path="url(#clip0_4021_496)">
<path d="M215.116 1.06946C215.51 1.01709 215.949 1.03242 216.349 1.0503C216.943 1.07841 217.499 1.08352 218.073 1.03242C218.371 1.00559 218.726 0.995364 219.036 1.01198C219.746 1.0503 220.464 1.03497 221.18 1.02858C221.626 1.02475 222.033 1.01836 222.253 1.11802C222.362 1.16912 222.64 1.17039 222.853 1.16017C223.667 1.11929 224.532 1.14612 225.333 1.08479C225.404 1.08352 225.469 1.08096 225.539 1.07968C226.295 1.04519 227.071 1.02092 227.839 1.02347C230.286 1.03114 232.728 1.03114 235.169 1.00047C236.17 0.987699 237.171 0.955761 238.172 0.931489C238.295 0.928934 238.45 0.927656 238.463 0.893158C238.476 0.853555 238.327 0.833115 238.166 0.829283C237.675 0.817785 237.197 0.843335 236.719 0.865053C236.332 0.88166 235.963 0.905939 235.615 0.84589C234.381 0.812675 233.135 0.851 231.907 0.812675C231.669 0.842058 231.423 0.848445 231.165 0.821618C230.681 0.824173 230.19 0.826728 229.705 0.829283C229.582 0.862498 229.441 0.865053 229.272 0.84078C229.033 0.853555 228.795 0.854833 228.556 0.838225C228.388 0.857388 228.246 0.85611 228.129 0.822895C228 0.821618 227.878 0.819063 227.748 0.817785C227.141 0.870163 226.541 0.84589 225.947 0.811398C225.753 0.811398 225.559 0.812675 225.365 0.813953C225.159 0.868885 224.887 0.890603 224.545 0.87655C223.873 0.908494 223.253 0.859943 222.62 0.831838C222.214 0.838225 221.794 0.862498 221.432 0.801172C221.096 0.79734 220.767 0.783287 220.47 0.75135C220.186 0.765402 219.915 0.739852 219.734 0.71047C219.249 0.631259 218.739 0.644034 218.171 0.652976C217.098 0.670861 216.033 0.714302 214.942 0.707915C214.748 0.706637 214.463 0.687469 214.405 0.753905C214.541 0.821618 215.064 0.780732 215.154 0.875273C214.987 0.88677 214.812 0.900823 214.632 0.912326C213.934 0.957039 213.21 0.932766 212.41 0.935321C213.069 1.04264 213.869 0.997919 214.489 1.06691C214.696 1.06691 214.903 1.06819 215.109 1.06946H215.116Z" fill="#096656"/>
<path d="M241.951 0.12137C242.022 0.0868753 242.093 0.0523805 242.164 0.0178861C241.383 0.0178861 240.601 0.0153309 239.819 0.0140533C239.284 0.0613235 238.754 0.0485479 238.231 0.00638785C237.908 0.00383272 237.579 0.00255515 237.256 0C237.171 0.0396048 236.9 0.0549357 236.887 0.104761C238.115 0.137978 239.348 0.153309 240.582 0.159697C240.982 0.0753772 241.499 0.148199 241.938 0.120092L241.951 0.12137Z" fill="#096656"/>
<path d="M243.539 0.0969878C243.888 0.0778241 244.134 0.108486 244.34 0.159589C245.122 0.162144 245.903 0.163421 246.684 0.165976C246.788 0.123816 246.969 0.118706 247.176 0.122539L247.188 0.118706C247.156 0.0905997 247.182 0.0650479 247.266 0.0420518C245.877 0.0305536 244.495 0.020333 243.106 0.00883484C243.126 0.0331087 243.145 0.0561051 243.165 0.0803791C243.288 0.0854891 243.41 0.0918772 243.533 0.0969878H243.539Z" fill="#096656"/>
<path d="M324.818 3.96422C324.689 3.96933 324.56 3.97444 324.431 3.97955C324.011 4.02682 323.552 4.01788 323.094 4.01405C323.042 4.02299 323.029 4.03449 323.055 4.04726C322.92 4.03832 322.79 4.04087 322.667 4.05365C322.28 4.01916 321.886 4.04982 321.492 4.04982C321.486 4.06259 321.473 4.07664 321.466 4.08942C321.576 4.09581 321.679 4.1022 321.789 4.10859C321.679 4.1022 321.576 4.09453 321.466 4.08942C321.337 4.08942 321.208 4.08942 321.079 4.08942C320.943 4.08175 320.807 4.07409 320.672 4.06642C320.407 4.06642 320.142 4.0677 319.877 4.06898C319.697 4.08815 319.509 4.0907 319.315 4.07281C318.909 4.07792 318.502 4.08048 318.102 4.06387C317.959 4.07409 317.817 4.08431 317.675 4.09453C317.488 4.08687 317.307 4.0792 317.12 4.07153C316.68 4.00255 316.131 3.97827 315.621 3.94378C315.021 3.9029 314.51 3.85051 314.194 3.73937C313.858 3.73937 313.522 3.73937 313.186 3.73937C312.088 3.76236 311.055 3.70487 310.016 3.64355C309.596 3.618 309.034 3.51324 308.866 3.70487C308.84 3.73426 308.601 3.74064 308.433 3.73298C308.175 3.72276 307.929 3.70871 307.671 3.69721C307.671 3.69721 307.613 3.68699 307.568 3.68571C307.458 3.67804 307.4 3.66526 307.354 3.64866C307.393 3.66399 307.458 3.67804 307.568 3.68571C307.678 3.59245 308.013 3.48896 307.303 3.42764C306.974 3.4072 306.638 3.38804 306.308 3.36759C306.25 3.36503 306.185 3.36248 306.128 3.35992C305.876 3.35226 305.618 3.34587 305.359 3.33821C305.165 3.44041 304.752 3.43019 304.339 3.41359C304.209 3.41359 304.074 3.41231 303.945 3.41103C303.861 3.42636 303.79 3.43019 303.725 3.42764C303.79 3.43147 303.861 3.42764 303.945 3.41103C303.848 3.38036 303.738 3.3612 303.564 3.39315C303.454 3.38804 303.35 3.3842 303.241 3.37909C303.209 3.36376 303.182 3.34843 303.15 3.3331C303.021 3.3331 302.885 3.33182 302.756 3.33054C302.653 3.31138 302.537 3.30371 302.395 3.30627C302.427 3.29477 302.42 3.28327 302.375 3.27177C302.11 3.2756 301.839 3.27944 301.575 3.28327C301.51 3.27944 301.452 3.27433 301.387 3.27049C301.322 3.22834 301.077 3.23217 300.955 3.20534C300.838 3.20534 300.716 3.20279 300.599 3.20151C300.476 3.19768 300.347 3.19512 300.225 3.19129C299.979 3.14146 299.695 3.15168 299.404 3.16957C299.159 3.15168 298.907 3.14657 298.642 3.1504C298.642 3.13635 298.642 3.1223 298.649 3.10825C298.442 3.11208 298.229 3.09292 298.029 3.11719C298.042 3.1108 298.054 3.10441 298.074 3.09803C297.88 3.12102 297.667 3.10314 297.467 3.10825C297.305 3.06225 297.092 3.06225 296.853 3.07886C296.466 3.07375 296.085 3.06864 295.697 3.06353C295.691 3.05075 295.691 3.03798 295.691 3.0252C295.568 3.02137 295.445 3.01626 295.316 3.01243C294.968 3.02265 294.619 3.03414 294.321 2.98049C293.805 2.9741 293.282 2.96899 292.765 2.9626C292.384 2.98688 291.99 2.97154 291.609 2.97793C291.267 2.98304 290.892 2.95493 290.588 3.00987C290.324 3.00987 290.052 3.00859 289.788 3.00732C289.503 2.94599 289.123 2.95621 288.787 2.96643C287.663 3.00093 286.533 3.01881 285.435 3.07758C285.189 3.07758 284.944 3.08013 284.705 3.08141C284.615 3.1223 284.479 3.13763 284.324 3.14146C284.479 3.13763 284.615 3.12358 284.705 3.08141C283.665 3.05714 282.632 3.02137 281.625 3.11974C281.321 3.14913 280.979 3.13635 280.656 3.13507C279.906 3.13124 279.157 3.11463 278.402 3.14657C278.092 3.16062 277.743 3.15935 277.427 3.14913C276.929 3.13252 276.451 3.14018 275.973 3.16446C275.663 3.15424 275.353 3.1504 275.043 3.16957C274.966 3.15679 274.882 3.14402 274.804 3.13124C274.488 3.14657 274.165 3.15168 273.835 3.14529C273.835 3.1619 273.835 3.17851 273.842 3.19512C272.654 3.19895 271.465 3.20151 270.277 3.20534C269.993 3.14657 269.586 3.19001 269.257 3.15551C268.766 3.10441 268.307 3.1338 267.913 3.20662C266.796 3.23983 265.698 3.22323 264.632 3.14529C264.535 3.08525 264.562 3.02392 264.574 2.9626C264.219 2.96388 263.948 3.00221 263.683 3.04309C263.632 3.04181 263.593 3.04564 263.573 3.05586C263.425 3.04692 263.295 3.05331 263.192 3.07758C262.54 3.08653 261.894 3.07502 261.261 3.04181C259.73 2.923 258.129 2.86167 256.521 2.80546C256.359 2.77607 256.172 2.75946 255.952 2.76585C255.558 2.70581 255.093 2.67514 254.616 2.68665C254.183 2.69687 253.821 2.6662 253.434 2.64576C253.479 2.62149 253.524 2.59849 253.569 2.57422C253.892 2.5806 254.209 2.587 254.532 2.59466C255.061 2.68665 255.681 2.6892 256.327 2.66748C256.669 2.69048 257.005 2.68665 257.341 2.66109C258.2 2.75435 259.162 2.70198 260.086 2.75563C260.073 2.65215 259.963 2.59083 259.53 2.57422C258.671 2.54228 257.832 2.48351 256.934 2.50395C256.934 2.5129 256.934 2.52056 256.934 2.52823C256.927 2.52056 256.921 2.5129 256.934 2.50395C256.824 2.48735 256.708 2.48223 256.572 2.48862C256.378 2.46434 256.172 2.45796 255.952 2.46434C255.933 2.45285 255.894 2.44774 255.829 2.44774C255.856 2.29315 255.132 2.32126 254.518 2.27782C255.171 2.21522 255.481 2.1424 255.694 2.04147C255.836 1.97248 256.036 1.88178 256.572 1.88178C256.637 1.86899 256.702 1.85622 256.766 1.84344C257.044 1.72974 257.515 1.75785 257.98 1.77829C258.167 1.77829 258.355 1.78084 258.542 1.78212C259.111 1.7489 259.634 1.79745 260.17 1.81789C260.893 1.846 261.623 1.8741 262.294 1.94054C262.482 1.94693 262.669 1.95204 262.863 1.95843C263.283 1.90222 263.334 1.82811 262.947 1.80512C262.598 1.78468 262.275 1.7323 261.861 1.75912C261.487 1.7834 261.177 1.75529 260.958 1.69142C260.803 1.69653 260.648 1.69397 260.525 1.67225C260.079 1.64031 259.646 1.59688 259.149 1.60199C259.026 1.6071 258.904 1.61093 258.787 1.61604C257.037 1.72463 255.248 1.6582 253.479 1.66203C252.349 1.66458 251.205 1.65564 250.081 1.69397C249.972 1.69397 249.862 1.69142 249.752 1.69014C249.52 1.66203 249.307 1.66458 249.126 1.70802C248.796 1.70547 248.461 1.69142 248.137 1.71824C247.356 1.67864 246.568 1.70802 245.781 1.6978C245.638 1.66458 245.496 1.66714 245.341 1.69397C245.096 1.6812 244.844 1.66842 244.598 1.65564C244.489 1.62243 244.34 1.61987 244.172 1.6352C243.733 1.61093 243.287 1.60582 242.835 1.62498C241.724 1.55982 240.575 1.56621 239.445 1.58026C238.67 1.58921 237.895 1.51894 237.126 1.58538C237.126 1.57132 237.126 1.55727 237.126 1.54321C236.984 1.55471 236.842 1.56621 236.693 1.57771L236.719 1.63392C236.713 1.61476 236.706 1.59688 236.693 1.57771C236.512 1.56749 236.325 1.55599 236.145 1.54577C235.563 1.58921 234.956 1.59049 234.349 1.59432C234.039 1.59688 233.703 1.57771 233.438 1.62754C233.354 1.62754 233.264 1.62754 233.18 1.62881C232.986 1.61221 232.799 1.62243 232.605 1.62881C232.269 1.59815 231.94 1.56365 231.592 1.62115C231.592 1.6352 231.592 1.64925 231.592 1.66203C231.92 1.65053 232.257 1.65309 232.586 1.66586C232.612 1.69014 232.644 1.71441 232.747 1.72463C232.644 1.71569 232.612 1.69014 232.586 1.66586C232.257 1.65309 231.927 1.65053 231.592 1.66203C231.592 1.64798 231.592 1.6352 231.592 1.62115C231.133 1.62498 230.668 1.59177 230.215 1.62881C229.893 1.60837 229.57 1.60965 229.24 1.61732C228.718 1.60199 228.194 1.58155 227.665 1.60454C227.477 1.5841 227.284 1.57515 227.084 1.59943C226.961 1.58026 226.825 1.57515 226.67 1.5841C226.489 1.55982 226.295 1.55343 226.089 1.56749C225.43 1.5496 224.803 1.48956 224.119 1.51639C223.157 1.47039 222.182 1.48061 221.206 1.48445C220.935 1.45889 220.657 1.45378 220.373 1.47422C219.262 1.47039 218.151 1.46528 217.034 1.46145C216.905 1.44612 216.769 1.44484 216.64 1.45889C216.317 1.45251 216.001 1.44612 215.678 1.43973C215.536 1.41163 215.394 1.41035 215.245 1.43973C215.064 1.42696 214.877 1.42568 214.69 1.43718C214.225 1.38352 213.734 1.40907 213.256 1.41929C212.546 1.43334 211.835 1.464 211.118 1.4244C210.795 1.43462 210.479 1.4359 210.156 1.42057C209.439 1.43462 208.729 1.44612 208.012 1.46145C206.333 1.49595 204.653 1.5496 203.02 1.41035C202.851 1.3963 202.632 1.40396 202.438 1.40396C200.837 1.40396 199.235 1.41418 197.639 1.42696C195.98 1.43973 194.314 1.4755 192.641 1.45378C191.988 1.44484 191.356 1.4985 190.691 1.45378C190.116 1.41546 190.103 1.42568 190.471 1.30814C190.464 1.29537 190.451 1.28132 190.451 1.26853C190.451 1.28132 190.464 1.29409 190.471 1.30814C190.748 1.31198 191.013 1.30559 191.246 1.27364C191.633 1.26853 192.021 1.26215 192.408 1.25704C192.434 1.24426 192.46 1.23276 192.486 1.22382C192.537 1.20594 192.602 1.19444 192.667 1.18805C192.602 1.19444 192.544 1.20594 192.486 1.22382C192.46 1.23276 192.434 1.24426 192.408 1.25704C192.544 1.26598 192.686 1.27492 192.822 1.28387C192.951 1.28003 193.086 1.27748 193.216 1.27364C193.216 1.25959 193.216 1.24554 193.216 1.23149C193.416 1.2366 193.629 1.21871 193.822 1.24426C193.881 1.2366 193.932 1.22893 193.991 1.22127C193.991 1.20594 194.004 1.19316 194.036 1.18422C194.004 1.19316 193.984 1.20721 193.991 1.22127C194.132 1.24171 194.269 1.24298 194.41 1.22127C194.54 1.22893 194.669 1.23532 194.798 1.24298C194.727 1.23532 194.714 1.2251 194.752 1.21232C195.36 1.25576 195.954 1.24554 196.541 1.19699C196.71 1.18294 196.787 1.15866 196.774 1.12289C196.916 1.11267 197.058 1.10245 197.2 1.09223C197.517 1.10756 197.846 1.05901 198.163 1.0999C198.537 1.08968 198.899 1.04496 199.293 1.07818C199.435 1.05518 199.59 1.0539 199.758 1.06923C199.881 1.06412 200.003 1.05774 200.119 1.05263C200.565 0.956807 201.256 0.992583 201.844 0.946587C201.45 0.857156 201.049 0.972137 200.714 0.915927C200.578 0.917204 200.443 0.919759 200.313 0.921037C200.255 0.965749 200.113 0.977247 199.907 0.958084C199.654 0.972137 199.409 0.969582 199.164 0.954252C198.512 0.984918 197.814 0.922314 197.188 0.997693C195.805 0.942754 194.436 0.973414 193.067 1.0143C192.918 0.997693 192.763 0.996415 192.608 1.01047C192.434 0.995138 192.26 0.992583 192.079 1.00153C192.079 1.01686 192.053 1.02963 192.008 1.03985C192.047 1.02963 192.072 1.01686 192.079 1.00153C191.737 0.978524 191.394 0.969582 191.065 1.01175C190.542 0.991305 190.025 0.954252 189.489 0.990028C189.367 0.973414 189.237 0.970859 189.102 0.981085C189.082 1.00791 189.031 1.0258 188.953 1.03602C189.031 1.02452 189.082 1.00791 189.102 0.981085C188.869 0.946587 188.585 0.945309 188.314 0.940199C187.862 0.876319 187.493 0.923592 187.132 0.974692C186.99 0.973414 186.835 0.977247 186.719 0.954252C186.538 0.969582 186.35 0.969582 186.163 0.956807C186.04 0.977247 185.891 0.974692 185.743 0.975969C185.491 0.927424 185.052 0.904429 185.169 0.806056C184.968 0.806056 184.775 0.804779 184.574 0.803501C184.503 0.818831 184.439 0.835439 184.367 0.850769C183.845 0.850769 183.328 0.850769 182.805 0.850769C182.734 0.850769 182.662 0.850769 182.591 0.850769C182.133 0.834161 181.661 0.868654 181.216 0.830329C180.964 0.836716 180.712 0.844381 180.454 0.850769C179.976 0.827774 179.504 0.822664 179.027 0.855879C178.245 0.844381 177.464 0.834161 176.689 0.822664L176.753 0.835439L176.727 0.852046C176.514 0.827774 176.288 0.826496 176.062 0.845659C175.558 0.812444 175.041 0.823941 174.525 0.823941C174.454 0.823941 174.389 0.821386 174.318 0.820109C173.666 0.816276 173.007 0.813721 172.355 0.809889C172.232 0.779223 172.084 0.779223 171.922 0.797114C171.29 0.751118 170.618 0.788171 169.978 0.757505L169.423 0.790726C169.287 0.777945 169.152 0.766448 169.022 0.753673C168.557 0.783061 168.047 0.735788 167.595 0.785616C167.485 0.784339 167.376 0.781784 167.272 0.780506C167.22 0.802224 167.163 0.818831 167.098 0.825219C167.169 0.820109 167.22 0.803501 167.272 0.780506C167.098 0.75495 166.956 0.763893 166.846 0.798391C166.704 0.793281 166.568 0.788171 166.426 0.783061C166.439 0.789449 166.452 0.794559 166.465 0.800946C165.813 0.756228 165.141 0.793281 164.476 0.779229C164.198 0.830329 163.856 0.802224 163.539 0.807334C163.242 0.812444 162.958 0.818831 162.725 0.860989C162.545 0.894209 162.435 0.931257 162.512 0.981085C162.584 1.02835 162.796 1.02963 162.99 1.02963C163.288 1.02835 163.571 1.05901 163.843 1.06029C164.585 1.06412 165.303 1.13567 166.058 1.09223C166.433 1.09862 166.807 1.10501 167.182 1.11267C167.221 1.22638 166.846 1.2136 166.478 1.20338C166.09 1.19188 165.67 1.14844 165.251 1.26726C166.323 1.26342 167.253 1.31453 168.215 1.29665C168.344 1.2992 168.48 1.30176 168.609 1.30431C168.661 1.33114 168.712 1.32858 168.758 1.30431C169.003 1.31198 169.242 1.31964 169.487 1.32731C169.578 1.3733 169.752 1.41418 169.758 1.46656C169.371 1.47167 168.99 1.47678 168.603 1.48189C168.512 1.5215 168.422 1.53683 168.325 1.52788C168.422 1.5381 168.512 1.52277 168.603 1.48189C168.448 1.46911 168.299 1.46911 168.151 1.48317C168.034 1.47933 167.912 1.47422 167.795 1.47039C167.724 1.47039 167.653 1.46784 167.582 1.46656C167.453 1.46528 167.324 1.464 167.195 1.46145C167.13 1.46145 167.059 1.46145 166.994 1.46017C165.677 1.44995 164.353 1.43973 163.035 1.42951C162.913 1.4359 162.79 1.44356 162.674 1.44995C161.828 1.41801 160.975 1.43334 160.123 1.43845C160.11 1.45506 160.065 1.46784 159.974 1.46145C159.942 1.45889 159.922 1.44484 159.903 1.43718C159.761 1.43207 159.619 1.42823 159.496 1.44612C159.51 1.43973 159.522 1.43462 159.542 1.42823C159.193 1.45123 158.844 1.44995 158.508 1.41929C158.521 1.42568 158.541 1.43207 158.553 1.43845C158.031 1.39885 157.488 1.43845 156.958 1.41929C156.958 1.43207 156.952 1.44612 156.945 1.45889C156.164 1.46145 155.382 1.46528 154.601 1.46784C154.53 1.46784 154.452 1.47039 154.381 1.47167C154.259 1.47167 154.136 1.47167 154.013 1.47295C153.935 1.46145 153.858 1.44995 153.78 1.43845C153.122 1.44484 152.47 1.45251 151.811 1.45889L151.85 1.44229C150.816 1.46911 149.783 1.43718 148.75 1.43718C148.136 1.43718 147.522 1.43718 146.902 1.4359C146.838 1.4359 146.767 1.4359 146.702 1.4359C146.308 1.42951 145.921 1.42312 145.527 1.41801C144.48 1.36435 143.421 1.38608 142.362 1.39119C142.472 1.41163 142.601 1.42568 142.73 1.4359C142.595 1.42568 142.472 1.41163 142.362 1.39119C142.039 1.38863 141.716 1.38608 141.4 1.38352C141.271 1.36691 141.135 1.36435 141 1.37841C140.87 1.37841 140.741 1.37841 140.612 1.37841L140.405 1.38097C139.753 1.38097 139.107 1.33625 138.455 1.37457C137.983 1.35797 137.506 1.34136 136.963 1.3222C137.131 1.26215 137.383 1.28003 137.557 1.2647C137.68 1.25448 137.764 1.24171 137.796 1.21232C137.945 1.0539 137.957 1.05007 138.655 1.07307C138.913 1.08074 139.152 1.0999 139.404 1.06796C139.546 1.05007 139.701 1.03219 139.669 0.996415C139.637 0.960639 139.462 0.947864 139.295 0.950419C138.81 0.958084 138.326 0.968304 137.841 0.975969C137.518 0.981085 137.196 0.990028 136.879 0.963194C136.563 0.98364 136.253 0.973414 135.949 0.954252C135.574 0.984918 135.174 0.973414 134.787 0.974692C134.199 0.977247 133.624 0.978524 133.043 1.00664C132.513 1.03091 131.971 1.04241 131.403 1.01302C130.763 0.981085 130.117 1.05263 129.459 1.03346C129.22 1.02708 128.994 1.01941 128.967 0.960639C128.948 0.912094 129.032 0.868654 129.271 0.849491C129.42 0.837994 129.6 0.843104 129.749 0.831606C130.162 0.797114 130.666 0.813721 131.009 0.743453C130.873 0.725568 130.731 0.717903 130.582 0.715348C130.731 0.717903 130.873 0.725568 131.009 0.742175C131.125 0.737065 131.248 0.733233 131.364 0.728123C131.448 0.70385 131.544 0.68852 131.648 0.684688C131.751 0.680855 131.861 0.68852 131.984 0.710238C132.578 0.712793 133.159 0.738343 133.76 0.72429C134.457 0.646357 135.219 0.628472 136.001 0.634859C136.046 0.634859 136.091 0.619529 136.136 0.610587C136.259 0.610587 136.388 0.610587 136.511 0.610587C136.686 0.576091 136.898 0.572258 137.125 0.578646C137.073 0.568426 137.06 0.556928 137.086 0.542874C136.95 0.503269 136.75 0.494326 136.543 0.489216C136.75 0.494326 136.943 0.503269 137.086 0.542874C137.376 0.536487 137.363 0.503269 137.247 0.463664C137.157 0.431725 137.047 0.399786 136.95 0.367847C136.808 0.371679 136.666 0.375512 136.517 0.380622C136.427 0.43428 136.052 0.408729 135.956 0.459832C135.762 0.459832 135.562 0.459832 135.368 0.459832C135.336 0.443223 135.297 0.426615 135.264 0.410007C135.032 0.406174 134.806 0.401063 134.573 0.397231C134.283 0.450889 133.953 0.417672 133.637 0.411284C133.088 0.398508 132.668 0.42917 132.442 0.535209C132.358 0.535209 132.281 0.532654 132.197 0.531376C132.139 0.482828 131.906 0.443223 131.996 0.38701C131.686 0.357626 131.351 0.371679 131.028 0.364014C131.028 0.379345 131.028 0.394676 131.028 0.408729C131.066 0.417672 131.105 0.426615 131.144 0.435558C131.26 0.462387 131.376 0.486661 131.519 0.505825C131.383 0.487939 131.26 0.462387 131.144 0.435558C131.105 0.426615 131.066 0.417672 131.028 0.408729C130.886 0.401063 130.75 0.394676 130.608 0.38701C130.369 0.413839 130.059 0.402341 129.84 0.441946C128.857 0.399786 127.87 0.456 126.888 0.433003C125.732 0.499437 124.55 0.531376 123.265 0.504547C123.445 0.564593 123.71 0.563315 123.762 0.609309C123.465 0.660409 123.097 0.655299 122.748 0.660409C122.444 0.664242 122.077 0.660409 122.077 0.735788C122.077 0.811166 122.464 0.809889 122.748 0.813721C123.007 0.817554 123.271 0.812444 123.536 0.813721C124.059 0.814999 124.582 0.816276 125.106 0.820109C125.222 0.820109 125.389 0.818831 125.409 0.853324C125.435 0.892932 125.286 0.913372 125.131 0.921037C124.653 0.944032 124.156 0.941477 123.665 0.936367C123.336 0.932534 123.013 0.928702 122.684 0.926147C122.283 0.923592 122.044 0.972137 122.025 1.04113C122.005 1.11906 122.38 1.11523 122.67 1.12673C123.097 1.14333 123.484 1.06923 123.911 1.11012C124.098 1.10501 124.292 1.0999 124.479 1.09479C124.899 1.01941 125.441 1.04624 125.861 1.06412C126.778 1.10501 127.682 1.08968 128.593 1.09223C129.607 1.09607 130.621 1.09223 131.635 1.09479C131.964 1.09479 132.287 1.09862 132.604 1.07307C133.043 1.0373 133.43 1.07307 133.837 1.10118C134.244 1.13056 134.27 1.19572 134.212 1.25959C134.147 1.32986 133.812 1.32475 133.572 1.30687C132.481 1.22382 131.409 1.28898 130.311 1.30048C128.851 1.31581 127.385 1.35413 125.919 1.30814C124.899 1.32986 123.878 1.34264 122.858 1.34264C122.858 1.35541 122.858 1.36819 122.858 1.38097C121.941 1.38352 121.03 1.38608 120.113 1.38863C120.049 1.38991 119.984 1.39119 119.913 1.39246C119.719 1.39246 119.525 1.39246 119.331 1.39246C119.202 1.37713 119.067 1.37585 118.931 1.38991C118.744 1.39119 118.55 1.39246 118.363 1.39374C118.15 1.37585 117.943 1.37585 117.73 1.39502C117.42 1.39374 117.103 1.39246 116.793 1.39119C116.781 1.41035 116.767 1.42951 116.748 1.44867C116.761 1.42951 116.774 1.41035 116.793 1.39119C116.587 1.3733 116.373 1.37202 116.161 1.38608C116.038 1.37968 115.922 1.37202 115.799 1.36563C115.592 1.32986 115.489 1.29154 115.721 1.24554C115.773 1.24554 115.818 1.24171 115.851 1.23404C116.6 1.24682 116.722 1.0884 117.401 1.04496C116.193 0.99897 115.166 0.951697 114.068 0.982363C112.822 1.01686 111.543 1.0143 110.284 1.02835C109.954 1.02835 109.625 1.02835 109.295 1.02963C109.03 1.08329 108.675 1.05774 108.365 1.06923C108.081 1.07945 107.771 1.05901 107.532 1.10756C107.39 1.10245 107.241 1.09607 107.1 1.09096C107.112 1.09734 107.119 1.10501 107.119 1.1114C106.874 1.10373 106.628 1.09734 106.382 1.08968C105.963 1.09862 105.543 1.10629 105.13 1.08201C104.748 1.08585 104.361 1.09096 103.98 1.09479C103.967 1.10756 103.961 1.12034 103.961 1.13311C103.379 1.13184 102.798 1.13056 102.21 1.12928C101.972 1.05263 101.668 1.14717 101.409 1.11778C101.087 1.11778 100.77 1.11906 100.447 1.12034C100.202 1.15483 99.8595 1.11523 99.6336 1.1625C99.3105 1.1625 98.981 1.16377 98.6585 1.16505C98.4777 1.18422 98.2901 1.19699 98.1031 1.20466C98.2901 1.19699 98.4777 1.18294 98.6585 1.16505C98.3485 1.11267 97.9413 1.10884 97.5735 1.09734C97.1537 1.08457 96.766 1.06157 96.3656 1.03602C95.5517 0.984918 94.7379 0.990028 94.0338 1.10884C93.8079 1.14717 93.5757 1.14589 93.3041 1.128C92.9558 1.10501 93.117 1.06029 93.1559 1.01941C93.1559 1.01302 93.1622 1.00408 93.1491 1.00153C92.6195 0.891654 93.0587 0.809889 93.3561 0.72429C93.1107 0.701295 92.7813 0.7294 92.5874 0.675739C91.6638 0.691075 90.7401 0.638692 89.817 0.680855C89.4939 0.660409 89.1707 0.651467 88.835 0.669352C88.7057 0.662964 88.5771 0.656577 88.4478 0.650189C88.183 0.668074 87.8536 0.646357 87.6402 0.69874C87.253 0.696185 86.8653 0.692353 86.4844 0.689798C86.4323 0.654022 86.239 0.651467 86.1292 0.629749C85.9548 0.647634 85.8061 0.643802 85.7025 0.608032C85.5607 0.608032 85.4251 0.608032 85.2827 0.608032C85.225 0.624639 85.1604 0.641247 85.102 0.659132C84.7726 0.661687 84.4431 0.664242 84.1143 0.666797C84.1011 0.652744 84.0948 0.638692 84.0817 0.624639C83.7008 0.609309 83.3199 0.592702 82.9384 0.576091C82.9384 0.590147 82.9384 0.605477 82.9384 0.619529C82.3573 0.595257 81.7374 0.670629 81.1689 0.595257C80.7685 0.54543 80.3681 0.535209 79.9741 0.597812C79.7802 0.597812 79.5674 0.622084 79.3867 0.586314C79.2123 0.595257 79.0315 0.599089 78.8571 0.592702C78.8891 0.596534 78.9217 0.602922 78.9406 0.610587C78.5019 0.600367 78.069 0.590147 77.6298 0.578646L77.2294 0.595257C76.7061 0.591424 76.1833 0.587592 75.66 0.582479C75.66 0.568426 75.66 0.554372 75.6663 0.540319C75.1367 0.536487 74.5945 0.55054 74.0775 0.514768C73.9419 0.526266 73.8127 0.537764 73.6771 0.55054C73.2253 0.544152 72.7729 0.539042 72.3211 0.532654C72.2696 0.544152 72.2176 0.553095 72.1724 0.559483C72.0757 0.572258 71.9854 0.577369 71.9013 0.576091C71.9854 0.577369 72.0757 0.573536 72.1724 0.559483C72.2176 0.553095 72.2696 0.544152 72.3211 0.532654C72.3211 0.519878 72.3211 0.507102 72.3079 0.494326C72.1146 0.490494 71.9207 0.486661 71.7269 0.482828C71.5913 0.489216 71.4558 0.494326 71.3265 0.500714C71.1263 0.499437 70.9262 0.498159 70.726 0.496882C70.5447 0.473885 70.2799 0.487939 70.1443 0.444501C69.8732 0.444501 69.6084 0.444501 69.3373 0.443223V0.487939C69.4409 0.512212 69.5633 0.526266 69.6925 0.535209C69.5633 0.526266 69.4409 0.51349 69.3373 0.487939C69.2018 0.485384 69.0725 0.482828 68.937 0.480273C68.814 0.486661 68.6916 0.493049 68.5687 0.498159C68.504 0.496882 68.4331 0.494326 68.3685 0.493049C68.3102 0.485384 68.2587 0.477718 68.2003 0.470053C67.7354 0.490494 67.2704 0.476441 66.7991 0.477718C66.2758 0.412562 65.7462 0.42406 65.2103 0.47133C64.8872 0.484106 64.5451 0.459832 64.2289 0.489216C64.222 0.510935 64.2289 0.528821 64.2483 0.542874C64.274 0.556928 64.3124 0.568426 64.3644 0.577369C64.3124 0.568426 64.274 0.558205 64.2483 0.542874C64.222 0.528821 64.2157 0.510935 64.2289 0.489216C64.035 0.473885 63.8348 0.475163 63.6409 0.490494C63.3761 0.478996 63.1113 0.468775 62.8465 0.457277C62.7173 0.457277 62.5817 0.457277 62.4524 0.457277C62.5108 0.463664 62.5234 0.473885 62.485 0.485384C62.0006 0.452166 61.5482 0.477718 61.0901 0.50838C60.1081 0.50838 59.1198 0.50838 58.1384 0.50838C57.8027 0.484106 57.4601 0.498159 57.1244 0.50838C56.6142 0.486661 56.104 0.493049 55.5873 0.50838C55.3677 0.485384 55.1675 0.499437 54.9802 0.524989C54.4506 0.522433 53.9211 0.504547 53.4044 0.537764C53.2687 0.523711 53.1331 0.524989 52.9975 0.537764C52.5907 0.526266 52.1837 0.509657 51.8156 0.56076C51.7511 0.563315 51.6929 0.565871 51.6283 0.568426C51.6283 0.577369 51.6283 0.587592 51.6154 0.597812C51.6154 0.587592 51.6154 0.578646 51.6283 0.568426C51.0342 0.558205 50.44 0.549262 49.8459 0.539042C49.7167 0.542874 49.5875 0.546707 49.4583 0.55054C49.4583 0.564593 49.4583 0.577369 49.4583 0.591424C49.5358 0.645079 49.665 0.668074 49.82 0.675739C49.665 0.666797 49.5358 0.643802 49.4583 0.591424L48.8512 0.569703C48.6058 0.591424 48.3539 0.600367 48.0827 0.587592C48.102 0.600367 48.0956 0.611864 48.0633 0.623362C47.9406 0.627194 47.8114 0.632304 47.6887 0.636137C47.495 0.628472 47.3012 0.622084 47.1075 0.614419C47.1075 0.601644 47.1075 0.587592 47.1075 0.574813C46.9719 0.574813 46.8427 0.574814 46.7071 0.576091C46.7071 0.590147 46.7071 0.604199 46.7006 0.618252C46.2421 0.636137 45.7835 0.655299 45.325 0.673184C45.2539 0.662964 45.1829 0.652744 45.1118 0.642524C44.9827 0.645079 44.8535 0.648912 44.7308 0.651467C44.1689 0.712793 43.5747 0.737065 42.9353 0.71407C42.7545 0.730678 42.5608 0.731955 42.3606 0.726845C42.057 0.769003 41.7535 0.804779 41.366 0.77028C41.2368 0.780506 41.1076 0.777945 40.9849 0.766448C40.7589 0.799669 40.4941 0.795836 40.2358 0.794559C39.2024 0.792004 38.1691 0.797114 37.1357 0.816276C36.2897 0.831606 35.4824 0.783061 34.6621 0.752395C34.5395 0.752395 34.4103 0.752395 34.2876 0.752395C34.0874 0.783061 33.8807 0.780506 33.6676 0.761338C33.5384 0.76517 33.4157 0.769003 33.2865 0.771558C33.1767 0.804779 33.0411 0.811166 32.8667 0.790726C32.744 0.795836 32.6213 0.799669 32.4986 0.804779C32.4146 0.826496 32.3048 0.840549 32.1692 0.841826C31.278 0.850769 30.4319 0.909539 29.5729 0.949142C28.01 1.02069 26.4535 1.10756 25.1102 1.29154C24.6193 1.35924 24.0833 1.41163 23.5343 1.44995C22.6625 1.51128 21.7583 1.54194 20.88 1.61221C20.0598 1.67736 19.5818 1.76423 19.2072 1.90094C18.9166 1.90733 18.6518 1.93543 18.3418 1.92393C17.4506 1.89072 16.6045 1.95587 15.9135 2.04019C15.2741 2.11812 14.6089 2.15262 13.9243 2.19223C13.3043 2.228 12.6455 2.24333 12.1289 2.33276H12.0708V2.33148C11.9157 2.33914 11.7542 2.34298 11.5993 2.3532C9.778 2.46434 8.10528 2.6381 6.49066 2.83612C6.23878 2.86678 5.87715 2.88595 5.97404 2.95493C6.07086 3.02265 6.46487 3.00476 6.74254 3.00732C6.89753 3.00859 7.06545 2.9971 7.20757 2.98432C7.5111 2.95621 7.86632 2.92044 8.1182 2.97282C8.4088 3.03287 8.07296 3.09675 7.89217 3.14146C7.60152 3.21301 7.6984 3.25133 7.95028 3.3216C8.44757 3.45958 9.36467 3.47491 9.86842 3.60522C9.95884 3.62694 10.1784 3.62055 10.3399 3.60778C11.0632 3.55028 11.6703 3.58606 12.2257 3.68954C12.4388 3.73042 12.8264 3.76875 13.0266 3.73809C13.5626 3.65377 14.131 3.69976 14.6799 3.70104C15.0804 3.70104 15.2483 3.68187 15.3903 3.60778C15.7649 3.41614 15.9006 3.40848 16.7789 3.52984C17.147 3.58094 17.5023 3.59372 17.8833 3.56306C18.7874 3.48896 19.711 3.42253 20.4343 3.28327C20.641 3.28071 20.8541 3.27816 21.0608 3.27688C21.4612 3.40337 21.5646 3.40848 21.881 3.31777C21.9908 3.30499 22.1006 3.29349 22.2104 3.28071C22.4558 3.30627 22.6044 3.29349 22.6431 3.23856C22.514 3.236 22.3912 3.23217 22.2621 3.22961C21.9973 3.17979 21.8487 3.22323 21.6937 3.259C21.8487 3.22323 21.9908 3.17979 22.2621 3.22961C22.3912 3.23217 22.514 3.236 22.6431 3.23856C22.7787 3.22834 22.9144 3.21812 23.05 3.20917C23.1856 3.22067 23.3212 3.21812 23.4439 3.20406C23.8185 3.22578 24.1156 3.18362 24.4386 3.15807C24.4514 3.1734 24.4902 3.17979 24.5677 3.17851C24.6323 3.2245 24.8131 3.25516 24.9746 3.28455C25.2588 3.33693 25.4913 3.32671 25.6592 3.25644C25.84 3.24622 26.0209 3.23472 26.2016 3.2245C26.2985 3.24367 26.3696 3.24111 26.4277 3.21684C26.8798 3.20406 27.3254 3.18873 27.6096 3.10569C28.1327 3.07502 28.6559 3.04436 29.179 3.01498C29.179 3.01498 29.179 3.01498 29.179 3.0137C29.179 3.0137 29.179 3.0137 29.179 3.01498C29.108 3.09547 29.6375 3.07502 29.6957 3.13124C29.6828 3.14146 29.6828 3.1504 29.6634 3.15296C28.9142 3.23728 28.5525 3.4187 27.6613 3.46596C27.5579 3.47107 27.5321 3.48896 27.4998 3.50813C27.1769 3.6921 26.9702 3.71637 26.0725 3.68827C25.7044 3.67676 25.3233 3.63333 24.9552 3.69849C24.8906 3.70998 24.671 3.70743 24.5936 3.69338C24.1221 3.61544 23.6894 3.65249 23.2244 3.69593C22.8498 3.7317 22.4687 3.73298 22.12 3.67676C21.6808 3.6065 21.0996 3.61033 20.725 3.65121C20.0985 3.7202 19.3752 3.71126 18.781 3.77258C17.7024 3.88117 16.3849 3.90928 15.6099 4.12392C15.5389 4.14308 15.3968 4.15713 15.2805 4.16352C13.7822 4.24145 12.2968 4.32961 10.7597 4.37432C10.0428 4.41265 9.32589 4.4497 8.61549 4.48803C7.96321 4.58895 7.26568 4.66305 6.39377 4.62728C6.20653 4.64133 6.01276 4.65539 5.82545 4.67071L5.80612 4.78315C5.99983 4.78315 6.1936 4.78186 6.39377 4.78059C6.52944 4.72565 6.85235 4.73715 7.05904 4.70649C7.30446 4.67071 7.58859 4.63239 7.75651 4.72054C7.91151 4.79975 7.73712 4.88919 7.37549 4.90579C7.05258 4.91985 6.98149 4.9339 6.89753 5.01055C6.65212 5.23924 6.23232 5.27628 4.75983 5.25073C4.81795 5.18174 5.29588 5.21113 5.36692 5.14853C4.46275 5.19452 3.79107 5.11787 3.1969 4.99522C2.92565 5.03738 2.65439 5.07954 2.38315 5.12042C2.13772 5.22008 2.7319 5.26223 2.76419 5.34272C2.65439 5.34528 2.55106 5.34783 2.44127 5.35039C2.20877 5.31973 1.99564 5.31973 1.82772 5.36955C1.69856 5.37594 1.57584 5.38105 1.44668 5.38616C1.36918 5.3721 1.28522 5.35933 1.20772 5.34528C0.800839 5.37083 0.23896 5.31206 0 5.43087C0.226043 5.44109 0.284169 5.4692 0.20021 5.51008C0.232502 5.52925 0.264794 5.54969 0.297085 5.56885L1.1948 5.70811C1.39501 5.70811 1.58876 5.70939 1.78897 5.71066C1.85356 5.69406 1.9246 5.67744 1.98918 5.66084C2.11189 5.65317 2.2346 5.64551 2.35731 5.63784C2.77065 5.70811 3.19044 5.76432 3.79753 5.76176C4.0042 5.76176 4.60483 5.75154 4.424 5.87166C4.38524 5.94959 4.52733 5.99941 4.96004 5.9892C5.28296 5.9815 5.59296 5.96365 5.90941 5.95087C6.69736 5.88443 7.44653 5.8052 8.00193 5.66978C7.89217 5.65956 7.78883 5.65445 7.6984 5.65445C7.79529 5.65445 7.89217 5.65956 8.00193 5.66978C8.10528 5.66467 8.20862 5.65828 8.31197 5.65317C8.65421 5.67361 8.99651 5.69406 9.33881 5.71577C9.52612 5.72727 9.67465 5.74771 9.78446 5.78477C10.1332 5.901 10.3722 5.91762 10.8501 5.84097C11.6186 5.71705 12.5357 5.657 13.427 5.59185C13.9436 5.55352 14.5572 5.52158 15.0674 5.62379C15.3193 5.67489 15.6551 5.68384 15.9716 5.65189C16.5205 5.59568 16.8112 5.64678 17.0501 5.73877C17.1083 5.76049 17.2181 5.77582 17.302 5.79498C17.5023 5.89593 17.0953 6.01218 17.5087 6.10797C17.5862 6.19488 17.6895 6.28046 17.6443 6.37117C17.5862 6.48871 17.612 6.48871 16.8887 6.47978C16.7595 6.47978 16.6303 6.48107 16.5012 6.48229C16.1137 6.53217 15.7003 6.51169 15.287 6.49763C15.1901 6.51682 15.0932 6.53724 14.9964 6.55643C15.0287 6.60368 15.061 6.65093 15.0932 6.69824C15.2354 6.69824 15.3774 6.69696 15.5195 6.69567C15.8231 6.63816 16.1718 6.64714 16.527 6.67141C17.1793 6.6535 17.8252 6.65735 18.4775 6.66628C18.6001 6.6241 18.8455 6.64714 19.0071 6.62538H19.0329C19.0393 6.63944 19.0458 6.6535 19.0522 6.66756C19.317 6.65863 19.5948 6.68418 19.8466 6.64971C19.9048 6.65607 19.9693 6.6612 20.0274 6.66756C20.4343 6.6318 20.8348 6.67141 21.2416 6.66756C21.3385 6.6829 21.4418 6.68675 21.5581 6.67777C22.1652 6.72636 22.8627 6.73143 23.3793 6.82342C23.5408 6.82984 23.7023 6.83748 23.8637 6.8439C23.8896 6.85667 23.909 6.86945 23.9348 6.88223C24.1156 6.87324 24.2577 6.88222 24.3481 6.9167C24.4837 6.91157 24.6193 6.90649 24.7615 6.90136L24.7292 6.91798C24.8648 6.91798 24.994 6.91798 25.1296 6.9167C25.1296 6.93076 25.1296 6.94353 25.1296 6.95759C25.4589 6.95888 25.7948 6.96016 26.1242 6.96138C26.221 6.94097 26.3115 6.92177 26.4083 6.90136C27.9131 6.75827 29.418 6.61261 31.1552 6.6318C31.6784 6.63816 32.1886 6.66248 32.6924 6.69696C33.0605 6.72251 33.448 6.74677 33.8355 6.75319C34.6815 6.76847 35.5341 6.76597 36.3219 6.84262C36.4576 6.85667 36.6513 6.8579 36.8064 6.85282C37.717 6.82342 38.5178 6.88223 39.3768 6.93455C40.7008 7.01505 42.0958 7.02147 43.4585 6.95246C44.2012 6.91542 44.9374 6.90136 45.6931 6.89751C46.6102 6.89372 47.5273 6.87837 48.4443 6.8656C48.6381 6.86303 48.8771 6.86047 49.0063 6.83748C49.7425 6.70588 50.7177 6.67905 51.5702 6.59983C51.5896 6.59347 51.6154 6.58834 51.6348 6.58327C51.6089 6.58834 51.5896 6.59347 51.5702 6.59983C51.7188 6.60368 51.8415 6.59604 51.919 6.56792L51.9642 6.573C52.5132 6.58577 52.9975 6.5002 53.5594 6.53467L53.9404 6.52575C53.9404 6.51297 53.9533 6.5002 53.9857 6.48871C54.0438 6.49635 54.0955 6.49507 54.1471 6.48357C54.6832 6.49507 55.2192 6.50277 55.7294 6.45167C55.9361 6.44397 56.1427 6.43633 56.3559 6.42868C56.4592 6.44397 56.5755 6.44397 56.6853 6.43376C57.0404 6.45931 57.3766 6.44525 57.7054 6.41462C58.1578 6.41077 58.6097 6.40821 59.0558 6.40436C59.2039 6.41591 59.3526 6.41591 59.5013 6.40692C60.3987 6.42991 61.2966 6.43761 62.1945 6.41077C63.912 6.45038 65.6364 6.45295 67.3607 6.44274C67.8709 6.50277 68.4394 6.49635 68.9822 6.48614C69.5764 6.47465 70.138 6.48742 70.7191 6.51297C71.7011 6.55515 72.702 6.55258 73.8579 6.52447C73.1092 6.40313 73.9225 6.39928 74.0455 6.34177C74.4264 6.35839 74.7364 6.32135 75.0401 6.28559C75.6921 6.32263 76.3835 6.27153 77.0229 6.3252C77.5457 6.31493 78.069 6.31493 78.5923 6.32899C78.9475 6.2741 79.4056 6.33156 79.7676 6.28559C79.9032 6.28687 80.0387 6.2881 80.168 6.28938C80.2972 6.30601 80.4265 6.30601 80.562 6.29323C80.8915 6.31242 81.214 6.31242 81.5435 6.2958C82.5318 6.30857 83.5132 6.32771 84.5015 6.30729C85.3542 6.32135 86.2064 6.32007 87.0592 6.31114C87.3886 6.33284 87.7112 6.32392 88.028 6.30601C88.3574 6.31114 88.6863 6.31493 89.0226 6.32007C89.352 6.35967 89.6877 6.35711 90.0235 6.32642C90.1527 6.33541 90.282 6.33413 90.4044 6.32135C90.6692 6.34048 90.9277 6.33798 91.1862 6.31878C91.6512 6.33541 92.1093 6.34048 92.5811 6.32392C93.2978 6.35075 94.0081 6.36603 94.7184 6.32135C94.8608 6.33028 94.9964 6.33027 95.132 6.3175C95.5323 6.33541 95.9264 6.31878 96.3141 6.29965C96.7076 6.31622 97.1017 6.32135 97.4957 6.30729C97.6896 6.3252 97.8898 6.32643 98.09 6.30857C98.6196 6.32263 99.1492 6.33926 99.6725 6.30472C100.338 6.31622 100.997 6.3175 101.642 6.28046C101.978 6.29323 102.301 6.2881 102.63 6.27025L102.721 6.27789L102.811 6.26897C102.953 6.28174 103.089 6.28174 103.231 6.26897C103.573 6.29067 103.896 6.28174 104.206 6.24855C104.93 6.26004 105.653 6.27025 106.37 6.24085C106.757 6.25491 107.157 6.21145 107.539 6.24977C107.797 6.22807 108.068 6.21658 108.352 6.22551C108.34 6.21273 108.346 6.19996 108.359 6.18718C108.191 6.17826 107.926 6.17312 107.642 6.17441C107.926 6.17441 108.191 6.17826 108.359 6.18718C108.481 6.18718 108.611 6.18718 108.734 6.18718C108.94 6.20509 109.14 6.22294 109.347 6.24085C109.47 6.237 109.599 6.23449 109.721 6.23064C109.838 6.17954 110.129 6.19488 110.316 6.17062C110.574 6.18718 110.839 6.19103 111.097 6.17184C111.892 6.19488 112.667 6.16292 113.448 6.14629C113.654 6.15784 113.855 6.15656 114.055 6.13865C114.204 6.15399 114.346 6.15399 114.462 6.12587C115.263 6.14886 116.045 6.07734 116.838 6.11053C116.897 6.10032 116.955 6.09012 117.013 6.07991C117.142 6.08498 117.278 6.09012 117.407 6.09648C117.691 6.04537 118.091 6.09391 118.389 6.05307C118.66 6.06457 118.925 6.05943 119.183 6.03902C119.319 6.05051 119.454 6.06072 119.584 6.07221C119.777 6.05436 120.035 6.07221 120.19 6.0326C120.52 6.04922 120.836 6.0326 121.153 6.01475C121.605 6.05436 122.083 6.01218 122.535 6.03388C122.8 5.99427 123.058 5.99556 123.31 6.03773C123.439 6.03773 123.568 6.0403 123.698 6.04158C124.408 5.99684 125.183 6.02367 125.881 5.9598C126.016 5.9598 126.152 5.95723 126.287 5.95595C127.424 5.98407 128.548 5.97001 129.639 5.89721C130.098 5.9087 130.563 5.92404 131.009 5.88694C131.493 5.90228 131.971 5.88694 132.423 5.85503C133.314 5.78988 134.224 5.77709 135.161 5.80137C135.291 5.80137 135.419 5.79882 135.549 5.79754C135.613 5.78349 135.678 5.76943 135.749 5.7541C135.71 5.74388 135.665 5.73621 135.613 5.7311C135.658 5.73621 135.704 5.74388 135.749 5.7541C136.214 5.76815 136.672 5.76176 137.125 5.74388C137.389 5.7541 137.654 5.76432 137.925 5.77582L138.313 5.76943C138.313 5.75538 138.32 5.7426 138.326 5.72855C138.726 5.73366 139.127 5.73749 139.514 5.71066C139.624 5.71961 139.714 5.71577 139.779 5.69661C140.089 5.70811 140.392 5.69661 140.69 5.68384C141.032 5.703 141.368 5.71322 141.678 5.66467C141.8 5.67872 141.975 5.66339 142.059 5.69533C142.246 5.67617 142.485 5.69406 142.653 5.66084C142.718 5.65956 142.782 5.657 142.84 5.65573C143.105 5.67106 143.37 5.67361 143.628 5.65317C144.074 5.69661 144.558 5.65062 145.017 5.67617C145.21 5.63784 145.41 5.63912 145.63 5.66722C146.076 5.63784 146.534 5.64295 146.993 5.64423C147.057 5.6289 147.116 5.61485 147.18 5.59952C147.497 5.6174 147.813 5.62507 148.136 5.60974C148.175 5.60207 148.213 5.59441 148.259 5.58802C148.22 5.59441 148.181 5.60079 148.136 5.60974C148.149 5.62251 148.156 5.63529 148.156 5.64806C148.491 5.63784 148.821 5.63784 149.156 5.65062C149.156 5.63784 149.156 5.62507 149.17 5.61357C149.04 5.58674 148.911 5.56885 148.788 5.56246C148.917 5.57013 149.047 5.58674 149.17 5.61357C149.486 5.61357 149.796 5.61612 150.112 5.61612C150.125 5.62762 150.125 5.63912 150.119 5.65062C150.448 5.64167 150.79 5.67744 151.114 5.64295C151.301 5.65445 151.488 5.66595 151.669 5.67744C151.824 5.65317 151.972 5.65317 152.121 5.68C152.179 5.66978 152.237 5.65828 152.289 5.64806C152.857 5.68511 153.471 5.62762 154.033 5.68384C154.323 5.66084 154.607 5.66211 154.879 5.69278C155.182 5.65956 155.505 5.65956 155.841 5.67233C155.841 5.65956 155.841 5.64678 155.867 5.63401C156.254 5.65062 156.642 5.65189 157.023 5.63401C157.365 5.657 157.733 5.6685 158.069 5.65189C158.708 5.61868 159.186 5.67106 159.651 5.74388C159.755 5.74516 159.858 5.74771 159.961 5.74899C160.375 5.71322 160.769 5.71705 161.137 5.77071C161.279 5.77071 161.415 5.77071 161.556 5.77071C161.737 5.72983 161.944 5.72727 162.17 5.75538C162.286 5.74132 162.396 5.74132 162.5 5.75793C163.571 5.73366 164.65 5.73877 165.722 5.73621C165.948 5.73621 166.18 5.73877 166.407 5.73621C166.543 5.73621 166.659 5.71961 166.691 5.6915C166.736 5.65317 166.62 5.62762 166.445 5.62251C165.832 5.60463 165.257 5.54713 164.618 5.56374C164.314 5.5714 164.036 5.56374 163.778 5.52669C163.539 5.49348 163.688 5.46026 163.753 5.42576C164.146 5.42704 164.514 5.46664 164.921 5.45131C164.967 5.44493 165.005 5.43982 165.05 5.43471C165.134 5.42576 165.219 5.4181 165.303 5.41554C165.219 5.4181 165.134 5.42449 165.05 5.43471C165.005 5.43982 164.967 5.44493 164.921 5.45131C165.244 5.47303 165.567 5.48837 165.909 5.46537C166.045 5.47559 166.174 5.47303 166.297 5.45898C166.717 5.4922 167.078 5.40788 167.498 5.43343C167.679 5.39766 167.879 5.40788 168.073 5.42576C168.228 5.3951 168.357 5.40405 168.454 5.43854C168.596 5.43854 168.732 5.43854 168.874 5.43854C168.874 5.42576 168.874 5.41299 168.881 5.39894C169.191 5.40532 169.501 5.41043 169.811 5.41682C170.068 5.45642 170.353 5.44109 170.631 5.43087C170.766 5.43854 170.902 5.44748 171.037 5.45515C171.108 5.4462 171.173 5.43598 171.244 5.42704C171.296 5.43471 171.347 5.44365 171.406 5.45131C171.645 5.4462 171.884 5.44109 172.122 5.43598C172.084 5.45131 172.051 5.46537 172.012 5.4807C172.342 5.47559 172.665 5.47942 172.969 5.50881C173.427 5.47559 173.905 5.49986 174.37 5.49092C174.473 5.46664 174.57 5.45387 174.654 5.45004C174.57 5.45387 174.473 5.46792 174.37 5.49092C174.37 5.50497 174.37 5.51775 174.37 5.5318C174.499 5.53691 174.628 5.54074 174.758 5.54586L174.977 5.51775C175.506 5.53436 175.991 5.43982 176.534 5.49476C176.74 5.56118 177.024 5.55607 177.334 5.52797C177.657 5.53691 177.967 5.52158 178.277 5.50497C178.678 5.45387 178.852 5.44365 179.066 5.47942C178.858 5.44365 178.684 5.45515 178.277 5.50497C178.594 5.54713 178.923 5.57013 179.291 5.53052C179.433 5.52414 179.576 5.51775 179.718 5.51136L179.808 5.51392L179.879 5.50242C181.19 5.5663 182.507 5.5433 183.825 5.51519C184.206 5.55735 184.484 5.48965 184.813 5.47814C184.91 5.42449 185.181 5.42449 185.394 5.40532C185.465 5.40532 185.536 5.40277 185.608 5.40149C185.549 5.38744 185.491 5.37338 185.427 5.35933L185.608 5.40149C185.64 5.41427 185.685 5.41554 185.743 5.40788C186.105 5.36827 186.473 5.34144 186.854 5.32228C186.479 5.34144 186.105 5.36827 185.743 5.40788C185.956 5.51519 186.415 5.46409 186.783 5.4692C186.906 5.51775 187.022 5.56629 187.145 5.61485C187.287 5.61485 187.435 5.6174 187.578 5.6174C187.758 5.56374 187.945 5.56757 188.139 5.61485C188.475 5.61485 188.811 5.61485 189.147 5.61485C189.541 5.55608 189.928 5.5548 190.303 5.62123C190.703 5.60974 191.097 5.60846 191.498 5.62123C191.666 5.57524 191.885 5.58035 192.098 5.60207C192.453 5.63784 192.931 5.57268 193.196 5.64423C193.467 5.71705 192.938 5.78349 193.047 5.86139C193.319 5.86396 193.597 5.87038 193.842 5.83712C195.605 5.88572 197.381 5.84862 199.151 5.86396C199.273 5.83075 199.415 5.83075 199.577 5.85375L199.745 5.82692C200.003 5.83203 200.268 5.83584 200.527 5.84097C200.83 5.80009 201.198 5.81926 201.527 5.79754C201.986 5.80009 202.445 5.80265 202.903 5.8052C202.903 5.86017 202.897 5.91634 202.89 5.97129C203.091 5.97129 203.284 5.97001 203.485 5.96872C203.575 5.93553 203.723 5.93297 203.891 5.94189C204.285 5.93932 204.673 5.93553 205.067 5.93297C205.144 5.89336 205.286 5.88443 205.48 5.89849C205.796 5.88443 206.106 5.89336 206.416 5.9087C206.901 5.88951 207.379 5.88572 207.857 5.91634C208.031 5.90485 208.212 5.90357 208.386 5.91634C208.664 5.89592 208.942 5.87417 209.219 5.85375C209.194 5.82692 209.135 5.80904 209.064 5.79882C209.135 5.81032 209.194 5.8282 209.219 5.85375C209.407 5.85118 209.588 5.8499 209.775 5.84739C209.917 5.81287 210.059 5.79371 210.208 5.78732C210.059 5.79371 209.91 5.81287 209.775 5.84739C209.852 5.8576 209.93 5.86781 210.007 5.8793C210.337 5.86524 210.659 5.86396 210.989 5.87673C210.989 5.86139 210.989 5.84611 210.989 5.83203C210.776 5.8052 210.569 5.78604 210.363 5.78604C210.563 5.78604 210.776 5.8052 210.989 5.83203C211.189 5.83584 211.396 5.81542 211.589 5.84097C211.648 5.83331 211.699 5.82564 211.758 5.81798C211.997 5.85632 212.293 5.83969 212.565 5.84739C212.565 5.83203 212.571 5.8167 212.578 5.80137C212.765 5.79499 212.946 5.7886 213.133 5.78093C213.301 5.79626 213.443 5.78988 213.56 5.76304C213.695 5.76815 213.831 5.77326 213.966 5.77837C214.29 5.75793 214.606 5.76049 214.922 5.78349C215.097 5.75282 215.394 5.77326 215.536 5.72855C215.6 5.72216 215.665 5.7145 215.73 5.70811C215.924 5.7145 216.117 5.72088 216.317 5.72727L216.388 5.74005H216.485C216.685 5.75538 216.892 5.75154 217.099 5.74771C217.305 5.78093 217.467 5.76176 217.615 5.72983C218.765 5.703 219.908 5.74643 221.058 5.75282C221.18 5.74643 221.303 5.73877 221.426 5.73238C221.497 5.74388 221.568 5.7541 221.639 5.7656C221.774 5.74899 221.923 5.74388 222.078 5.75027C222.143 5.71066 222.453 5.72472 222.478 5.67744C222.659 5.66211 222.84 5.64551 223.021 5.63018C223.086 5.58802 223.273 5.60079 223.422 5.59568C223.673 5.62379 223.925 5.65189 224.177 5.68C224.591 5.72855 224.946 5.74516 225.217 5.63784C225.404 5.56374 225.785 5.56246 226.16 5.57013C226.812 5.5829 227.458 5.57524 228.104 5.55863C228.298 5.53436 228.504 5.53436 228.718 5.54458C229.454 5.5318 230.19 5.53691 230.926 5.5548C231.042 5.5548 231.159 5.55607 231.275 5.55735C231.514 5.52286 231.488 5.48709 231.288 5.45131C231.107 5.43854 230.92 5.42449 230.739 5.41171C230.539 5.42576 230.39 5.41682 230.338 5.3721C229.609 5.36827 228.885 5.4181 228.155 5.37721C227.723 5.39255 227.316 5.36827 226.896 5.35166C226.153 5.321 225.391 5.30695 224.668 5.35933C223.828 5.42065 223.021 5.42065 222.175 5.36572C221.303 5.30951 220.444 5.31078 219.675 5.43087C219.553 5.43471 219.43 5.43982 219.308 5.44365C218.306 5.4181 217.318 5.4181 216.336 5.46664C216.214 5.47048 216.085 5.47431 215.962 5.47686C215.607 5.45259 215.258 5.4462 214.942 5.49986C214.683 5.4922 214.431 5.49092 214.18 5.50625C213.702 5.49987 213.217 5.49475 212.746 5.48453C212.119 5.47048 211.538 5.49348 210.996 5.55608C210.802 5.55608 210.602 5.5548 210.408 5.55352C210.201 5.51008 209.93 5.52286 209.678 5.5203C208.658 5.51264 207.631 5.53563 206.63 5.48326C206.003 5.45131 205.415 5.4462 204.886 5.5318C204.563 5.53563 204.24 5.53819 203.917 5.54202C203.556 5.50881 203.213 5.50881 202.916 5.57013C202.722 5.57268 202.535 5.57524 202.341 5.57907C201.973 5.55096 201.644 5.54585 201.443 5.63018C201.392 5.63018 201.353 5.63529 201.327 5.64295C200.804 5.64295 200.294 5.64423 199.777 5.61229C199.396 5.58802 198.944 5.56374 198.569 5.63145C198.44 5.63145 198.318 5.63145 198.189 5.63145C198.085 5.57268 198.298 5.5318 198.395 5.48453C198.595 5.48453 198.822 5.48326 198.931 5.44876C199.37 5.31334 200.01 5.32739 200.668 5.34911C201.095 5.46281 201.618 5.43087 202.147 5.38744C202.929 5.3721 203.717 5.41427 204.492 5.36955C204.563 5.36827 204.634 5.36699 204.711 5.36572C205.616 5.40149 206.526 5.37466 207.437 5.37849C207.902 5.42832 208.451 5.41554 208.87 5.39127C209.633 5.34911 210.453 5.38361 211.17 5.30567C211.247 5.29673 211.377 5.28907 211.448 5.29545C212.656 5.41043 213.85 5.29545 215.038 5.2814C216.627 5.26223 218.196 5.1958 219.798 5.22518C220.121 5.23157 220.457 5.23796 220.78 5.22902C222.492 5.18558 224.222 5.17791 225.94 5.1613C226.554 5.15492 227.161 5.10509 227.787 5.14725C228.11 5.1217 228.381 5.16514 228.685 5.17025C228.736 5.11404 228.95 5.10126 229.189 5.09998C230.06 5.0936 230.945 5.10254 231.785 5.03738C231.908 5.02844 232.037 5.04505 232.114 5.06804C232.373 5.0706 232.638 5.07443 232.896 5.07698C233.316 5.0591 233.742 5.03227 234.078 5.11404C234.272 5.11404 234.465 5.11404 234.659 5.11531C235.208 5.03866 235.796 5.008 236.448 5.05271C236.771 5.05016 237.1 5.04888 237.424 5.04632C238.14 4.9735 238.876 5.01311 239.613 5.02716C239.735 5.02461 239.865 5.02077 239.987 5.01822C240.078 4.98117 240.22 4.97478 240.4 4.99267C240.594 4.98756 240.782 4.98372 240.975 4.97861C241.072 4.92112 241.44 4.95306 241.628 4.89557C240.775 4.8828 240.039 4.79464 239.193 4.81125H238.844C238.256 4.82914 237.649 4.82914 237.087 4.87896C236.881 4.89685 236.661 4.90196 236.435 4.88663C236.312 4.89174 236.19 4.89685 236.061 4.90196C235.854 4.94029 235.653 4.93773 235.46 4.89941C235.266 4.89685 235.072 4.8943 234.878 4.89174C234.517 4.9454 234.11 4.96072 233.664 4.95178C232.127 4.97733 230.59 4.95817 229.06 4.95178C228.698 4.9505 228.343 4.95178 227.981 4.95306C227.878 4.985 227.729 4.98756 227.561 4.97606C227.18 4.99778 226.792 4.99395 226.405 4.99267C226.289 5.02333 226.147 5.02461 225.985 5.00928C225.34 5.03866 224.687 5.02077 224.041 5.02333C223.706 5.06932 223.376 5.06549 223.041 5.02333C222.382 4.9965 221.717 5.06165 221.064 5.01183C220.528 4.98884 220.024 5.06038 219.488 5.03227C219.294 5.0361 219.107 5.03866 218.914 5.04249C218.41 5.09998 217.893 5.1332 217.325 5.08082C217.099 5.08082 216.905 5.06293 216.731 5.0361C216.505 5.0361 216.266 5.02972 216.059 5.03994C215.284 5.07954 214.645 5.0361 214.07 4.92112C214.322 4.84319 214.69 4.84574 215.064 4.87129C215.381 4.89302 215.632 4.89302 215.781 4.82403C216.162 4.82658 216.55 4.83425 216.924 4.81508C217.17 4.85469 217.505 4.8253 217.764 4.85469C218.28 4.83297 218.829 4.85724 219.327 4.80742C219.327 4.79337 219.327 4.77931 219.327 4.76653C218.72 4.76653 218.113 4.76526 217.505 4.76653C218.113 4.76653 218.72 4.76653 219.327 4.76653C219.592 4.76398 219.863 4.76142 220.128 4.75887C220.328 4.83041 220.748 4.77803 220.999 4.82019L221.077 4.81764H221.154C221.2 4.80103 221.252 4.78315 221.297 4.76526C221.2 4.75376 221.103 4.74609 221.006 4.73971C221.103 4.74482 221.2 4.75376 221.297 4.76526C221.426 4.7627 221.555 4.75887 221.678 4.75631C221.949 4.76781 222.22 4.78059 222.498 4.79209C222.588 4.78186 222.679 4.77037 222.769 4.76015C222.84 4.73587 222.911 4.7116 222.976 4.68861C223.247 4.68605 223.512 4.68477 223.783 4.6835C223.809 4.70138 223.841 4.71927 223.867 4.73715C224.126 4.73843 224.39 4.73971 224.648 4.74098C224.842 4.71543 225.042 4.68988 225.243 4.66433C225.113 4.65028 224.991 4.64516 224.868 4.64389C224.991 4.64389 225.113 4.65028 225.243 4.66433C225.507 4.66561 225.785 4.64516 226.043 4.6771L226.024 4.65922C226.412 4.68988 226.825 4.65922 227.212 4.67966C227.51 4.64133 227.942 4.70138 228.194 4.62856C228.381 4.62345 228.575 4.61834 228.763 4.61323C229.053 4.64006 229.324 4.63622 229.583 4.5979C229.789 4.60556 229.996 4.61195 230.203 4.61962C230.183 4.61323 230.17 4.60812 230.164 4.60045C230.358 4.62345 230.564 4.60173 230.765 4.60684C230.765 4.59023 230.758 4.57362 230.752 4.55573C230.887 4.55573 231.023 4.55318 231.159 4.5519L231.372 4.58128C231.694 4.57745 232.018 4.5749 232.34 4.57106C232.34 4.55701 232.34 4.54424 232.34 4.53018C232.463 4.52763 232.586 4.52507 232.715 4.52124C232.779 4.50847 232.844 4.49697 232.909 4.48803C232.844 4.49697 232.779 4.50719 232.715 4.52124C233.277 4.5123 233.897 4.58896 234.401 4.48036C234.517 4.48292 234.633 4.48419 234.743 4.48675C235.053 4.46119 235.37 4.44331 235.699 4.47269C236.209 4.45097 236.739 4.4778 237.242 4.44586C237.985 4.49186 238.715 4.45353 239.451 4.43309C239.987 4.43053 240.536 4.45992 241.059 4.41776L241.143 4.42159L241.214 4.41009C241.421 4.40243 241.628 4.39476 241.834 4.3871C241.854 4.3986 241.893 4.42031 241.899 4.42031C242.454 4.39221 243.055 4.43309 243.584 4.37432C243.966 4.36921 244.359 4.38071 244.734 4.35516C245.231 4.42159 245.574 4.34621 245.955 4.3015C246.142 4.29895 246.336 4.29639 246.523 4.29511C246.71 4.313 246.84 4.29639 246.943 4.26572C247.195 4.25678 247.447 4.24912 247.692 4.24017C248.429 4.29639 248.984 4.20696 249.565 4.14563C249.739 4.12775 249.72 4.0792 249.714 4.04087C249.856 4.03193 249.998 4.02299 250.14 4.01405L250.236 4.01788L250.314 4.00638C250.501 3.99999 250.689 3.99488 250.87 3.9885C251.044 4.00766 251.186 3.99999 251.296 3.96677C252.09 3.97444 252.891 3.93356 253.673 3.98594C253.795 3.97827 253.912 3.9706 254.034 3.96294C254.151 3.98594 254.306 3.98339 254.454 3.98594C254.454 3.97188 254.454 3.95655 254.454 3.9425C254.402 3.931 254.357 3.92206 254.312 3.91695C254.357 3.92206 254.402 3.92972 254.454 3.9425C254.648 3.9425 254.842 3.9425 255.036 3.9425C255.036 3.95527 255.036 3.96805 255.036 3.98211C255.3 3.98211 255.558 3.98466 255.823 3.98594C255.823 3.97188 255.823 3.95783 255.823 3.94378C255.694 3.91695 255.558 3.90545 255.429 3.90545C255.558 3.90545 255.694 3.91823 255.823 3.94378C256.275 3.93994 256.721 3.93611 257.173 3.93228C257.974 3.9425 258.775 3.97571 259.569 3.91695C260.867 3.91184 262.159 3.90545 263.457 3.90034C263.638 3.96933 263.044 4.00255 263.257 4.07792C264.335 4.11242 265.414 4.04726 266.499 4.07409C266.944 4.07792 267.383 4.08175 267.823 4.08559C268.055 4.10859 268.268 4.11114 268.462 4.07026C269.205 4.06642 269.935 4.09581 270.658 4.10731C271.672 4.12392 272.731 4.14563 273.764 4.09326C274.113 4.07537 274.469 4.07409 274.824 4.09581C276.012 4.16863 277.207 4.21718 278.46 4.17246C278.531 4.18524 278.596 4.20185 278.673 4.20951C278.847 4.2274 279.054 4.24145 278.97 4.29256C278.912 4.32961 278.725 4.33088 278.563 4.33216C278.169 4.33472 277.769 4.33983 277.401 4.30789C276.903 4.26445 276.554 4.31428 276.038 4.38326C277.084 4.42798 278.008 4.43181 278.867 4.43564C279.635 4.43948 280.41 4.46247 281.185 4.45864C281.534 4.45736 281.902 4.47014 282.18 4.52507C282.302 4.53274 282.432 4.5404 282.554 4.54935C282.923 4.53274 283.265 4.56595 283.614 4.57234C284.169 4.58256 284.738 4.61195 285.325 4.55573C285.028 4.47525 284.783 4.4267 284.285 4.41265C283.155 4.38198 282.031 4.35643 280.888 4.35132C280.32 4.34877 279.667 4.34366 279.506 4.19035C279.286 4.1878 279.08 4.1533 278.86 4.14563C279.08 4.1533 279.286 4.18652 279.506 4.19035C280.068 4.2159 280.636 4.20696 281.205 4.21462C281.269 4.2159 281.34 4.21846 281.405 4.21973C281.599 4.21973 281.799 4.21718 281.992 4.2159C282.231 4.23506 282.432 4.22995 282.567 4.18141C282.774 4.18013 282.981 4.17885 283.188 4.17757C283.375 4.2159 283.569 4.22868 283.769 4.18013C283.956 4.17757 284.143 4.17502 284.33 4.17246C285.422 4.20696 286.52 4.24017 287.611 4.2785C288.134 4.29639 288.632 4.30278 289.142 4.267C289.562 4.23634 289.982 4.24784 290.382 4.28489C290.537 4.29895 290.64 4.3245 290.615 4.36154C290.595 4.39476 290.453 4.39987 290.33 4.40498C290.007 4.41904 289.672 4.42798 289.368 4.49697C290.795 4.53529 292.106 4.48547 293.405 4.53146C293.534 4.52891 293.656 4.52635 293.785 4.5238C293.824 4.45353 293.56 4.42542 293.34 4.38582C293.133 4.34877 292.765 4.35388 292.623 4.267C294.799 4.17118 296.873 4.24528 298.933 4.35005C299.223 4.34238 299.469 4.36921 299.714 4.39349C299.96 4.38965 300.212 4.38199 300.457 4.38199C300.677 4.38199 300.709 4.35899 300.696 4.3245C300.573 4.31939 300.451 4.313 300.328 4.30789C300.128 4.32194 299.941 4.30406 299.76 4.29256C297.247 4.1303 294.664 4.07664 292.029 4.09964C290.976 4.10859 289.904 4.02171 288.871 4.13158C288.748 4.14436 288.541 4.13669 288.393 4.12647C286.707 4.01149 284.821 4.12647 283.2 3.94505C283.155 3.93994 283.078 3.94761 283.013 3.95016C282.987 3.9425 282.942 3.93739 282.89 3.93867C282.89 3.87862 282.47 3.85307 282.567 3.77003C283.058 3.74064 283.516 3.77258 283.898 3.83135C284.214 3.8799 284.363 3.8799 284.718 3.83391C285.538 3.72659 286.436 3.64355 287.398 3.7943C287.605 3.82624 287.896 3.82496 288.154 3.8058C288.348 3.80708 288.535 3.80836 288.728 3.81091C289.091 3.84285 289.426 3.83263 289.756 3.79175C290.595 3.84157 291.454 3.84029 292.32 3.83518C292.707 3.87862 293.179 3.9029 293.54 3.86712C294.07 3.81474 294.509 3.78408 295.025 3.86712C295.148 3.88629 295.413 3.88757 295.555 3.85051C295.607 3.83774 295.626 3.81347 295.607 3.79814C295.542 3.74703 295.323 3.75342 295.135 3.75597C294.134 3.77386 293.32 3.66526 292.455 3.59756C292.055 3.56561 292.332 3.51962 292.514 3.48385C292.985 3.4813 293.45 3.54262 293.915 3.50557C294.386 3.46852 294.78 3.49663 295.187 3.53368C295.374 3.66015 295.762 3.55539 296.046 3.56178C296.304 3.572 296.569 3.5835 296.828 3.59372C297.021 3.75342 297.648 3.79941 298.358 3.80708C298.881 3.81219 299.366 3.8173 299.857 3.87095C300.302 3.92078 300.864 3.91823 301.381 3.9195C301.542 3.9195 301.697 3.90034 301.703 3.86073C301.703 3.83007 301.581 3.81602 301.458 3.80963C300.896 3.77897 300.392 3.71637 299.772 3.72531C299.133 3.73553 298.552 3.68443 298.042 3.61161C297.77 3.57328 297.409 3.5324 297.564 3.44041C297.68 3.44425 297.796 3.44808 297.906 3.45063C298.068 3.48385 298.229 3.51707 298.423 3.4583C298.649 3.45063 298.875 3.44425 299.062 3.47618C299.495 3.55156 300.031 3.56561 300.567 3.58094C300.806 3.62822 301.09 3.61672 301.381 3.6065C301.632 3.62438 301.885 3.64355 302.143 3.66143C302.259 3.69976 302.395 3.69976 302.543 3.66782C302.944 3.66782 303.318 3.6921 303.68 3.72148C305.043 3.8288 306.412 3.93611 307.904 3.94761C308.11 3.94889 308.298 3.96677 308.427 3.99616C308.756 4.07409 309.189 4.08431 309.667 4.08431C309.989 4.08431 310.313 4.10092 310.629 4.11625C313.877 4.27722 317.145 4.40115 320.517 4.38199C321.188 4.37815 321.808 4.36027 322.377 4.28617C322.642 4.29256 322.887 4.29383 322.971 4.22868C323.029 4.22229 323.094 4.21462 323.152 4.20824C324.153 4.15841 325.102 4.08942 326 3.96677C325.541 3.92717 325.16 3.99233 324.773 3.96166L324.818 3.96422ZM165.825 0.869931C165.871 0.869931 165.916 0.869931 165.955 0.871209C165.909 0.871209 165.864 0.871209 165.825 0.869931ZM134.412 0.532654C134.347 0.532654 134.283 0.532654 134.218 0.532654C134.283 0.533931 134.347 0.533931 134.412 0.532654ZM127.405 0.859711C127.405 0.859711 127.372 0.852046 127.353 0.846936C127.405 0.843104 127.45 0.837994 127.501 0.836716C127.515 0.836716 127.533 0.844381 127.553 0.849491C127.501 0.853324 127.456 0.858434 127.405 0.859711ZM33.0217 3.03414C33.0282 2.98943 32.97 2.96004 32.7182 2.95877C32.6859 2.97026 32.6536 2.98177 32.6278 2.99326C32.6601 2.98177 32.6924 2.97026 32.7182 2.95877C32.6794 2.87189 33.0992 2.85656 33.3188 2.81057C33.8419 2.79907 34.3651 2.78758 34.8882 2.77607C35.1336 2.83484 35.4307 2.85656 35.8247 2.85017C36.5222 2.83995 36.5286 2.84379 36.1799 2.99454C35.3144 3.01498 34.5136 3.07502 33.7063 3.13635C33.0088 3.19001 32.9894 3.18362 33.0217 3.03414ZM24.4192 3.15679C24.4386 3.14146 24.4708 3.12613 24.5225 3.11591C24.4708 3.12613 24.445 3.14146 24.4192 3.15679ZM29.1402 3.00221C29.1402 3.00221 29.1596 2.99326 29.179 2.98943C29.3405 2.93577 29.5988 2.95366 29.8313 2.95366C29.5988 2.95366 29.3405 2.93577 29.179 2.99071C29.1596 2.99454 29.1467 2.99837 29.1402 3.00348V3.00221ZM6.32274 5.30823C6.14836 5.39383 5.64463 5.47559 5.12796 5.50242C5.64463 5.47559 6.14836 5.39255 6.32274 5.30823ZM19.5948 6.62795C19.6335 6.63052 19.6787 6.63437 19.7175 6.64072C19.6787 6.63565 19.64 6.6318 19.5948 6.62795ZM174.512 1.35924C174.544 1.35924 174.583 1.35924 174.615 1.35797C174.583 1.35797 174.544 1.35797 174.512 1.35924ZM176.475 0.896764C176.559 0.890377 176.65 0.876319 176.734 0.852046C176.643 0.875041 176.559 0.890377 176.475 0.896764C176.417 0.900597 176.365 0.900597 176.308 0.896764C176.359 0.901874 176.417 0.901874 176.475 0.896764ZM167.117 1.47806C167.117 1.47806 167.137 1.47806 167.143 1.4755C167.137 1.47678 167.124 1.47678 167.117 1.47806ZM167.092 1.48062C167.092 1.48062 167.059 1.47806 167.04 1.4755C167.053 1.47933 167.072 1.48062 167.092 1.48062ZM115.683 1.15994C115.708 1.16633 115.741 1.17272 115.76 1.18166C115.741 1.17272 115.708 1.16761 115.683 1.15994ZM115.605 1.1395C115.541 1.128 115.463 1.11906 115.373 1.11395C115.463 1.12034 115.541 1.12928 115.605 1.1395ZM102.191 1.1395C102.139 1.15483 102.088 1.17527 102.029 1.1855C102.088 1.17399 102.133 1.15355 102.191 1.1395ZM83.2678 1.27492C83.1386 1.2762 83.0099 1.27748 82.8806 1.27875C82.6353 1.24554 82.3705 1.22127 82.0862 1.20977C82.3705 1.22127 82.6353 1.24426 82.8806 1.27875C83.0099 1.27875 83.1386 1.2762 83.2678 1.27492ZM82.267 1.52405C82.0605 1.4755 81.7888 1.47806 81.5177 1.47806C81.7888 1.47806 82.0536 1.4755 82.267 1.52405ZM80.5489 1.47295C80.3424 1.47806 80.1291 1.47295 79.9163 1.46911C80.1291 1.47167 80.3424 1.47806 80.5489 1.47295C80.6198 1.47167 80.6844 1.46784 80.7491 1.46273C80.6976 1.42568 80.6524 1.38863 80.6009 1.35286C80.7685 1.34775 80.9366 1.34136 81.1042 1.33625C81.1626 1.38097 81.1237 1.4244 81.0465 1.46656C80.9492 1.46656 80.8463 1.464 80.7491 1.464C80.6844 1.46911 80.6135 1.47295 80.5489 1.47422V1.47295ZM75.0269 0.951697C74.8267 0.951697 74.6328 0.949142 74.4327 0.947864C74.0649 0.970859 73.5673 0.967027 73.135 0.941477C73.5673 0.965749 74.0712 0.970859 74.4327 0.947864C74.6328 0.947864 74.8267 0.950419 75.0269 0.951697C75.2271 0.992583 75.4724 0.992583 75.7115 0.990028C75.4661 0.992583 75.2271 0.992583 75.0269 0.951697ZM83.623 0.70385C83.5715 0.70385 83.5201 0.70385 83.4749 0.701295C83.5263 0.702573 83.5715 0.70385 83.623 0.70385ZM66.3404 1.15228L66.5406 1.15483C66.7408 1.15611 66.9347 1.15739 67.1348 1.15994C67.1995 1.15994 67.2641 1.15994 67.3224 1.15994C67.4511 1.15994 67.5872 1.15866 67.7159 1.15739C67.7874 1.15739 67.852 1.15739 67.923 1.15611C68.3039 1.15994 68.6848 1.16761 69.0594 1.14333C69.1629 1.09223 69.3436 1.08457 69.5375 1.08585C69.3436 1.08585 69.1629 1.09223 69.0594 1.14333C69.6084 1.18422 70.3188 1.19188 70.2673 1.36308C70.138 1.36563 70.0025 1.36819 69.8732 1.37074C69.0468 1.28132 68.1683 1.30431 67.2898 1.32858C64.7322 1.3388 62.1814 1.27364 59.6237 1.2992C59.6042 1.30942 59.5722 1.31709 59.5333 1.32347C59.5722 1.31709 59.6042 1.30814 59.6237 1.2992C59.4367 1.23532 59.1587 1.27875 58.9265 1.27875C58.3448 1.27875 57.7895 1.31836 57.189 1.29537C56.6982 1.2762 56.5109 1.23276 56.5625 1.14078C56.7369 1.13056 56.9048 1.12034 57.0792 1.11012C57.1503 1.11012 57.2147 1.10884 57.2856 1.10756C58.6097 1.11523 59.9337 1.12545 61.264 1.13184C61.5808 1.13311 61.9165 1.1395 62.2265 1.11395C62.4913 1.13311 62.7499 1.13056 63.0015 1.10629C64.119 1.12162 65.2297 1.13695 66.3473 1.15228H66.3404ZM64.4416 1.43462C64.4416 1.43462 64.4096 1.43718 64.3901 1.44101C64.4033 1.43718 64.4222 1.4359 64.4416 1.43462ZM57.0922 1.0999C57.0922 1.0999 57.0922 1.09734 57.0922 1.09479C57.0922 1.09607 57.0922 1.09734 57.0922 1.0999ZM56.485 6.42868C56.485 6.42868 56.5367 6.43119 56.569 6.43376C56.5432 6.43119 56.5174 6.42868 56.485 6.42868ZM57.0469 1.55854C57.1373 1.55854 57.2279 1.55727 57.3182 1.55599C57.2279 1.55599 57.1373 1.55727 57.0469 1.55854ZM60.8059 6.39415C61.0318 6.39415 61.2514 6.398 61.4773 6.40313C61.2514 6.398 61.0318 6.39543 60.8059 6.39415ZM66.3147 1.57771C66.1145 1.53044 65.9143 1.53172 65.7205 1.57771C65.1971 1.57898 64.6681 1.57515 64.1511 1.60071C64.1448 1.63392 64.1059 1.67353 64.0155 1.69653C64.1059 1.67353 64.1385 1.63392 64.1511 1.60071C63.6278 1.56749 63.105 1.55216 62.5623 1.58666C62.1036 1.5726 61.6455 1.56876 61.1931 1.5956C60.4701 1.5841 59.7404 1.5726 59.0169 1.5611C58.8939 1.54321 58.7646 1.54321 58.636 1.55854C58.6291 1.5726 58.6165 1.58666 58.6096 1.60071C58.4678 1.63392 58.4935 1.6582 58.6096 1.66969C58.4873 1.6582 58.4678 1.63392 58.6096 1.60071C58.6165 1.58666 58.6291 1.5726 58.636 1.55854C58.3448 1.5496 58.048 1.54194 57.7575 1.53299C57.654 1.48189 57.5893 1.43973 57.9514 1.4129C58.3837 1.38224 58.8293 1.40652 59.2622 1.39374C60.4764 1.41801 61.7164 1.37968 62.9111 1.44867C63.3893 1.4755 63.8605 1.47806 64.345 1.45506C64.4159 1.45378 64.4868 1.45251 64.5583 1.45123C65.6432 1.46145 66.7282 1.47295 67.8194 1.48317C67.8131 1.51383 67.8069 1.54449 67.8 1.57515C67.7354 1.57515 67.7033 1.58026 67.697 1.59304C67.7159 1.62115 67.7743 1.63903 67.852 1.65053C67.768 1.63903 67.7096 1.62115 67.697 1.59304C67.2384 1.58793 66.7797 1.58282 66.321 1.57771H66.3147ZM75.1888 1.50744C75.1367 1.53938 75.04 1.56749 74.8525 1.56749C75.04 1.56749 75.1304 1.53938 75.1888 1.50744C75.5822 1.50617 75.9763 1.50361 76.3704 1.50106C76.435 1.53683 76.4996 1.5726 76.5579 1.6071C76.4996 1.57132 76.435 1.53555 76.3704 1.50106C75.9763 1.50361 75.5822 1.50489 75.1888 1.50744ZM79.1219 1.51766C78.7279 1.51639 78.3338 1.51383 77.9397 1.51255C77.8945 1.48573 77.7847 1.45889 77.7979 1.43079C77.7847 1.45762 77.8945 1.48573 77.9397 1.51255C78.3338 1.51383 78.7279 1.51639 79.1219 1.51766C79.4834 1.54194 79.8323 1.56621 80.1359 1.61093C79.8323 1.56493 79.4834 1.54066 79.1219 1.51766ZM86.0257 1.53938C86.0903 1.54832 86.1549 1.55088 86.2133 1.54832C86.1486 1.55088 86.0903 1.54832 86.0257 1.53938ZM86.9556 1.43207C86.8395 1.43973 86.7297 1.44612 86.6136 1.45378C86.4844 1.45378 86.3488 1.45123 86.2196 1.45123C85.7288 1.38608 85.2765 1.4474 84.8052 1.46528C84.2172 1.43718 83.6424 1.45634 83.0677 1.47933C82.8549 1.42312 82.4282 1.47295 82.196 1.41163C82.7319 1.35669 83.2936 1.35286 83.8621 1.35286C84.1332 1.35286 84.45 1.37585 84.637 1.31198C85.3411 1.33625 86.0388 1.30048 86.7429 1.30814C86.8138 1.34391 86.8784 1.37841 86.9493 1.41418L86.9167 1.4244L86.9556 1.43334C87.0071 1.44995 87.0654 1.46273 87.1238 1.47295C87.0592 1.464 87.0071 1.45123 86.9556 1.43334V1.43207ZM87.4595 1.49084C87.3817 1.49084 87.3108 1.49084 87.2399 1.48445C87.3108 1.48956 87.3886 1.49211 87.4595 1.49084ZM95.6678 6.26383C95.7651 6.26383 95.868 6.27025 95.9715 6.27789C95.868 6.27025 95.7714 6.26383 95.6678 6.26383ZM102.604 6.28046C102.63 6.27282 102.656 6.26897 102.688 6.26897C102.663 6.26897 102.637 6.2741 102.604 6.28046ZM117.717 6.02367C117.775 6.02367 117.833 6.02752 117.898 6.03132C117.833 6.02752 117.769 6.02496 117.717 6.02367ZM119.622 5.9892C119.661 5.9892 119.693 5.9892 119.732 5.99171C119.693 5.9892 119.655 5.9892 119.622 5.9892ZM148.304 5.59185C148.375 5.58162 148.446 5.57524 148.517 5.5714C148.446 5.57524 148.375 5.5829 148.304 5.59185ZM152.611 1.53299C152.418 1.53299 152.218 1.53299 152.024 1.53172C152.218 1.53172 152.418 1.53172 152.611 1.53299ZM168.344 5.36188C168.389 5.36444 168.428 5.36699 168.473 5.36955C168.428 5.36699 168.389 5.36316 168.344 5.36188ZM170.476 5.36316C170.747 5.35039 170.999 5.36061 171.238 5.39255C170.999 5.36061 170.753 5.35039 170.476 5.36316ZM213.256 5.75027C213.256 5.75027 213.321 5.74132 213.36 5.7426C213.321 5.7426 213.288 5.74388 213.256 5.75027ZM213.153 5.78604C213.166 5.77965 213.178 5.77326 213.198 5.76815C213.185 5.77326 213.172 5.77965 213.153 5.78604ZM209.575 4.86491C209.472 4.86874 209.381 4.87896 209.297 4.89813C209.233 4.90579 209.194 4.91473 209.168 4.92495C209.2 4.91473 209.239 4.90579 209.297 4.89813C209.381 4.87896 209.478 4.86874 209.575 4.86491ZM194.004 5.66211C193.629 5.64423 193.997 5.60463 193.977 5.57524C194.1 5.57779 194.223 5.58035 194.346 5.5829C194.442 5.64423 194.287 5.67489 194.01 5.66211H194.004ZM187.423 1.01047C187.384 1.01047 187.338 1.00791 187.3 1.00536C187.338 1.00791 187.377 1.00919 187.423 1.01047ZM198.492 5.23413C198.595 5.20091 198.744 5.1958 199.144 5.17919C198.744 5.19452 198.595 5.20091 198.492 5.23413ZM212.113 5.20858C212.255 5.20347 212.358 5.1958 212.436 5.18303C212.364 5.1958 212.261 5.20347 212.113 5.20858ZM212.701 5.00289C212.649 4.9965 212.591 4.99267 212.533 4.99267C212.455 4.97606 212.364 4.96967 212.255 4.97861C212.126 4.98372 211.997 4.98884 211.867 4.99522C211.525 4.98245 211.183 4.9735 210.841 4.99267C210.718 4.98884 210.595 4.98373 210.472 4.97989C210.408 5.00033 210.324 5.01055 210.233 5.01311C210.324 5.01055 210.402 5.00033 210.472 4.97989C210.64 4.95051 210.808 4.92112 210.976 4.89174C211.267 4.88919 211.564 4.88663 211.854 4.88408C211.945 4.86235 212.042 4.84958 212.145 4.84063C212.042 4.8483 211.945 4.86235 211.854 4.88408C212.1 4.92879 212.391 4.90835 212.668 4.90835C212.849 4.90835 213.107 4.89941 213.127 4.94667C213.146 4.99522 212.849 4.98373 212.701 5.00289ZM221.213 1.50233C221.213 1.50233 221.2 1.51383 221.18 1.51894C221.154 1.53555 221.129 1.55471 221.058 1.56238C221.135 1.55471 221.161 1.53555 221.18 1.51894C221.193 1.51383 221.206 1.50744 221.213 1.50233ZM282.128 3.55284C282.128 3.55284 281.98 3.54262 281.967 3.51324C281.96 3.49152 282.044 3.48258 282.148 3.48513C282.277 3.48896 282.4 3.49791 282.412 3.52857C282.419 3.55028 282.335 3.55923 282.128 3.55412V3.55284ZM279.926 3.52984C280.359 3.62183 280.462 3.64482 280.488 3.70487C280.462 3.64482 280.352 3.62183 279.926 3.52984C279.596 3.52473 279.273 3.51835 278.944 3.51324C278.751 3.53623 278.628 3.53879 278.55 3.52984C278.498 3.52346 278.466 3.51324 278.447 3.49918C278.427 3.48513 278.408 3.4698 278.395 3.45319C278.408 3.4698 278.421 3.48513 278.447 3.49918C278.473 3.51324 278.498 3.52346 278.55 3.52984C278.628 3.53879 278.751 3.53623 278.944 3.51324C279.273 3.51835 279.596 3.52473 279.926 3.52984ZM274.443 3.23345C274.423 3.24494 274.398 3.26027 274.365 3.27177C274.398 3.26027 274.417 3.24494 274.443 3.23345ZM276.193 3.35226C276.328 3.35481 276.458 3.35737 276.593 3.35865C276.458 3.35609 276.328 3.35354 276.193 3.35226C275.741 3.37142 275.36 3.35865 275.082 3.30244C275.366 3.35865 275.741 3.37142 276.193 3.35226ZM269.115 3.25261C269.509 3.25389 269.902 3.25516 270.303 3.25644C270.671 3.3101 271.097 3.29349 271.511 3.29349C271.097 3.29349 270.677 3.30882 270.303 3.25644C269.909 3.25516 269.515 3.25389 269.115 3.25261C269.005 3.22067 268.862 3.21173 268.714 3.21301C268.862 3.21301 269.005 3.22195 269.115 3.25261ZM264.387 3.16318C264.497 3.23089 264.736 3.27816 265.02 3.29733C264.736 3.27688 264.497 3.22961 264.387 3.16318C264.329 3.11974 264.174 3.0993 264.006 3.08013C264.174 3.0993 264.335 3.11974 264.387 3.16318ZM263.96 3.88373C264.051 3.86201 264.142 3.8569 264.232 3.8684C264.142 3.8569 264.058 3.86201 263.96 3.88373ZM264.923 3.88118C264.788 3.88501 264.658 3.88884 264.523 3.88884C264.658 3.88884 264.794 3.88629 264.923 3.88118C265.259 3.86968 265.588 3.85051 265.924 3.85435C266.267 3.81858 266.602 3.81091 266.944 3.83007C266.609 3.81091 266.267 3.81858 265.924 3.85435C265.582 3.84924 265.252 3.86968 264.923 3.88118ZM276.987 3.74831C277.226 3.74192 277.472 3.7432 277.711 3.74064L277.737 3.73681C277.775 3.72531 277.814 3.71892 277.866 3.72276C277.814 3.71892 277.769 3.72531 277.737 3.73681L277.711 3.74064C277.465 3.74192 277.226 3.74064 276.987 3.74831Z" fill="#096656"/>
<path d="M264.077 0.931246C264.29 0.924859 264.309 0.895476 264.335 0.863533C263.922 0.826485 263.509 0.789438 263.095 0.753662C263.115 0.82904 262.611 0.80349 262.527 0.867365C263.011 0.924859 263.522 0.946576 264.077 0.931246Z" fill="#096656"/>
<path d="M78.7217 0.590164C78.7675 0.592871 78.8069 0.594224 78.8528 0.596931C78.8133 0.592871 78.7739 0.590164 78.7217 0.590164Z" fill="#096656"/>
<path d="M191.026 5.80005C190.477 5.80899 189.896 5.8601 189.36 5.78472C189.205 5.80389 189.05 5.80388 188.888 5.786C188.384 5.84604 187.887 5.8384 187.384 5.786C187.158 5.80516 186.938 5.81155 186.764 5.76555C186.01 5.75704 185.608 5.8107 185.556 5.92654C186.079 5.92911 186.615 5.90863 187.132 5.94188C187.403 5.91633 187.668 5.91633 187.939 5.94439C188.062 5.92911 188.191 5.92654 188.32 5.93803C188.876 5.8895 189.463 5.92526 190.038 5.91884C190.748 5.90992 191.459 5.90356 192.163 5.87923C192.163 5.85497 192.163 5.83071 192.156 5.80772C191.782 5.78983 191.414 5.79367 191.026 5.79878V5.80005Z" fill="#096656"/>
<path d="M149.653 0.33345C149.841 0.325785 150.022 0.301511 150.145 0.351336C150.267 0.357724 150.383 0.364112 150.506 0.3705C150.719 0.351336 150.932 0.348781 151.145 0.371777C151.501 0.361557 151.85 0.352614 152.205 0.342393C152.321 0.297678 152.431 0.247853 152.709 0.314287L153.076 0.332172C153.684 0.321952 154.297 0.315564 154.898 0.346226C156.067 0.301511 157.223 0.339838 158.385 0.359002C158.598 0.339838 158.818 0.341116 159.031 0.359002C160 0.341116 160.968 0.337283 161.925 0.373055C162.086 0.351336 162.228 0.351336 162.357 0.383275C162.719 0.387108 163.074 0.392218 163.436 0.393496C164.411 0.397329 165.393 0.429268 166.355 0.373055C166.355 0.343671 166.361 0.313009 166.368 0.283625C166.084 0.273404 165.799 0.264461 165.515 0.254241C165.348 0.296401 165.109 0.282347 164.889 0.282347C163.778 0.284903 162.667 0.293846 161.569 0.24913C161.44 0.24913 161.311 0.24913 161.182 0.247853C160.975 0.287458 160.775 0.279792 160.581 0.24402C158.747 0.23891 156.907 0.232522 155.072 0.227412C154.736 0.261906 154.407 0.268294 154.078 0.223579C153.949 0.223579 153.819 0.222301 153.69 0.221024C153.516 0.259351 153.276 0.254241 153.051 0.255518C152.121 0.261906 151.171 0.213358 150.261 0.28618C150.138 0.296401 150.008 0.279792 149.938 0.255518C149.356 0.219746 148.762 0.242742 148.174 0.237632C148.103 0.284903 147.729 0.259351 147.684 0.330895C148.336 0.362834 148.988 0.359002 149.647 0.33345H149.653Z" fill="#096656"/>
<path d="M93.3555 0.726883C93.3555 0.726883 93.3555 0.726883 93.3555 0.728178C93.3555 0.728178 93.3702 0.728178 93.3769 0.729467L93.3628 0.726883H93.3555Z" fill="#096656"/>
<path d="M93.3704 0.730896V0.728317C93.3704 0.728317 93.3632 0.728317 93.3555 0.728317L93.3704 0.730896Z" fill="#096656"/>
<path d="M94.0275 0.734482C94.9123 0.852018 95.8811 0.817525 96.8368 0.811138C97.0565 0.80986 97.2829 0.82008 97.5089 0.82519C97.6959 0.813693 97.8766 0.822635 98.0579 0.834133C98.5423 0.81497 99.0199 0.81497 99.4917 0.84563C99.6141 0.843075 99.7434 0.841798 99.8658 0.839243C99.963 0.79964 100.112 0.798363 100.286 0.816248C100.66 0.78942 101.022 0.79964 101.39 0.823913C101.616 0.79964 101.836 0.79453 102.062 0.826468C102.578 0.821358 103.095 0.816248 103.612 0.811138C103.793 0.754922 103.98 0.748534 104.187 0.806028C104.329 0.80986 104.471 0.81497 104.607 0.818803C104.684 0.776639 104.768 0.734482 104.555 0.697434C104.161 0.719152 103.767 0.729372 103.399 0.682104C103.018 0.712764 102.63 0.715319 102.249 0.682104C102.043 0.712764 101.836 0.712764 101.629 0.683382C101.177 0.708932 100.725 0.717874 100.279 0.678266C100.157 0.696157 100.034 0.692324 99.9115 0.680827C99.6273 0.710209 99.3367 0.707654 99.0456 0.684659C98.2581 0.689769 97.47 0.710209 96.7013 0.659103C95.5969 0.708932 94.4799 0.676988 93.3687 0.684659C93.3687 0.698712 93.3687 0.714042 93.3687 0.728094C93.5951 0.728094 93.8662 0.715319 94.0275 0.735759V0.734482Z" fill="#096656"/>
<path d="M140.65 0.471537C141.412 0.422989 142.194 0.424266 142.975 0.437042C143.486 0.374441 144.041 0.378274 144.603 0.396159C144.803 0.362943 145.01 0.368053 145.223 0.391049C145.669 0.368053 146.12 0.369331 146.579 0.376996C146.56 0.323338 146.502 0.277345 146.153 0.273512C145.965 0.272235 145.778 0.260737 145.591 0.254349C145.268 0.260737 144.952 0.267124 144.629 0.273512C144.286 0.325893 143.893 0.302897 143.518 0.301619C143.04 0.301619 142.556 0.297786 142.078 0.295231C141.677 0.309285 141.29 0.336113 140.876 0.329726C140.618 0.373163 140.205 0.356555 139.979 0.415323C140.056 0.503476 140.347 0.489423 140.65 0.471537Z" fill="#096656"/>
<path d="M215.794 0.205825C217.254 0.198159 218.713 0.187939 220.173 0.175163C220.573 0.17133 220.993 0.17133 221.329 0.117672C221.213 0.0767896 221.025 0.0780671 220.889 0.0601815C220.631 0.064014 220.379 0.0908433 220.115 0.0716796C219.992 0.0767896 219.863 0.0793452 219.74 0.0857327C218.939 0.127893 218.171 0.028242 217.37 0.064014C217.241 0.0908433 217.099 0.0882877 216.95 0.0704021C216.827 0.0857327 216.698 0.0921208 216.556 0.0857327C216.498 0.0895658 216.433 0.0921208 216.375 0.0959533C215.93 0.113839 215.484 0.131726 215.038 0.149612C215.187 0.222433 215.523 0.205825 215.794 0.204547V0.205825Z" fill="#096656"/>
<path d="M114.572 0.675727C115.082 0.682114 115.586 0.675727 116.025 0.75877C116.218 0.79454 116.884 0.807315 116.916 0.729382C116.961 0.614401 117.252 0.625898 117.614 0.620788C117.93 0.615678 118.317 0.634841 118.511 0.528804C117.168 0.535192 115.896 0.505808 114.636 0.549245C114.533 0.574797 114.403 0.588851 114.242 0.595238C114.274 0.634841 114.307 0.671894 114.572 0.675727Z" fill="#096656"/>
<path d="M200.384 0.437995C200.649 0.384336 200.992 0.407333 201.302 0.402223C201.973 0.390725 202.658 0.39839 203.323 0.367728C203.672 0.35112 204.033 0.340899 204.13 0.255301C203.943 0.250191 203.756 0.245081 203.562 0.238693C203.232 0.260412 202.91 0.291074 202.548 0.275742C202.161 0.280853 201.773 0.287241 201.379 0.292351C201.185 0.326846 200.978 0.32429 200.759 0.303849C200.643 0.303849 200.52 0.303849 200.404 0.303849C199.958 0.372838 199.293 0.303849 198.802 0.39839C199.054 0.414998 199.235 0.427774 199.409 0.439272C199.732 0.439272 200.062 0.439272 200.384 0.439272V0.437995Z" fill="#096656"/>
<path d="M107.952 0.782897C108.133 0.740734 108.34 0.734346 108.572 0.767567C108.753 0.748399 108.946 0.747121 109.147 0.756064C109.237 0.710074 109.366 0.712629 109.515 0.745844C109.65 0.745844 109.786 0.745844 109.922 0.745844C110.109 0.707519 110.303 0.701131 110.51 0.742011C110.69 0.739456 110.865 0.735624 111.045 0.733069C111.065 0.698576 111.084 0.6628 111.104 0.628308C110.71 0.625753 110.316 0.623198 109.928 0.620643C109.793 0.651303 109.664 0.653858 109.534 0.618088C109.276 0.62703 109.017 0.644915 108.746 0.63214L108.675 0.643638L108.585 0.639805C108.042 0.685801 107.506 0.62703 106.964 0.639805C106.79 0.693466 106.227 0.683246 106.35 0.785452C106.886 0.785452 107.422 0.785452 107.965 0.785452L107.952 0.782897Z" fill="#096656"/>
<path d="M196.839 0.42907C197.033 0.42907 197.227 0.431625 197.42 0.42907C197.543 0.427793 197.692 0.42907 197.749 0.399686C197.833 0.354971 197.601 0.352416 197.504 0.331975C197.465 0.323032 197.453 0.310256 197.427 0.298758C197.233 0.296203 197.033 0.293648 196.839 0.291092C196.309 0.358803 195.702 0.312811 195.14 0.333252C194.759 0.347305 194.326 0.328142 193.881 0.420127C194.973 0.42396 195.909 0.426515 196.839 0.42907Z" fill="#096656"/>
<path d="M255.565 4.34403C254.312 4.30954 253.149 4.44241 251.897 4.41686C251.599 4.41047 251.393 4.4603 251.431 4.51523C251.464 4.5625 251.742 4.551 251.923 4.54972C252.181 4.54717 252.445 4.54333 252.698 4.53056C253.498 4.48712 254.306 4.48585 255.119 4.51267C255.442 4.52289 255.701 4.53184 255.591 4.43346C255.539 4.38875 255.791 4.3747 255.998 4.3747C256.217 4.3747 256.456 4.38875 256.656 4.32742C256.243 4.29421 255.927 4.35553 255.565 4.34531V4.34403Z" fill="#096656"/>
<path d="M266.325 4.2314C265.705 4.25567 265.104 4.21734 264.484 4.21607C263.218 4.21607 263.218 4.21479 262.663 4.32083C264.523 4.25567 266.195 4.35404 267.894 4.42559C267.506 4.30805 266.635 4.36171 266.318 4.2314H266.325Z" fill="#096656"/>
<path d="M251.038 4.67454C252.116 4.79336 253.207 4.73714 254.299 4.68476C253.227 4.55061 252.135 4.65921 251.038 4.67454Z" fill="#096656"/>
<path d="M270.368 4.34867C270.845 4.38189 271.149 4.40233 271.646 4.33589C271.162 4.30012 270.845 4.28863 270.368 4.34867Z" fill="#096656"/>
<path d="M272.983 4.29632C272.938 4.29632 272.906 4.31038 272.867 4.31804C272.912 4.32315 272.958 4.32954 273.009 4.33337C273.022 4.33337 273.067 4.32571 273.074 4.3206C273.093 4.30654 273.054 4.29376 272.983 4.29504V4.29632Z" fill="#096656"/>
<path d="M210.02 0.600203C209.071 0.533771 208.18 0.592538 207.282 0.634701C208.205 0.643644 209.129 0.680691 210.02 0.600203Z" fill="#096656"/>
<path d="M296.318 3.68684C296.33 3.69706 296.466 3.70856 296.537 3.70856C296.673 3.70856 296.769 3.68684 296.75 3.66129C296.744 3.65107 296.608 3.64468 296.55 3.63957C296.375 3.64468 296.279 3.66001 296.311 3.68812L296.318 3.68684Z" fill="#096656"/>
<path d="M239.813 0.65412C241.615 0.6439 243.436 0.716723 245.231 0.63368C243.423 0.560858 241.621 0.641345 239.813 0.65412Z" fill="#096656"/>
<path d="M264.601 2.96281V2.9654C264.601 2.9654 264.608 2.9654 264.614 2.9654L264.601 2.96281Z" fill="#096656"/>
<path d="M264.685 2.946C264.685 2.946 264.645 2.95494 264.632 2.96005C264.645 2.96005 264.665 2.95877 264.672 2.9575C264.685 2.95622 264.678 2.94983 264.685 2.94728V2.946Z" fill="#096656"/>
<path d="M264.601 2.96296L264.614 2.96566C264.614 2.96566 264.628 2.9616 264.635 2.96025C264.621 2.96025 264.614 2.9616 264.601 2.96296Z" fill="#096656"/>
<path d="M288.858 4.46632C288.806 4.47015 288.761 4.48037 288.716 4.48803C288.754 4.49314 288.799 4.50464 288.838 4.50336C288.89 4.50209 288.935 4.49187 288.981 4.48548C288.981 4.47143 288.935 4.46248 288.864 4.46759L288.858 4.46632Z" fill="#096656"/>
<path d="M295.6 4.54547C295.504 4.54291 295.407 4.54547 295.064 4.54802C295.368 4.57485 295.478 4.58635 295.594 4.59401C295.684 4.6004 295.827 4.60168 295.853 4.58124C295.898 4.54163 295.71 4.54802 295.6 4.54419V4.54547Z" fill="#096656"/>
<path d="M183.405 5.73748C181.764 5.7362 180.124 5.73492 178.484 5.73364C178.387 5.78219 177.767 5.76814 178.084 5.86524C178.335 5.87288 178.587 5.88058 178.839 5.88823C179.53 5.85503 180.202 5.87288 180.88 5.90485C181.855 5.91378 182.824 5.9227 183.799 5.9304C183.902 5.87673 184.361 5.85247 184.148 5.7707C183.902 5.75919 183.657 5.74897 183.412 5.73748H183.405Z" fill="#096656"/>
<path d="M131.351 0.731878C131.577 0.75615 131.79 0.758705 131.964 0.713993C131.842 0.693553 131.732 0.68461 131.628 0.688443C131.526 0.692275 131.435 0.706328 131.344 0.731878H131.351Z" fill="#096656"/>
</g>
<defs>
<clipPath id="clip0_4021_496">
<rect width="326" height="7" fill="white"/>
</clipPath>
</defs>
</svg>
