<svg width="25" height="19" viewBox="0 0 25 19" fill="none" xmlns="http://www.w3.org/2000/svg">
<path d="M23.6607 16.0714H1.33929C0.984085 16.0714 0.643433 16.2125 0.392268 16.4637C0.141103 16.7149 0 17.0555 0 17.4107C0 17.7659 0.141103 18.1066 0.392268 18.3577C0.643433 18.6089 0.984085 18.75 1.33929 18.75H23.6607C24.0159 18.75 24.3566 18.6089 24.6077 18.3577C24.8589 18.1066 25 17.7659 25 17.4107C25 17.0555 24.8589 16.7149 24.6077 16.4637C24.3566 16.2125 24.0159 16.0714 23.6607 16.0714ZM1.33929 2.67857H23.6607C24.0159 2.67857 24.3566 2.53747 24.6077 2.2863C24.8589 2.03514 25 1.69449 25 1.33929C25 0.984085 24.8589 0.643432 24.6077 0.392268C24.3566 0.141103 24.0159 7.4853e-09 23.6607 0H1.33929C0.984085 7.48529e-09 0.643433 0.141103 0.392268 0.392268C0.141103 0.643432 0 0.984085 0 1.33929C0 1.69449 0.141103 2.03514 0.392268 2.2863C0.643433 2.53747 0.984085 2.67857 1.33929 2.67857ZM1.33929 10.7143H18.2768C18.632 10.7143 18.9726 10.5732 19.2238 10.322C19.475 10.0709 19.6161 9.7302 19.6161 9.375C19.6161 9.0198 19.475 8.67915 19.2238 8.42798C18.9726 8.17682 18.632 8.03571 18.2768 8.03571H1.33929C0.984085 8.03571 0.643433 8.17682 0.392268 8.42798C0.141103 8.67915 0 9.0198 0 9.375C0 9.7302 0.141103 10.0709 0.392268 10.322C0.643433 10.5732 0.984085 10.7143 1.33929 10.7143Z" fill="#F6B620"/>
<path d="M22.7679 11.6071C24.0006 11.6071 25 10.6078 25 9.375C25 8.14222 24.0006 7.14286 22.7679 7.14286C21.5351 7.14286 20.5357 8.14222 20.5357 9.375C20.5357 10.6078 21.5351 11.6071 22.7679 11.6071Z" fill="#F6B620"/>
</svg>
