<svg width="17" height="17" viewBox="0 0 17 17" fill="none" xmlns="http://www.w3.org/2000/svg">
<path d="M13.423 10.5309C13.075 10.1685 12.6552 9.97476 12.2103 9.97476C11.7689 9.97476 11.3456 10.1649 10.9832 10.5273L9.84938 11.6575C9.75609 11.6073 9.66281 11.5606 9.57311 11.514C9.44394 11.4494 9.32195 11.3884 9.2179 11.3238C8.15586 10.6493 7.1907 9.77024 6.265 8.63286C5.81651 8.06596 5.51512 7.58876 5.29625 7.10438C5.59046 6.83528 5.86315 6.55542 6.12866 6.28633C6.22912 6.18586 6.32959 6.08181 6.43005 5.98135C7.18352 5.22788 7.18352 4.25195 6.43005 3.49848L5.45053 2.51896C5.33931 2.40773 5.22449 2.29292 5.11685 2.1781C4.90157 1.95565 4.67553 1.72602 4.44231 1.51074C4.09428 1.1663 3.67808 0.983311 3.24035 0.983311C2.80261 0.983311 2.37923 1.1663 2.02044 1.51074L2.01326 1.51792L0.793353 2.74859C0.334093 3.20785 0.0721714 3.76757 0.014764 4.417C-0.0713472 5.46468 0.237218 6.44061 0.474024 7.07927C1.05527 8.64721 1.92356 10.1003 3.21882 11.6575C4.79035 13.534 6.68121 15.0158 8.84116 16.0599C9.66639 16.451 10.7679 16.9139 11.9986 16.9928C12.0739 16.9964 12.1529 17 12.2246 17C13.0534 17 13.7495 16.7022 14.2949 16.1102C14.2985 16.103 14.3056 16.0994 14.3092 16.0922C14.4958 15.8662 14.7111 15.6617 14.9371 15.4428C15.0914 15.2957 15.2493 15.1414 15.4036 14.98C15.7588 14.6104 15.9453 14.1799 15.9453 13.7385C15.9453 13.2936 15.7552 12.8667 15.3928 12.5079L13.423 10.5309ZM14.7075 14.309C14.7039 14.309 14.7039 14.3126 14.7075 14.309C14.5676 14.4597 14.424 14.5961 14.2698 14.7468C14.0365 14.9692 13.7997 15.2024 13.5773 15.4643C13.2149 15.8518 12.7879 16.0348 12.2282 16.0348C12.1744 16.0348 12.117 16.0348 12.0632 16.0312C10.9975 15.9631 10.0073 15.5469 9.26454 15.1917C7.23375 14.2086 5.45053 12.8128 3.9687 11.044C2.74521 9.56931 1.92715 8.20589 1.38537 6.742C1.05169 5.84859 0.929695 5.15253 0.983515 4.49593C1.01939 4.07614 1.18085 3.72811 1.47865 3.4303L2.70215 2.20681C2.87796 2.04176 3.06454 1.95206 3.24752 1.95206C3.47356 1.95206 3.65655 2.0884 3.77136 2.20322L3.78213 2.21398C4.00099 2.4185 4.2091 2.63019 4.42796 2.85623C4.53919 2.97105 4.654 3.08586 4.76882 3.20426L5.74833 4.18378C6.12866 4.5641 6.12866 4.91572 5.74833 5.29605C5.64428 5.4001 5.54382 5.50415 5.43977 5.60461C5.13838 5.91318 4.85134 6.20021 4.53919 6.48008C4.53201 6.48725 4.52484 6.49084 4.52125 6.49802C4.21268 6.80658 4.27009 7.10797 4.33468 7.31248L4.34544 7.34478C4.60018 7.96191 4.95898 8.54316 5.50435 9.23563L5.50794 9.23922C6.49822 10.4591 7.54232 11.4099 8.69405 12.1383C8.84116 12.2316 8.99186 12.3069 9.13537 12.3787C9.26454 12.4433 9.38653 12.5043 9.49058 12.5689C9.50493 12.576 9.51929 12.5868 9.53364 12.594C9.65563 12.655 9.77044 12.6837 9.88885 12.6837C10.1866 12.6837 10.3732 12.4971 10.4342 12.4361L11.6613 11.209C11.7833 11.087 11.977 10.9399 12.2031 10.9399C12.4255 10.9399 12.6085 11.0798 12.7198 11.2018L14.7039 13.186C15.0735 13.552 15.0735 13.9287 14.7075 14.309ZM9.17484 4.04385C10.1149 4.20172 10.9688 4.64663 11.6505 5.32834C12.3323 6.01005 12.7736 6.86399 12.935 7.80404C12.9745 8.04084 13.179 8.20589 13.4122 8.20589C13.4409 8.20589 13.4661 8.2023 13.4948 8.19871C13.7603 8.15566 13.9361 7.9045 13.893 7.63899C13.6993 6.5016 13.1611 5.46468 12.3394 4.64304C11.5178 3.82139 10.4809 3.2832 9.34348 3.08945C9.07797 3.04639 8.8304 3.2222 8.78375 3.48412C8.73711 3.74605 8.90933 4.00079 9.17484 4.04385ZM16.9679 7.49906C16.6486 5.62614 15.7659 3.92186 14.4097 2.5656C13.0534 1.20935 11.3491 0.326714 9.47623 0.00738457C9.21431 -0.039259 8.96674 0.140139 8.9201 0.402061C8.87704 0.66757 9.05285 0.91514 9.31836 0.961784C10.9904 1.24523 12.5152 2.03817 13.728 3.24732C14.9407 4.46005 15.7301 5.98494 16.0135 7.65693C16.053 7.89373 16.2575 8.05878 16.4907 8.05878C16.5194 8.05878 16.5445 8.05519 16.5732 8.05161C16.8351 8.01214 17.0145 7.76098 16.9679 7.49906Z" fill="white"/>
</svg>
