<svg width="711" height="12" viewBox="0 0 711 12" fill="none" xmlns="http://www.w3.org/2000/svg">
<g clip-path="url(#clip0_4021_213)">
<path d="M469.164 1.83336C470.022 1.74357 470.98 1.76985 471.853 1.80051C473.149 1.84869 474.361 1.85745 475.614 1.76985C476.263 1.72386 477.037 1.70633 477.713 1.73481C479.263 1.80051 480.827 1.77423 482.39 1.76328C483.362 1.75671 484.25 1.74576 484.729 1.91659C484.967 2.00419 485.573 2.00638 486.038 1.98886C487.813 1.91878 489.701 1.96477 491.447 1.85964C491.602 1.85745 491.743 1.85307 491.897 1.85088C493.545 1.79175 495.237 1.75014 496.912 1.75452C502.25 1.76766 507.575 1.76766 512.899 1.71509C515.082 1.69319 517.266 1.63844 519.449 1.59683C519.717 1.59245 520.055 1.59026 520.083 1.53112C520.112 1.46323 519.787 1.42819 519.435 1.42162C518.364 1.40191 517.322 1.44571 516.28 1.48294C515.435 1.51141 514.632 1.55303 513.871 1.45009C511.18 1.39315 508.462 1.45885 505.786 1.39315C505.265 1.44352 504.73 1.45447 504.166 1.40848C503.11 1.41286 502.04 1.41724 500.983 1.42162C500.715 1.47856 500.406 1.48294 500.039 1.44133C499.517 1.46323 498.997 1.46542 498.476 1.43695C498.109 1.4698 497.8 1.46761 497.545 1.41067C497.265 1.40848 496.997 1.4041 496.715 1.40191C495.391 1.4917 494.081 1.45009 492.785 1.39096C492.363 1.39096 491.94 1.39315 491.517 1.39534C491.067 1.48951 490.475 1.52674 489.728 1.50265C488.264 1.55741 486.912 1.47418 485.531 1.426C484.644 1.43695 483.728 1.47856 482.939 1.37343C482.206 1.36686 481.488 1.34277 480.841 1.28802C480.221 1.31211 479.629 1.26831 479.235 1.21794C478.179 1.08215 477.066 1.10405 475.826 1.11938C473.487 1.15004 471.164 1.22451 468.784 1.21356C468.361 1.21137 467.741 1.17851 467.614 1.2924C467.91 1.40848 469.051 1.33839 469.248 1.50046C468.882 1.52017 468.502 1.54426 468.108 1.56398C466.586 1.64063 465.008 1.59902 463.261 1.6034C464.698 1.78737 466.445 1.71071 467.797 1.82898C468.248 1.82898 468.699 1.83117 469.149 1.83336H469.164Z" fill="#F6B620"/>
<path d="M527.69 0.208062C527.845 0.148929 528 0.0897952 528.154 0.0306618C526.451 0.0306618 524.747 0.0262815 523.042 0.0240914C521.873 0.105126 520.718 0.0832249 519.576 0.0109506C518.873 0.00657038 518.154 0.00438026 517.45 0C517.266 0.067894 516.675 0.0941755 516.646 0.17959C519.323 0.236534 522.014 0.262815 524.704 0.273766C525.577 0.129218 526.704 0.254055 527.662 0.205872L527.69 0.208062Z" fill="#F6B620"/>
<path d="M531.154 0.166256C531.915 0.133404 532.45 0.185967 532.901 0.273572C534.606 0.277952 536.31 0.280142 538.014 0.284522C538.24 0.212248 538.634 0.203488 539.085 0.210058L539.113 0.203488C539.043 0.155305 539.099 0.111502 539.282 0.07208C536.254 0.0523689 533.239 0.0348479 530.21 0.0151367C530.253 0.0567491 530.295 0.0961714 530.337 0.137784C530.606 0.146544 530.873 0.157495 531.141 0.166256H531.154Z" fill="#F6B620"/>
<path d="M708.423 6.7958C708.141 6.80456 707.859 6.81332 707.577 6.82208C706.662 6.90312 705.661 6.88779 704.662 6.88122C704.549 6.89655 704.521 6.91626 704.577 6.93816C704.282 6.92283 704 6.92721 703.732 6.94911C702.887 6.88998 702.028 6.94254 701.168 6.94254C701.154 6.96444 701.126 6.98853 701.112 7.01044C701.352 7.02139 701.576 7.03234 701.816 7.04329C701.576 7.03234 701.352 7.0192 701.112 7.01044C700.83 7.01044 700.548 7.01044 700.266 7.01044C699.971 6.99729 699.675 6.98415 699.38 6.97101C698.802 6.97101 698.224 6.9732 697.647 6.97539C697.253 7.00825 696.844 7.01263 696.421 6.98196C695.534 6.99072 694.647 6.9951 693.774 6.96663C693.463 6.98415 693.154 7.00168 692.843 7.0192C692.435 7.00606 692.041 6.99291 691.632 6.97977C690.674 6.86151 689.477 6.81989 688.364 6.76076C687.054 6.69068 685.942 6.60088 685.252 6.41034C684.52 6.41034 683.786 6.41034 683.054 6.41034C680.659 6.44976 678.406 6.35121 676.139 6.24608C675.223 6.20228 673.997 6.02269 673.631 6.35121C673.574 6.40158 673.054 6.41253 672.687 6.39939C672.123 6.38187 671.588 6.35778 671.026 6.33807C671.026 6.33807 670.898 6.32055 670.8 6.31836C670.56 6.30521 670.433 6.28331 670.335 6.25484C670.419 6.28112 670.56 6.30521 670.8 6.31836C671.039 6.15848 671.772 5.98108 670.222 5.87595C669.504 5.84091 668.772 5.80806 668.053 5.77301C667.926 5.76863 667.785 5.76425 667.659 5.75987C667.109 5.74673 666.546 5.73578 665.982 5.72264C665.56 5.89785 664.658 5.88033 663.757 5.85186C663.475 5.85186 663.18 5.84967 662.898 5.84748C662.714 5.87376 662.56 5.88033 662.419 5.87595C662.56 5.88252 662.714 5.87595 662.898 5.84748C662.687 5.79491 662.447 5.76206 662.067 5.81682C661.828 5.80806 661.602 5.80149 661.362 5.79272C661.292 5.76644 661.235 5.74016 661.165 5.71388C660.883 5.71388 660.588 5.71169 660.306 5.7095C660.08 5.67665 659.827 5.66351 659.517 5.66789C659.587 5.64818 659.574 5.62847 659.475 5.60875C658.897 5.61532 658.306 5.62189 657.729 5.62847C657.588 5.62189 657.461 5.61313 657.32 5.60656C657.179 5.53429 656.643 5.54086 656.376 5.49487C656.122 5.49487 655.855 5.49049 655.601 5.4883C655.334 5.48173 655.052 5.47735 654.785 5.47078C654.248 5.38536 653.63 5.40288 652.995 5.43354C652.46 5.40288 651.911 5.39412 651.333 5.40069C651.333 5.3766 651.333 5.35251 651.347 5.32842C650.897 5.33499 650.432 5.30214 649.995 5.34375C650.024 5.3328 650.051 5.32185 650.094 5.3109C649.671 5.35032 649.207 5.31966 648.77 5.32842C648.417 5.24957 647.953 5.24957 647.432 5.27804C646.586 5.26928 645.755 5.26052 644.911 5.25176C644.896 5.22986 644.896 5.20796 644.896 5.18606C644.629 5.17949 644.361 5.17073 644.079 5.16416C643.319 5.18168 642.558 5.20139 641.91 5.10941C640.783 5.09845 639.642 5.08969 638.515 5.07874C637.685 5.12036 636.825 5.09407 635.995 5.10502C635.247 5.11378 634.43 5.0656 633.768 5.15978C633.19 5.15978 632.599 5.15759 632.022 5.1554C631.402 5.05027 630.571 5.06779 629.839 5.08531C627.388 5.14445 624.923 5.17511 622.528 5.27585C621.993 5.27585 621.458 5.28023 620.936 5.28242C620.739 5.35251 620.444 5.37879 620.106 5.38536C620.444 5.37879 620.739 5.3547 620.936 5.28242C618.669 5.24081 616.415 5.17949 614.218 5.34813C613.556 5.3985 612.81 5.3766 612.105 5.37441C610.471 5.36784 608.837 5.33937 607.189 5.39412C606.513 5.41821 605.752 5.41602 605.062 5.3985C603.977 5.37003 602.936 5.38317 601.893 5.42478C601.217 5.40726 600.541 5.40069 599.864 5.43354C599.695 5.41164 599.513 5.38974 599.343 5.36784C598.653 5.39412 597.949 5.40288 597.23 5.39193C597.23 5.4204 597.23 5.44887 597.245 5.47735C594.653 5.48392 592.061 5.4883 589.469 5.49487C588.849 5.39412 587.962 5.46859 587.244 5.40945C586.173 5.32185 585.173 5.37222 584.314 5.49706C581.877 5.554 579.482 5.52553 577.159 5.39193C576.947 5.289 577.004 5.18387 577.031 5.07874C576.257 5.08093 575.665 5.14664 575.088 5.21672C574.976 5.21453 574.891 5.2211 574.849 5.23862C574.524 5.22329 574.242 5.23424 574.018 5.27585C572.595 5.29119 571.186 5.27147 569.805 5.21453C566.467 5.01085 562.975 4.90572 559.467 4.80936C559.114 4.75898 558.706 4.73051 558.227 4.74146C557.368 4.63853 556.354 4.58596 555.312 4.60568C554.368 4.6232 553.58 4.57063 552.734 4.53559C552.832 4.49398 552.931 4.45456 553.03 4.41294C553.734 4.42389 554.424 4.43485 555.129 4.44799C556.284 4.60568 557.636 4.61006 559.044 4.57282C559.79 4.61225 560.524 4.60568 561.256 4.56187C563.129 4.72175 565.228 4.63196 567.242 4.72394C567.215 4.54654 566.975 4.44142 566.031 4.41294C564.157 4.35819 562.326 4.25745 560.368 4.29249C560.368 4.30782 560.368 4.32096 560.368 4.3341C560.354 4.32096 560.34 4.30782 560.368 4.29249C560.128 4.26402 559.875 4.25525 559.579 4.26621C559.157 4.22459 558.706 4.21364 558.227 4.22459C558.185 4.20488 558.1 4.19612 557.959 4.19612C558.016 3.93112 556.439 3.9793 555.1 3.90483C556.523 3.79752 557.199 3.67268 557.664 3.49966C557.974 3.38139 558.411 3.2259 559.579 3.2259C559.72 3.20399 559.861 3.18209 560.002 3.16019C560.607 2.96527 561.636 3.01345 562.651 3.04849C563.058 3.04849 563.468 3.05287 563.875 3.05506C565.115 2.99812 566.257 3.08135 567.425 3.11639C569.003 3.16457 570.595 3.21275 572.059 3.32664C572.469 3.33759 572.876 3.34635 573.299 3.3573C574.215 3.26094 574.327 3.13391 573.483 3.09449C572.722 3.05945 572.017 2.96965 571.115 3.01564C570.299 3.05726 569.622 3.00907 569.144 2.89957C568.806 2.90833 568.468 2.90395 568.2 2.86671C567.228 2.81196 566.284 2.7375 565.2 2.74626C564.932 2.75502 564.665 2.76159 564.411 2.77035C560.594 2.95651 556.692 2.84262 552.832 2.84919C550.368 2.85357 547.874 2.83824 545.423 2.90395C545.184 2.90395 544.944 2.89957 544.705 2.89738C544.198 2.84919 543.733 2.85357 543.339 2.92804C542.62 2.92366 541.888 2.89957 541.183 2.94556C539.479 2.87766 537.761 2.92804 536.043 2.91052C535.732 2.85357 535.423 2.85795 535.085 2.90395C534.55 2.88205 534 2.86014 533.465 2.83824C533.225 2.7813 532.902 2.77692 532.535 2.8032C531.577 2.76159 530.606 2.75283 529.619 2.78568C527.197 2.67398 524.689 2.68493 522.225 2.70902C520.534 2.72436 518.844 2.6039 517.168 2.71779C517.168 2.69369 517.168 2.6696 517.168 2.64551C516.858 2.66522 516.548 2.68493 516.223 2.70464L516.281 2.80101C516.266 2.76816 516.252 2.7375 516.223 2.70464C515.829 2.68712 515.421 2.66741 515.027 2.64989C513.759 2.72436 512.435 2.72655 511.11 2.73312C510.434 2.7375 509.702 2.70464 509.125 2.79006C508.941 2.79006 508.744 2.79006 508.561 2.79225C508.139 2.76378 507.73 2.7813 507.307 2.79225C506.575 2.73969 505.857 2.68055 505.097 2.77911C505.097 2.8032 505.097 2.82729 505.097 2.84919C505.814 2.82948 506.548 2.83386 507.266 2.85576C507.322 2.89738 507.392 2.93899 507.618 2.95651C507.392 2.94118 507.322 2.89738 507.266 2.85576C506.548 2.83386 505.829 2.82948 505.097 2.84919C505.097 2.8251 505.097 2.8032 505.097 2.77911C504.097 2.78568 503.082 2.72874 502.096 2.79225C501.392 2.75721 500.687 2.7594 499.969 2.77254C498.829 2.74626 497.688 2.71122 496.532 2.75064C496.123 2.7156 495.702 2.70026 495.265 2.74188C494.997 2.70902 494.701 2.70026 494.363 2.7156C493.969 2.67398 493.546 2.66303 493.096 2.68712C491.659 2.65646 490.292 2.55353 488.799 2.59952C486.701 2.52067 484.574 2.53819 482.447 2.54477C481.855 2.50096 481.25 2.4922 480.63 2.52724C478.207 2.52067 475.784 2.51191 473.348 2.50534C473.066 2.47906 472.77 2.47687 472.488 2.50096C471.783 2.49001 471.094 2.47906 470.389 2.46811C470.08 2.41993 469.77 2.41774 469.446 2.46811C469.052 2.44621 468.643 2.44402 468.235 2.46373C467.221 2.37175 466.149 2.41555 465.108 2.43307C463.558 2.45716 462.009 2.50972 460.445 2.44183C459.74 2.45935 459.05 2.46154 458.347 2.43526C456.783 2.45935 455.233 2.47906 453.67 2.50534C450.008 2.56448 446.345 2.65646 442.782 2.41774C442.415 2.39365 441.936 2.40679 441.514 2.40679C438.021 2.40679 434.527 2.42431 431.048 2.44621C427.428 2.46811 423.795 2.52943 420.146 2.4922C418.723 2.47687 417.343 2.56886 415.893 2.4922C414.639 2.4265 414.61 2.44402 415.414 2.24253C415.399 2.22063 415.371 2.19654 415.371 2.17463C415.371 2.19654 415.399 2.21844 415.414 2.24253C416.019 2.2491 416.596 2.23815 417.104 2.18339C417.948 2.17463 418.794 2.16368 419.638 2.15492C419.696 2.13302 419.752 2.11331 419.808 2.09798C419.92 2.06732 420.061 2.04761 420.202 2.03666C420.061 2.04761 419.934 2.06732 419.808 2.09798C419.752 2.11331 419.696 2.13302 419.638 2.15492C419.934 2.17025 420.245 2.18558 420.54 2.20092C420.822 2.19434 421.118 2.18996 421.4 2.18339C421.4 2.1593 421.4 2.13521 421.4 2.11112C421.836 2.11988 422.302 2.08922 422.723 2.13302C422.85 2.11988 422.963 2.10674 423.09 2.0936C423.09 2.06732 423.119 2.04542 423.188 2.03009C423.119 2.04542 423.076 2.06951 423.09 2.0936C423.399 2.12864 423.696 2.13083 424.005 2.0936C424.287 2.10674 424.569 2.11769 424.851 2.13083C424.695 2.11769 424.668 2.10017 424.751 2.07827C426.076 2.15273 427.372 2.13521 428.653 2.05199C429.02 2.0279 429.19 1.98628 429.161 1.92496C429.47 1.90744 429.781 1.88992 430.09 1.8724C430.781 1.89868 431.498 1.81545 432.189 1.88554C433.006 1.86802 433.795 1.79136 434.654 1.8483C434.964 1.80888 435.302 1.80669 435.668 1.83297C435.937 1.82421 436.204 1.81326 436.457 1.8045C437.43 1.64024 438.936 1.70157 440.218 1.62272C439.359 1.46941 438.485 1.66652 437.753 1.57016C437.457 1.57235 437.161 1.57673 436.88 1.57892C436.752 1.65557 436.443 1.67528 435.993 1.64243C435.443 1.66652 434.907 1.66214 434.372 1.63586C432.95 1.68843 431.429 1.58111 430.063 1.71033C427.048 1.61615 424.062 1.66871 421.075 1.7388C420.751 1.71033 420.413 1.70814 420.075 1.73223C419.696 1.70595 419.315 1.70157 418.92 1.7169C418.92 1.74318 418.864 1.76508 418.765 1.7826C418.85 1.76508 418.906 1.74318 418.92 1.7169C418.174 1.67747 417.427 1.66214 416.71 1.73442C415.568 1.69938 414.442 1.63586 413.272 1.69719C413.005 1.66871 412.723 1.66433 412.427 1.68186C412.385 1.72785 412.273 1.75851 412.103 1.77603C412.273 1.75632 412.385 1.72785 412.427 1.68186C411.92 1.62272 411.3 1.62053 410.709 1.61177C409.723 1.50226 408.92 1.5833 408.131 1.6709C407.821 1.66871 407.483 1.67528 407.23 1.63586C406.835 1.66214 406.426 1.66214 406.018 1.64024C405.75 1.67528 405.426 1.6709 405.103 1.67309C404.553 1.58987 403.595 1.55045 403.849 1.38181C403.413 1.38181 402.99 1.37962 402.553 1.37743C402.399 1.40371 402.258 1.43218 402.102 1.45846C400.962 1.45846 399.834 1.45846 398.694 1.45846C398.539 1.45846 398.383 1.45846 398.229 1.45846C397.228 1.42999 396.2 1.48912 395.229 1.42342C394.679 1.43437 394.13 1.44751 393.566 1.45846C392.524 1.41904 391.495 1.41028 390.454 1.46722C388.749 1.44751 387.045 1.42999 385.355 1.41028L385.495 1.43218L385.439 1.46065C384.974 1.41904 384.481 1.41685 383.989 1.4497C382.89 1.39276 381.762 1.41247 380.636 1.41247C380.481 1.41247 380.34 1.40809 380.185 1.4059C378.762 1.39933 377.325 1.39495 375.903 1.38838C375.635 1.33581 375.312 1.33581 374.959 1.36648C373.579 1.28763 372.114 1.35115 370.719 1.29858L369.508 1.35553C369.212 1.33362 368.917 1.31391 368.635 1.29201C367.621 1.34239 366.508 1.26135 365.521 1.34677C365.282 1.34458 365.044 1.3402 364.818 1.33801C364.704 1.37524 364.578 1.40371 364.437 1.41466C364.592 1.4059 364.704 1.37743 364.818 1.33801C364.437 1.2942 364.128 1.30953 363.889 1.36867C363.578 1.35991 363.282 1.35115 362.973 1.34239C363 1.35334 363.029 1.3621 363.057 1.37305C361.635 1.29639 360.169 1.35991 358.718 1.33582C358.113 1.42342 357.366 1.37524 356.676 1.384C356.028 1.39276 355.409 1.40371 354.901 1.47598C354.507 1.53293 354.268 1.59644 354.436 1.68186C354.592 1.76289 355.056 1.76508 355.479 1.76508C356.127 1.76289 356.746 1.81545 357.339 1.81764C358.958 1.82421 360.522 1.94686 362.17 1.8724C362.987 1.88335 363.804 1.8943 364.621 1.90744C364.706 2.10236 363.889 2.08046 363.085 2.06294C362.24 2.04323 361.324 1.96876 360.408 2.17244C362.747 2.16587 364.775 2.25348 366.875 2.22282C367.155 2.2272 367.452 2.23158 367.733 2.23596C367.846 2.28195 367.959 2.27757 368.057 2.23596C368.592 2.2491 369.114 2.26224 369.649 2.27538C369.846 2.35422 370.226 2.42431 370.24 2.5141C369.396 2.52286 368.565 2.53162 367.719 2.54039C367.522 2.60828 367.325 2.63456 367.113 2.61923C367.325 2.63675 367.522 2.61047 367.719 2.54039C367.381 2.51848 367.057 2.51848 366.734 2.54258C366.479 2.536 366.212 2.52724 365.958 2.52067C365.803 2.52067 365.649 2.51629 365.494 2.5141C365.212 2.51191 364.93 2.50972 364.648 2.50534C364.507 2.50534 364.353 2.50534 364.212 2.50315C361.339 2.48563 358.451 2.46811 355.577 2.45059C355.31 2.46154 355.042 2.47468 354.789 2.48563C352.943 2.43088 351.084 2.45716 349.224 2.46592C349.197 2.49439 349.099 2.51629 348.901 2.50534C348.83 2.50096 348.788 2.47687 348.746 2.46373C348.436 2.45497 348.126 2.4484 347.859 2.47906C347.887 2.46811 347.915 2.45935 347.957 2.4484C347.196 2.48782 346.435 2.48563 345.703 2.43307C345.732 2.44402 345.774 2.45497 345.802 2.46592C344.662 2.39803 343.478 2.46592 342.323 2.43307C342.323 2.45497 342.309 2.47906 342.294 2.50096C340.59 2.50534 338.886 2.51191 337.181 2.51629C337.026 2.51629 336.858 2.52067 336.702 2.52286C336.435 2.52286 336.167 2.52286 335.9 2.52505C335.73 2.50534 335.562 2.48563 335.392 2.46592C333.955 2.47687 332.533 2.49001 331.096 2.50096L331.181 2.47249C328.927 2.51848 326.673 2.46373 324.421 2.46373C323.082 2.46373 321.744 2.46373 320.392 2.46154C320.251 2.46154 320.096 2.46154 319.955 2.46154C319.096 2.45059 318.251 2.43964 317.392 2.43088C315.109 2.33889 312.799 2.37613 310.49 2.38489C310.728 2.41993 311.01 2.44402 311.292 2.46154C310.996 2.44402 310.728 2.41993 310.49 2.38489C309.785 2.38051 309.08 2.37613 308.391 2.37175C308.109 2.34327 307.813 2.33889 307.517 2.36298C307.236 2.36298 306.954 2.36298 306.672 2.36298L306.221 2.36737C304.798 2.36737 303.39 2.29071 301.968 2.35641C300.939 2.32794 299.897 2.29947 298.714 2.26662C299.08 2.16368 299.629 2.19434 300.01 2.16806C300.278 2.15054 300.46 2.12864 300.531 2.07827C300.855 1.80669 300.883 1.80012 302.405 1.83954C302.967 1.85269 303.488 1.88554 304.039 1.83078C304.348 1.80012 304.686 1.76946 304.616 1.70814C304.545 1.64681 304.165 1.62491 303.799 1.62929C302.743 1.64243 301.686 1.65995 300.63 1.67309C299.925 1.68186 299.221 1.69719 298.53 1.65119C297.84 1.68624 297.164 1.66871 296.502 1.63586C295.685 1.68843 294.812 1.66871 293.967 1.6709C292.685 1.67528 291.431 1.67747 290.164 1.72566C289.009 1.76727 287.825 1.78698 286.587 1.73661C285.192 1.68186 283.783 1.8045 282.347 1.77165C281.825 1.7607 281.333 1.74756 281.275 1.64681C281.234 1.56359 281.416 1.48912 281.938 1.45627C282.262 1.43656 282.656 1.44532 282.98 1.42561C283.881 1.36648 284.98 1.39495 285.727 1.27449C285.432 1.24383 285.121 1.23069 284.797 1.22631C285.121 1.23069 285.432 1.24383 285.727 1.2723C285.98 1.26354 286.249 1.25697 286.502 1.24821C286.685 1.2066 286.896 1.18032 287.122 1.17375C287.346 1.16718 287.586 1.18032 287.854 1.21755C289.15 1.22193 290.417 1.26573 291.727 1.24164C293.249 1.10804 294.91 1.07738 296.615 1.08833C296.714 1.08833 296.813 1.06205 296.911 1.04672C297.178 1.04672 297.46 1.04672 297.728 1.04672C298.109 0.987585 298.573 0.981014 299.067 0.991965C298.953 0.974444 298.926 0.954733 298.982 0.930641C298.686 0.862747 298.25 0.847416 297.798 0.838656C298.25 0.847416 298.671 0.862747 298.982 0.930641C299.615 0.919691 299.587 0.862747 299.333 0.794853C299.136 0.7401 298.897 0.685347 298.686 0.630594C298.376 0.637164 298.066 0.643735 297.742 0.652495C297.545 0.74448 296.728 0.700678 296.517 0.788283C296.094 0.788283 295.658 0.788283 295.235 0.788283C295.165 0.759811 295.08 0.73134 295.009 0.702868C294.502 0.696298 294.01 0.687537 293.502 0.680967C292.868 0.772952 292.15 0.716009 291.46 0.705058C290.263 0.683157 289.347 0.73572 288.854 0.917501C288.671 0.917501 288.501 0.91312 288.319 0.91093C288.192 0.827705 287.684 0.759811 287.881 0.663446C287.205 0.613073 286.473 0.637164 285.77 0.624023C285.77 0.650305 285.77 0.676587 285.77 0.700678C285.853 0.716009 285.938 0.73134 286.023 0.746671C286.276 0.792663 286.529 0.834276 286.84 0.867128C286.544 0.836466 286.276 0.792663 286.023 0.746671C285.938 0.73134 285.853 0.716009 285.77 0.700678C285.459 0.687537 285.163 0.676587 284.854 0.663446C284.333 0.709438 283.657 0.689727 283.178 0.757621C281.036 0.685347 278.882 0.781713 276.74 0.74229C274.219 0.856177 271.641 0.91093 268.838 0.864938C269.232 0.967874 269.81 0.965683 269.923 1.04453C269.274 1.13213 268.472 1.12337 267.711 1.13213C267.049 1.1387 266.247 1.13213 266.247 1.26135C266.247 1.39057 267.092 1.38838 267.711 1.39495C268.275 1.40152 268.853 1.39276 269.43 1.39495C270.57 1.39714 271.712 1.39933 272.853 1.4059C273.106 1.4059 273.472 1.40371 273.514 1.46284C273.57 1.53074 273.247 1.56578 272.909 1.57892C271.866 1.61834 270.782 1.61396 269.711 1.6052C268.994 1.59863 268.289 1.59206 267.57 1.58768C266.697 1.5833 266.176 1.66652 266.134 1.78479C266.091 1.91839 266.908 1.91182 267.542 1.93153C268.472 1.96 269.317 1.83297 270.247 1.90306C270.655 1.8943 271.078 1.88554 271.486 1.87678C272.402 1.74756 273.585 1.79355 274.501 1.82421C276.5 1.8943 278.473 1.86802 280.458 1.8724C282.67 1.87897 284.881 1.8724 287.093 1.87678C287.812 1.87678 288.516 1.88335 289.206 1.83954C290.164 1.77822 291.009 1.83954 291.897 1.88773C292.784 1.9381 292.84 2.0498 292.714 2.1593C292.573 2.27976 291.841 2.271 291.319 2.24034C288.938 2.09798 286.6 2.20968 284.205 2.22939C281.022 2.25567 277.825 2.32137 274.627 2.24253C272.402 2.27976 270.176 2.30166 267.951 2.30166C267.951 2.32356 267.951 2.34546 267.951 2.36737C265.95 2.37175 263.964 2.37613 261.965 2.38051C261.824 2.3827 261.683 2.38489 261.528 2.38708C261.105 2.38708 260.683 2.38708 260.26 2.38708C259.978 2.36079 259.682 2.3586 259.387 2.3827C258.979 2.38489 258.556 2.38708 258.147 2.38927C257.683 2.3586 257.231 2.3586 256.767 2.39146C256.091 2.38927 255.4 2.38708 254.724 2.38489C254.696 2.41774 254.668 2.45059 254.625 2.48344C254.654 2.45059 254.683 2.41774 254.724 2.38489C254.274 2.35422 253.808 2.35203 253.344 2.37613C253.076 2.36517 252.823 2.35203 252.555 2.34108C252.104 2.27976 251.879 2.21406 252.386 2.13521C252.499 2.13521 252.597 2.12864 252.668 2.1155C254.302 2.1374 254.569 1.86583 256.049 1.79136C253.414 1.71252 251.175 1.63148 248.78 1.68405C246.062 1.74318 243.273 1.7388 240.526 1.76289C239.808 1.76289 239.089 1.76289 238.371 1.76508C237.793 1.85707 237.019 1.81326 236.343 1.83297C235.723 1.85049 235.047 1.81545 234.525 1.89868C234.216 1.88992 233.892 1.87897 233.582 1.87021C233.61 1.88116 233.625 1.8943 233.625 1.90525C233.09 1.89211 232.553 1.88116 232.018 1.86802C231.102 1.88335 230.187 1.89649 229.286 1.85488C228.454 1.86145 227.61 1.87021 226.779 1.87678C226.75 1.89868 226.737 1.92058 226.737 1.94248C225.468 1.94029 224.201 1.9381 222.918 1.93591C222.398 1.8045 221.736 1.96657 221.172 1.9162C220.469 1.9162 219.778 1.91839 219.074 1.92058C218.539 1.97971 217.792 1.91182 217.299 1.99285C216.594 1.99285 215.876 1.99504 215.172 1.99723C214.778 2.03009 214.369 2.05199 213.961 2.06513C214.369 2.05199 214.778 2.0279 215.172 1.99723C214.496 1.90744 213.608 1.90087 212.806 1.88116C211.89 1.85926 211.045 1.81983 210.172 1.77603C208.397 1.68843 206.622 1.69719 205.086 1.90087C204.593 1.96657 204.087 1.96438 203.494 1.93372C202.735 1.8943 203.087 1.81764 203.171 1.74756C203.171 1.73661 203.185 1.72128 203.156 1.7169C202.001 1.52855 202.959 1.38838 203.608 1.24164C203.073 1.20222 202.354 1.2504 201.931 1.15841C199.917 1.1847 197.903 1.0949 195.889 1.16718C195.184 1.13213 194.48 1.1168 193.747 1.14746C193.466 1.13651 193.185 1.12556 192.903 1.11461C192.325 1.14527 191.607 1.10804 191.142 1.19784C190.297 1.19346 189.452 1.18689 188.621 1.18251C188.507 1.12118 188.086 1.1168 187.846 1.07957C187.466 1.11023 187.141 1.10366 186.916 1.04234C186.606 1.04234 186.311 1.04234 186 1.04234C185.874 1.07081 185.733 1.09928 185.606 1.12994C184.887 1.13432 184.169 1.1387 183.452 1.14308C183.423 1.11899 183.409 1.0949 183.381 1.07081C182.55 1.04453 181.719 1.01606 180.887 0.987585C180.887 1.01168 180.887 1.03796 180.887 1.06205C179.62 1.02044 178.268 1.14965 177.028 1.02044C176.155 0.935022 175.281 0.917501 174.422 1.02482C173.999 1.02482 173.535 1.06643 173.141 1.00511C172.761 1.02044 172.366 1.02701 171.986 1.01606C172.056 1.02263 172.127 1.03358 172.168 1.04672C171.211 1.0292 170.267 1.01168 169.309 0.991965L168.436 1.02044C167.295 1.01387 166.154 1.0073 165.013 0.998535C165.013 0.974444 165.013 0.950352 165.027 0.926261C163.872 0.919691 162.689 0.943782 161.562 0.882459C161.266 0.90217 160.984 0.921881 160.689 0.943782C159.703 0.932831 158.716 0.924071 157.731 0.91312C157.619 0.932831 157.505 0.948162 157.407 0.959113C157.196 0.981014 156.999 0.989775 156.815 0.987585C156.999 0.989775 157.196 0.983204 157.407 0.959113C157.505 0.948162 157.619 0.932831 157.731 0.91312C157.731 0.891219 157.731 0.869318 157.702 0.847416C157.281 0.840846 156.858 0.834276 156.435 0.827705C156.139 0.838656 155.844 0.847416 155.562 0.858367C155.125 0.856177 154.689 0.853987 154.252 0.851797C153.857 0.812374 153.279 0.836466 152.984 0.762001C152.392 0.762001 151.815 0.762002 151.223 0.759811V0.836466C151.449 0.878078 151.716 0.90217 151.998 0.917501C151.716 0.90217 151.449 0.880268 151.223 0.836466C150.928 0.832086 150.646 0.827705 150.35 0.823325C150.082 0.834276 149.815 0.845226 149.547 0.853987C149.406 0.851797 149.251 0.847416 149.11 0.845226C148.983 0.832086 148.871 0.818945 148.744 0.805804C147.73 0.840846 146.715 0.816755 145.688 0.818945C144.546 0.707248 143.391 0.726959 142.222 0.807994C141.518 0.829895 140.772 0.788283 140.082 0.838656C140.067 0.875888 140.082 0.90655 140.124 0.930641C140.181 0.954733 140.264 0.974444 140.378 0.989775C140.264 0.974444 140.181 0.956923 140.124 0.930641C140.067 0.90655 140.053 0.875888 140.082 0.838656C139.659 0.812374 139.223 0.814565 138.8 0.840846C138.222 0.821135 137.645 0.803614 137.067 0.783903C136.785 0.783903 136.49 0.783903 136.208 0.783903C136.335 0.794853 136.362 0.812374 136.279 0.832086C135.222 0.775142 134.236 0.818945 133.236 0.871508C131.095 0.871508 128.939 0.871508 126.799 0.871508C126.067 0.829895 125.319 0.853987 124.587 0.871508C123.475 0.834276 122.362 0.845226 121.235 0.871508C120.756 0.832086 120.319 0.856177 119.911 0.89998C118.756 0.895599 117.601 0.864937 116.474 0.921881C116.178 0.897789 115.882 0.89998 115.587 0.921881C114.699 0.90217 113.812 0.873698 113.009 0.961303C112.868 0.965683 112.741 0.970064 112.6 0.974444C112.6 0.989775 112.6 1.0073 112.572 1.02482C112.572 1.0073 112.572 0.991965 112.6 0.974444C111.305 0.956923 110.009 0.941592 108.713 0.924071C108.431 0.930641 108.149 0.937212 107.868 0.943782C107.868 0.967874 107.868 0.989775 107.868 1.01387C108.037 1.10585 108.318 1.14527 108.657 1.15841C108.318 1.14308 108.037 1.10366 107.868 1.01387L106.544 0.976634C106.008 1.01387 105.459 1.0292 104.868 1.0073C104.91 1.0292 104.896 1.04891 104.825 1.06862C104.558 1.07519 104.276 1.08395 104.008 1.09052C103.586 1.07738 103.163 1.06643 102.741 1.05329C102.741 1.03139 102.741 1.0073 102.741 0.985394C102.445 0.985394 102.163 0.985395 101.867 0.987585C101.867 1.01168 101.867 1.03577 101.853 1.05986C100.853 1.09052 99.853 1.12337 98.853 1.15403C98.6979 1.13651 98.543 1.11899 98.3881 1.10147C98.1064 1.10585 97.8246 1.11242 97.5571 1.1168C96.3315 1.22193 95.0356 1.26354 93.6412 1.22412C93.2468 1.25259 92.8243 1.25478 92.3876 1.24602C91.7256 1.31829 91.0635 1.37962 90.2184 1.32048C89.9368 1.33801 89.655 1.33362 89.3874 1.31391C88.8943 1.37086 88.3168 1.36429 87.7535 1.3621C85.4997 1.35772 83.246 1.36648 80.9924 1.39933C79.1472 1.42561 77.3864 1.34239 75.5975 1.28982C75.33 1.28982 75.0482 1.28982 74.7806 1.28982C74.3439 1.34239 73.8932 1.33801 73.4283 1.30515C73.1467 1.31172 72.879 1.31829 72.5973 1.32267C72.3578 1.37962 72.0621 1.39057 71.6818 1.35553C71.4141 1.36429 71.1465 1.37086 70.8788 1.37962C70.6957 1.41685 70.4562 1.44094 70.1605 1.44313C68.2167 1.45846 66.3715 1.55921 64.4981 1.6271C61.0894 1.74975 57.6947 1.89868 54.765 2.21406C53.6943 2.33013 52.5253 2.41993 51.328 2.48563C49.4265 2.59076 47.4545 2.64332 45.5388 2.76378C43.75 2.87547 42.7076 3.0244 41.8906 3.25875C41.2568 3.2697 40.6793 3.31788 40.0032 3.29817C38.0593 3.24123 36.2141 3.35292 34.707 3.49747C33.3125 3.63107 31.8617 3.6902 30.3686 3.7581C29.0164 3.81942 27.5797 3.8457 26.4528 3.99901H26.3261V3.99682C25.9879 4.00996 25.6358 4.01653 25.2978 4.03405C21.3256 4.22459 17.6775 4.52245 14.156 4.86192C13.6067 4.91448 12.818 4.94734 13.0293 5.0656C13.2404 5.18168 14.0998 5.15102 14.7054 5.1554C15.0434 5.15759 15.4096 5.13788 15.7196 5.11598C16.3816 5.06779 17.1563 5.00647 17.7056 5.09626C18.3394 5.1992 17.607 5.30871 17.2127 5.38536C16.5788 5.50801 16.7901 5.57371 17.3394 5.69417C18.424 5.9307 20.4242 5.95698 21.5228 6.18038C21.7201 6.21761 22.1989 6.20666 22.551 6.18476C24.1287 6.0862 25.4527 6.14753 26.6641 6.32493C27.1289 6.39501 27.9741 6.46071 28.4107 6.40815C29.5798 6.2636 30.8194 6.34245 32.0166 6.34464C32.89 6.34464 33.2562 6.31178 33.5661 6.18476C34.383 5.85624 34.6788 5.8431 36.5944 6.05116C37.3974 6.13876 38.1721 6.16067 39.0031 6.1081C40.9751 5.98108 42.9893 5.86719 44.5669 5.62847C45.0177 5.62408 45.4824 5.6197 45.9332 5.61751C46.8065 5.83434 47.0319 5.8431 47.7221 5.6876C47.9616 5.6657 48.2011 5.64599 48.4404 5.62408C48.9757 5.66789 49.2997 5.64599 49.3842 5.55181C49.1025 5.54743 48.8348 5.54086 48.5532 5.53648C47.9757 5.45107 47.6517 5.52553 47.3136 5.58685C47.6517 5.52553 47.9616 5.45107 48.5532 5.53648C48.8348 5.54086 49.1025 5.54743 49.3842 5.55181C49.6799 5.53429 49.9758 5.51677 50.2716 5.50144C50.5674 5.52115 50.8632 5.51677 51.1308 5.49268C51.9478 5.52991 52.5957 5.45763 53.3001 5.41383C53.3281 5.44011 53.4127 5.45107 53.5817 5.44887C53.7225 5.52772 54.117 5.58028 54.4691 5.63066C55.0889 5.72045 55.596 5.70293 55.9622 5.58247C56.3566 5.56495 56.751 5.54524 57.1453 5.52772C57.3566 5.56057 57.5115 5.55619 57.6384 5.51458C58.6243 5.49268 59.5963 5.4664 60.2161 5.32404C61.3569 5.27147 62.4979 5.21891 63.6389 5.16854C63.6389 5.16854 63.6389 5.16854 63.6389 5.16635C63.6389 5.16635 63.6389 5.16635 63.6389 5.16854C63.4839 5.30652 64.6389 5.27147 64.7657 5.36784C64.7375 5.38536 64.7375 5.40069 64.6953 5.40507C63.0613 5.54962 62.2725 5.86062 60.3287 5.94165C60.1033 5.95041 60.0471 5.98108 59.9766 6.01393C59.2723 6.32931 58.8215 6.37092 56.8637 6.32274C56.0607 6.30302 55.2297 6.22856 54.4268 6.34026C54.286 6.35997 53.8071 6.35559 53.6381 6.3315C52.6098 6.1979 51.6661 6.26141 50.6519 6.33588C49.835 6.3972 49.0039 6.39939 48.2432 6.30302C47.2855 6.18257 46.0178 6.18914 45.2008 6.25922C43.8344 6.37749 42.2568 6.36216 40.961 6.46728C38.6087 6.65344 35.7352 6.70163 34.0449 7.06957C33.89 7.10242 33.5802 7.12651 33.3266 7.13746C30.0587 7.27106 26.819 7.42218 23.4666 7.49883C21.9032 7.56454 20.3396 7.62805 18.7902 7.69376C17.3676 7.86678 15.8463 7.9938 13.9447 7.93248C13.5363 7.95657 13.1137 7.98066 12.7052 8.00694L12.663 8.19968C13.0855 8.19968 13.5081 8.19748 13.9447 8.19529C14.2406 8.10112 14.9448 8.12083 15.3956 8.06827C15.9309 8.00694 16.5506 7.94124 16.9168 8.09236C17.2548 8.22815 16.8745 8.38146 16.0858 8.40993C15.3815 8.43402 15.2265 8.45811 15.0434 8.58952C14.5081 8.98155 13.5926 9.04506 10.3811 9.00126C10.5079 8.88299 11.5502 8.93337 11.7052 8.82605C9.73317 8.9049 8.26826 8.77349 6.97238 8.56324C6.38079 8.63551 5.78919 8.70778 5.1976 8.77787C4.66234 8.9487 5.95822 9.02097 6.02864 9.15895C5.78919 9.16333 5.56382 9.16771 5.32437 9.17209C4.81729 9.11953 4.35246 9.11953 3.98623 9.20494C3.70452 9.21589 3.43689 9.22466 3.15518 9.23342C2.98615 9.20932 2.80304 9.18742 2.63401 9.16333C1.74662 9.20713 0.521168 9.10639 0 9.31007C0.492996 9.32759 0.619767 9.37577 0.436654 9.44586C0.507083 9.47871 0.57751 9.51375 0.647938 9.5466L2.60584 9.78533C3.04249 9.78533 3.46506 9.78752 3.90172 9.78971C4.04257 9.76124 4.19752 9.73276 4.33837 9.70429C4.606 9.69115 4.87363 9.67801 5.14125 9.66487C6.04273 9.78533 6.9583 9.88169 8.28235 9.87731C8.73309 9.87731 10.043 9.85979 9.64866 10.0657C9.56414 10.1993 9.87402 10.2847 10.8178 10.2672C11.522 10.254 12.1982 10.2234 12.8883 10.2015C14.6068 10.0876 16.2407 9.95178 17.4521 9.71962C17.2127 9.7021 16.9873 9.69334 16.7901 9.69334C17.0014 9.69334 17.2127 9.7021 17.4521 9.71962C17.6775 9.71086 17.9029 9.69991 18.1283 9.69115C18.8747 9.72619 19.6212 9.76124 20.3678 9.79847C20.7763 9.81818 21.1002 9.85322 21.3397 9.91674C22.1004 10.116 22.6215 10.1445 23.6638 10.0131C25.34 9.80066 27.3402 9.69772 29.284 9.58603C30.4108 9.52032 31.749 9.46557 32.8618 9.64078C33.4111 9.72838 34.1436 9.74372 34.8338 9.68896C36.031 9.5926 36.6649 9.6802 37.1861 9.83789C37.3128 9.87512 37.5523 9.9014 37.7354 9.93426C38.1721 10.1073 37.2846 10.3066 38.1861 10.4708C38.3552 10.6198 38.5805 10.7665 38.4819 10.922C38.3552 11.1235 38.4115 11.1235 36.8339 11.1082C36.5521 11.1082 36.2705 11.1104 35.9888 11.1125C35.1436 11.198 34.2421 11.1629 33.3407 11.1388C33.1294 11.1717 32.9181 11.2067 32.7069 11.2396C32.7772 11.3206 32.8477 11.4016 32.9181 11.4827C33.228 11.4827 33.5379 11.4805 33.8477 11.4783C34.5098 11.3797 35.2703 11.3951 36.0451 11.4367C37.4677 11.406 38.8764 11.4126 40.299 11.4279C40.5665 11.3556 41.1018 11.3951 41.454 11.3578H41.5103C41.5244 11.3819 41.5385 11.406 41.5526 11.4301C42.1301 11.4148 42.7358 11.4586 43.2852 11.3995C43.4119 11.4104 43.5527 11.4192 43.6795 11.4301C44.5669 11.3688 45.4403 11.4367 46.3276 11.4301C46.5389 11.4564 46.7642 11.463 47.0178 11.4476C48.3419 11.5309 49.8631 11.5396 50.9899 11.6973C51.3421 11.7083 51.6942 11.7214 52.0463 11.7324C52.1027 11.7543 52.145 11.7762 52.2014 11.7981C52.5957 11.7827 52.9056 11.7981 53.1028 11.8572C53.3986 11.8484 53.6943 11.8397 54.0043 11.8309L53.9338 11.8594C54.2296 11.8594 54.5114 11.8594 54.8071 11.8572C54.8071 11.8813 54.8071 11.9032 54.8071 11.9273C55.5255 11.9295 56.2579 11.9317 56.9763 11.9338C57.1876 11.8988 57.3848 11.8659 57.5961 11.8309C60.8781 11.5856 64.16 11.3359 67.949 11.3688C69.09 11.3797 70.2028 11.4214 71.3015 11.4805C72.1043 11.5243 72.9495 11.5659 73.7946 11.5769C75.6398 11.6031 77.4991 11.5988 79.2175 11.7302C79.5134 11.7543 79.9359 11.7564 80.274 11.7477C82.2601 11.6973 84.0066 11.7981 85.8801 11.8878C88.7676 12.0258 91.8101 12.0368 94.7822 11.9185C96.402 11.855 98.0077 11.8309 99.6558 11.8243C101.656 11.8178 103.656 11.7915 105.656 11.7696C106.079 11.7652 106.6 11.7608 106.882 11.7214C108.487 11.4958 110.614 11.4498 112.474 11.314C112.516 11.3031 112.572 11.2943 112.615 11.2856C112.558 11.2943 112.516 11.3031 112.474 11.314C112.798 11.3206 113.065 11.3075 113.234 11.2593L113.333 11.268C114.53 11.2899 115.587 11.1432 116.812 11.2023L117.643 11.187C117.643 11.1651 117.671 11.1432 117.742 11.1235C117.868 11.1366 117.981 11.1344 118.094 11.1147C119.263 11.1344 120.432 11.1476 121.545 11.06C121.996 11.0468 122.446 11.0337 122.911 11.0206C123.136 11.0468 123.39 11.0468 123.63 11.0293C124.404 11.0731 125.137 11.049 125.854 10.9965C126.841 10.9899 127.827 10.9855 128.8 10.9789C129.123 10.9987 129.447 10.9987 129.771 10.9833C131.728 11.0227 133.687 11.0359 135.645 10.9899C139.391 11.0578 143.152 11.0622 146.913 11.0447C148.025 11.1476 149.265 11.1366 150.449 11.1191C151.745 11.0994 152.97 11.1213 154.237 11.1651C156.379 11.2374 158.562 11.233 161.083 11.1848C159.45 10.9768 161.224 10.9702 161.492 10.8716C162.323 10.9001 162.999 10.8366 163.661 10.7753C165.083 10.8388 166.591 10.7512 167.986 10.8432C169.126 10.8256 170.267 10.8256 171.408 10.8497C172.183 10.7556 173.182 10.8541 173.972 10.7753C174.267 10.7775 174.563 10.7796 174.845 10.7818C175.127 10.8103 175.409 10.8103 175.704 10.7884C176.423 10.8213 177.126 10.8213 177.845 10.7928C180 10.8147 182.141 10.8475 184.296 10.8125C186.156 10.8366 188.015 10.8344 189.874 10.8191C190.593 10.8563 191.296 10.841 191.987 10.8103C192.706 10.8191 193.423 10.8256 194.157 10.8344C194.875 10.9023 195.607 10.8979 196.34 10.8453C196.621 10.8607 196.903 10.8585 197.17 10.8366C197.748 10.8694 198.312 10.8651 198.875 10.8322C199.89 10.8607 200.889 10.8694 201.918 10.841C203.481 10.887 205.03 10.9132 206.579 10.8366C206.89 10.8519 207.185 10.8519 207.481 10.83C208.354 10.8607 209.214 10.8322 210.059 10.7994C210.918 10.8278 211.777 10.8366 212.636 10.8125C213.059 10.8432 213.496 10.8453 213.932 10.8147C215.087 10.8388 216.243 10.8673 217.384 10.8081C218.835 10.8278 220.272 10.83 221.68 10.7665C222.412 10.7884 223.117 10.7796 223.834 10.749L224.032 10.7621L224.229 10.7468C224.539 10.7687 224.834 10.7687 225.145 10.7468C225.891 10.784 226.596 10.7687 227.272 10.7118C228.85 10.7315 230.426 10.749 231.991 10.6986C232.835 10.7227 233.708 10.6482 234.54 10.7139C235.103 10.6767 235.695 10.657 236.314 10.6723C236.287 10.6504 236.3 10.6285 236.329 10.6066C235.962 10.5913 235.385 10.5825 234.765 10.5847C235.385 10.5847 235.962 10.5913 236.329 10.6066C236.596 10.6066 236.878 10.6066 237.146 10.6066C237.596 10.6373 238.033 10.6679 238.483 10.6986C238.751 10.692 239.033 10.6877 239.3 10.6811C239.555 10.5935 240.188 10.6198 240.596 10.5782C241.16 10.6066 241.738 10.6132 242.301 10.5803C244.034 10.6198 245.724 10.565 247.428 10.5365C247.878 10.5563 248.315 10.5541 248.753 10.5234C249.076 10.5497 249.386 10.5497 249.64 10.5015C251.386 10.5409 253.091 10.4183 254.822 10.4752C254.95 10.4577 255.077 10.4402 255.203 10.4227C255.485 10.4314 255.78 10.4402 256.062 10.4511C256.682 10.3635 257.555 10.4467 258.204 10.3767C258.795 10.3964 259.373 10.3876 259.937 10.3526C260.232 10.3723 260.528 10.3898 260.81 10.4095C261.231 10.3789 261.795 10.4095 262.133 10.3416C262.852 10.3701 263.542 10.3416 264.233 10.311C265.218 10.3789 266.261 10.3066 267.246 10.3438C267.824 10.2759 268.388 10.2781 268.936 10.3504C269.218 10.3504 269.5 10.3548 269.782 10.357C271.331 10.2803 273.022 10.3263 274.543 10.2168C274.839 10.2168 275.135 10.2124 275.43 10.2102C277.91 10.2584 280.36 10.2343 282.741 10.1095C283.741 10.1292 284.756 10.1555 285.727 10.0919C286.784 10.1182 287.825 10.0919 288.812 10.0372C290.755 9.9255 292.741 9.90359 294.784 9.94521C295.066 9.94521 295.347 9.94083 295.629 9.93864C295.77 9.91455 295.911 9.89045 296.065 9.86417C295.982 9.84665 295.882 9.83351 295.77 9.82475C295.868 9.83351 295.967 9.84665 296.065 9.86417C297.08 9.88826 298.08 9.87731 299.067 9.84665C299.643 9.86417 300.22 9.88169 300.813 9.9014L301.657 9.89045C301.657 9.86636 301.672 9.84446 301.686 9.82037C302.559 9.82913 303.432 9.8357 304.278 9.78971C304.518 9.80504 304.715 9.79847 304.856 9.76562C305.532 9.78533 306.193 9.76562 306.841 9.74372C307.587 9.77657 308.321 9.79409 308.997 9.71086C309.264 9.73495 309.644 9.70867 309.828 9.76343C310.235 9.73057 310.757 9.76124 311.124 9.70429C311.265 9.7021 311.406 9.69772 311.532 9.69553C312.109 9.72181 312.687 9.72619 313.25 9.69115C314.222 9.76562 315.279 9.68677 316.279 9.73057C316.701 9.66487 317.137 9.66706 317.616 9.71524C318.589 9.66487 319.588 9.67363 320.589 9.67582C320.73 9.64954 320.857 9.62545 320.998 9.59917C321.688 9.62983 322.377 9.64297 323.082 9.61669C323.167 9.60355 323.251 9.59041 323.349 9.57946C323.266 9.59041 323.181 9.60136 323.082 9.61669C323.11 9.63859 323.125 9.66049 323.125 9.68239C323.857 9.66487 324.575 9.66487 325.307 9.68677C325.307 9.66487 325.307 9.64297 325.336 9.62326C325.054 9.57727 324.772 9.5466 324.504 9.53565C324.786 9.54879 325.068 9.57727 325.336 9.62326C326.026 9.62326 326.702 9.62764 327.392 9.62764C327.421 9.64735 327.42 9.66706 327.407 9.68677C328.124 9.67144 328.871 9.73276 329.576 9.67363C329.984 9.69334 330.393 9.71305 330.787 9.73276C331.125 9.69115 331.448 9.69115 331.773 9.73714C331.9 9.71962 332.026 9.69991 332.139 9.68239C333.379 9.7459 334.716 9.64735 335.943 9.74372C336.576 9.70429 337.196 9.70648 337.787 9.75905C338.45 9.7021 339.153 9.7021 339.887 9.724C339.887 9.7021 339.887 9.6802 339.943 9.6583C340.787 9.68677 341.633 9.68896 342.464 9.6583C343.21 9.69772 344.013 9.71743 344.745 9.68896C346.14 9.63202 347.183 9.72181 348.197 9.84665C348.422 9.84884 348.647 9.85322 348.873 9.85541C349.775 9.79409 350.634 9.80066 351.436 9.89264C351.747 9.89264 352.042 9.89264 352.352 9.89264C352.746 9.82256 353.197 9.81818 353.69 9.86636C353.943 9.84227 354.183 9.84227 354.409 9.87074C356.746 9.82913 359.099 9.83789 361.438 9.83351C361.93 9.83351 362.437 9.83789 362.931 9.83351C363.226 9.83351 363.479 9.80504 363.551 9.75686C363.649 9.69115 363.395 9.64735 363.014 9.63859C361.677 9.60793 360.423 9.50937 359.029 9.53784C358.366 9.55098 357.76 9.53784 357.198 9.47433C356.676 9.41739 357.001 9.36044 357.142 9.30131C358 9.3035 358.803 9.37139 359.69 9.34511C359.79 9.33416 359.873 9.3254 359.972 9.31664C360.155 9.30131 360.339 9.28817 360.522 9.28379C360.339 9.28817 360.155 9.29912 359.972 9.31664C359.873 9.3254 359.79 9.33416 359.69 9.34511C360.395 9.38234 361.099 9.40863 361.845 9.3692C362.141 9.38672 362.423 9.38234 362.691 9.35825C363.607 9.4152 364.395 9.27065 365.311 9.31445C365.705 9.25313 366.141 9.27065 366.564 9.30131C366.902 9.24875 367.184 9.26408 367.395 9.32321C367.706 9.32321 368.001 9.32321 368.31 9.32321C368.31 9.30131 368.311 9.27941 368.325 9.25532C369.002 9.26627 369.678 9.27503 370.354 9.28598C370.916 9.35387 371.536 9.32759 372.142 9.31007C372.438 9.32321 372.734 9.33854 373.029 9.35168C373.184 9.33635 373.325 9.31883 373.481 9.3035C373.593 9.31664 373.705 9.33197 373.833 9.34511C374.354 9.33635 374.875 9.32759 375.396 9.31883C375.312 9.34511 375.241 9.3692 375.156 9.39548C375.875 9.38672 376.579 9.39329 377.242 9.44367C378.241 9.38672 379.284 9.42834 380.298 9.41301C380.523 9.37139 380.734 9.34949 380.918 9.34292C380.734 9.34949 380.523 9.37358 380.298 9.41301C380.298 9.4371 380.298 9.459 380.298 9.48309C380.58 9.49185 380.862 9.49842 381.143 9.50718L381.622 9.459C382.776 9.48747 383.833 9.3254 385.016 9.41958C385.467 9.53346 386.087 9.5247 386.763 9.47652C387.468 9.49185 388.144 9.46557 388.82 9.4371C389.693 9.34949 390.073 9.33197 390.539 9.3933C390.087 9.33197 389.707 9.35168 388.82 9.4371C389.51 9.50937 390.228 9.54879 391.031 9.4809C391.341 9.46995 391.651 9.459 391.961 9.44805L392.158 9.45243L392.312 9.43272C395.173 9.54222 398.045 9.5028 400.919 9.45462C401.75 9.52689 402.356 9.41082 403.075 9.3911C403.285 9.29912 403.877 9.29912 404.342 9.26627C404.497 9.26627 404.651 9.26189 404.807 9.2597C404.68 9.23561 404.553 9.21151 404.412 9.18742L404.807 9.2597C404.877 9.2816 404.976 9.28379 405.103 9.27065C405.891 9.20275 406.695 9.15676 407.525 9.12391C406.708 9.15676 405.891 9.20275 405.103 9.27065C405.567 9.45462 406.567 9.36701 407.371 9.37577C407.638 9.459 407.892 9.54222 408.159 9.62545C408.47 9.62545 408.793 9.62983 409.103 9.62983C409.497 9.53784 409.905 9.54441 410.328 9.62545C411.06 9.62545 411.794 9.62545 412.526 9.62545C413.385 9.5247 414.23 9.52251 415.047 9.6364C415.92 9.61669 416.779 9.6145 417.653 9.6364C418.019 9.55755 418.498 9.56631 418.962 9.60355C419.737 9.66487 420.78 9.55317 421.357 9.67582C421.949 9.80066 420.793 9.91455 421.033 10.0481C421.625 10.0525 422.23 10.0635 422.766 10.0065C426.611 10.0898 430.484 10.0262 434.344 10.0525C434.612 9.99558 434.921 9.99558 435.274 10.035L435.64 9.98901C436.204 9.99777 436.781 10.0043 437.345 10.0131C438.007 9.94302 438.809 9.97587 439.528 9.93864C440.528 9.94302 441.529 9.9474 442.528 9.95178C442.528 10.046 442.514 10.1423 442.5 10.2365C442.937 10.2365 443.36 10.2343 443.796 10.2321C443.993 10.1752 444.316 10.1708 444.683 10.1861C445.543 10.1817 446.387 10.1752 447.246 10.1708C447.416 10.1029 447.725 10.0876 448.148 10.1117C448.838 10.0876 449.514 10.1029 450.19 10.1292C451.247 10.0963 452.29 10.0898 453.332 10.1423C453.712 10.1226 454.107 10.1204 454.486 10.1423C455.092 10.1073 455.699 10.07 456.304 10.035C456.247 9.98901 456.12 9.95835 455.966 9.94083C456.12 9.96054 456.247 9.9912 456.304 10.035C456.713 10.0306 457.107 10.0284 457.515 10.0241C457.825 9.96492 458.135 9.93207 458.459 9.92112C458.135 9.93207 457.81 9.96492 457.515 10.0241C457.684 10.0416 457.853 10.0591 458.022 10.0788C458.741 10.0547 459.444 10.0525 460.163 10.0744C460.163 10.0481 460.163 10.0219 460.163 9.99777C459.699 9.95178 459.247 9.91893 458.797 9.91893C459.234 9.91893 459.699 9.95178 460.163 9.99777C460.6 10.0043 461.051 9.9693 461.473 10.0131C461.6 9.99996 461.712 9.98682 461.839 9.97368C462.361 10.0394 463.008 10.0109 463.601 10.0241C463.601 9.99777 463.614 9.97149 463.628 9.94521C464.037 9.93426 464.431 9.92331 464.839 9.91016C465.206 9.93645 465.515 9.9255 465.77 9.8795C466.066 9.88826 466.361 9.89702 466.657 9.90578C467.362 9.87074 468.051 9.87512 468.741 9.91455C469.122 9.86198 469.77 9.89702 470.08 9.82037C470.22 9.80942 470.361 9.79628 470.502 9.78533C470.925 9.79628 471.347 9.80723 471.783 9.81818L471.939 9.84008H472.15C472.587 9.86636 473.037 9.85979 473.489 9.85322C473.939 9.91016 474.291 9.87731 474.615 9.82256C477.122 9.77657 479.616 9.85103 482.123 9.86198C482.39 9.85103 482.658 9.83789 482.926 9.82694C483.081 9.84665 483.236 9.86417 483.39 9.88388C483.686 9.85541 484.01 9.84665 484.348 9.8576C484.489 9.78971 485.165 9.8138 485.221 9.73276C485.616 9.70648 486.011 9.67801 486.405 9.65173C486.546 9.57946 486.954 9.60136 487.278 9.5926C487.827 9.64078 488.377 9.68896 488.926 9.73714C489.828 9.82037 490.602 9.84884 491.194 9.66487C491.603 9.53784 492.434 9.53565 493.251 9.54879C494.673 9.57069 496.082 9.55755 497.49 9.52908C497.913 9.48747 498.364 9.48747 498.829 9.50499C500.434 9.48309 502.04 9.49185 503.645 9.52251C503.899 9.52251 504.153 9.5247 504.406 9.52689C504.927 9.46776 504.871 9.40644 504.435 9.34511C504.04 9.32321 503.631 9.29912 503.237 9.27722C502.801 9.30131 502.476 9.28598 502.364 9.20932C500.772 9.20275 499.194 9.28817 497.603 9.21808C496.66 9.24437 495.772 9.20275 494.856 9.17428C493.236 9.12172 491.574 9.09763 489.996 9.18742C488.165 9.29255 486.405 9.29255 484.559 9.19837C482.658 9.10201 480.784 9.1042 479.108 9.31007C478.841 9.31664 478.573 9.3254 478.306 9.33197C476.122 9.28817 473.968 9.28817 471.826 9.37139C471.559 9.37796 471.277 9.38453 471.009 9.38891C470.234 9.3473 469.473 9.33635 468.784 9.42834C468.22 9.4152 467.671 9.41301 467.122 9.43929C466.079 9.42834 465.023 9.41958 463.995 9.40205C462.628 9.37796 461.36 9.41739 460.178 9.5247C459.755 9.5247 459.318 9.52251 458.896 9.52032C458.445 9.44586 457.853 9.46776 457.304 9.46338C455.079 9.45024 452.838 9.48966 450.656 9.39987C449.29 9.34511 448.007 9.33635 446.852 9.48309C446.148 9.48966 445.444 9.49404 444.739 9.50061C443.951 9.44367 443.204 9.44367 442.556 9.54879C442.133 9.55317 441.726 9.55755 441.303 9.56412C440.499 9.51594 439.781 9.50718 439.344 9.65173C439.232 9.65173 439.147 9.66049 439.091 9.67363C437.95 9.67363 436.837 9.67582 435.711 9.62107C434.88 9.57946 433.893 9.53784 433.076 9.65392C432.794 9.65392 432.528 9.65392 432.246 9.65392C432.02 9.55317 432.485 9.48309 432.696 9.40205C433.132 9.40205 433.626 9.39987 433.866 9.34073C434.823 9.10858 436.217 9.13267 437.654 9.1699C438.583 9.36482 439.725 9.31007 440.88 9.23561C442.584 9.20932 444.303 9.2816 445.993 9.20494C446.148 9.20275 446.303 9.20056 446.472 9.19837C448.444 9.2597 450.43 9.2137 452.416 9.22027C453.431 9.30569 454.627 9.28379 455.543 9.24218C457.205 9.1699 458.994 9.22904 460.557 9.09544C460.727 9.08011 461.009 9.06697 461.163 9.07792C463.798 9.27503 466.404 9.07792 468.994 9.05383C472.46 9.02097 475.882 8.90709 479.376 8.95746C480.081 8.96841 480.813 8.97936 481.517 8.96403C485.25 8.88956 489.025 8.87642 492.772 8.84795C494.11 8.837 495.434 8.75159 496.799 8.82386C497.504 8.78006 498.095 8.85452 498.758 8.86328C498.87 8.76692 499.335 8.74502 499.857 8.74283C501.758 8.73188 503.687 8.74721 505.519 8.63551C505.787 8.62018 506.069 8.64865 506.237 8.68807C506.801 8.69245 507.378 8.69902 507.942 8.7034C508.858 8.67274 509.787 8.62675 510.519 8.76692C510.942 8.76692 511.365 8.76692 511.787 8.76911C512.984 8.6377 514.266 8.58514 515.688 8.66179C516.393 8.65741 517.112 8.65522 517.816 8.65084C519.379 8.526 520.985 8.5939 522.591 8.61799C522.858 8.61361 523.14 8.60704 523.408 8.60266C523.605 8.53914 523.915 8.52819 524.309 8.55886C524.732 8.5501 525.141 8.54352 525.562 8.53476C525.775 8.43621 526.577 8.49096 526.986 8.39241C525.126 8.37051 523.521 8.21939 521.676 8.24786H520.915C519.633 8.27852 518.309 8.27852 517.083 8.36393C516.633 8.3946 516.154 8.40336 515.661 8.37708C515.393 8.38584 515.126 8.3946 514.844 8.40336C514.392 8.46906 513.956 8.46468 513.534 8.39898C513.111 8.3946 512.688 8.39022 512.266 8.38584C511.477 8.47782 510.59 8.5041 509.617 8.48877C506.266 8.53257 502.913 8.49972 499.575 8.48877C498.786 8.48658 498.012 8.48877 497.222 8.49096C496.998 8.54571 496.673 8.5501 496.307 8.53038C495.476 8.56762 494.63 8.56105 493.786 8.55886C493.533 8.61142 493.222 8.61361 492.87 8.58733C491.462 8.6377 490.039 8.60704 488.63 8.61142C487.898 8.69026 487.18 8.68369 486.448 8.61142C485.011 8.56543 483.56 8.67712 482.137 8.59171C480.968 8.55229 479.869 8.67493 478.7 8.62675C478.277 8.63332 477.869 8.6377 477.447 8.64427C476.348 8.74283 475.221 8.79977 473.981 8.70997C473.489 8.70997 473.066 8.67931 472.685 8.63332C472.193 8.63332 471.671 8.62237 471.221 8.63989C469.531 8.70778 468.136 8.63332 466.883 8.43621C467.431 8.30261 468.235 8.30699 469.052 8.35079C469.741 8.38803 470.29 8.38803 470.615 8.26976C471.445 8.27414 472.291 8.28728 473.108 8.25443C473.643 8.32232 474.375 8.27195 474.939 8.32232C476.066 8.28509 477.263 8.3267 478.348 8.24129C478.348 8.2172 478.348 8.1931 478.348 8.1712C477.024 8.1712 475.7 8.16901 474.375 8.1712C475.7 8.1712 477.024 8.1712 478.348 8.1712C478.926 8.16682 479.517 8.16244 480.095 8.15806C480.531 8.28071 481.447 8.19091 481.996 8.26319L482.165 8.25881H482.334C482.432 8.23034 482.546 8.19968 482.644 8.16901C482.432 8.1493 482.221 8.13616 482.011 8.12521C482.221 8.13397 482.432 8.1493 482.644 8.16901C482.926 8.16463 483.207 8.15806 483.475 8.15368C484.066 8.17339 484.658 8.19529 485.264 8.21501C485.461 8.19748 485.658 8.17777 485.855 8.16025C486.011 8.11864 486.166 8.07703 486.307 8.03761C486.898 8.03323 487.475 8.03104 488.067 8.02885C488.123 8.05951 488.194 8.09017 488.25 8.12083C488.814 8.12302 489.391 8.12521 489.954 8.1274C490.377 8.0836 490.813 8.0398 491.25 7.99599C490.968 7.9719 490.701 7.96314 490.433 7.96095C490.701 7.96095 490.968 7.9719 491.25 7.99599C491.827 7.99818 492.434 7.96314 492.996 8.01789L492.955 7.98723C493.8 8.0398 494.701 7.98723 495.546 8.02227C496.194 7.95657 497.137 8.05951 497.688 7.93467C498.095 7.92591 498.518 7.91715 498.927 7.90839C499.561 7.95438 500.152 7.94781 500.716 7.88211C501.166 7.89525 501.617 7.9062 502.068 7.91934C502.026 7.90839 501.997 7.89963 501.983 7.88649C502.406 7.92591 502.857 7.88868 503.293 7.89744C503.293 7.86897 503.279 7.84049 503.266 7.80983C503.561 7.80983 503.857 7.80545 504.153 7.80326L504.618 7.85363C505.321 7.84706 506.026 7.84268 506.73 7.83611C506.73 7.81202 506.73 7.79012 506.73 7.76603C506.998 7.76165 507.266 7.75727 507.547 7.7507C507.688 7.7288 507.829 7.70909 507.97 7.69376C507.829 7.70909 507.688 7.72661 507.547 7.7507C508.773 7.73537 510.125 7.86678 511.224 7.68061C511.477 7.685 511.73 7.68719 511.97 7.69157C512.646 7.64776 513.337 7.6171 514.054 7.66747C515.168 7.63024 516.323 7.67623 517.421 7.62148C519.041 7.70033 520.633 7.63462 522.238 7.59958C523.408 7.5952 524.605 7.64557 525.746 7.5733L525.929 7.57987L526.084 7.56016C526.534 7.54702 526.986 7.53388 527.436 7.52074C527.478 7.54045 527.563 7.57768 527.577 7.57768C528.788 7.5295 530.098 7.59958 531.253 7.49883C532.085 7.49007 532.943 7.50979 533.76 7.46598C534.845 7.57987 535.591 7.45065 536.423 7.374C536.831 7.36962 537.254 7.36524 537.662 7.36305C538.071 7.39371 538.353 7.36524 538.578 7.31267C539.128 7.29734 539.676 7.2842 540.212 7.26887C541.818 7.36524 543.029 7.21193 544.297 7.1068C544.677 7.07614 544.635 6.99291 544.621 6.92721C544.93 6.91188 545.241 6.89655 545.55 6.88122L545.761 6.88779L545.931 6.86808C546.339 6.85713 546.748 6.84837 547.142 6.83742C547.522 6.87027 547.832 6.85713 548.071 6.80018C549.804 6.81332 551.55 6.74324 553.255 6.83304C553.522 6.81989 553.777 6.80675 554.044 6.79361C554.298 6.83304 554.636 6.82866 554.959 6.83304C554.959 6.80894 554.959 6.78266 554.959 6.75857C554.847 6.73886 554.748 6.72353 554.65 6.71477C554.748 6.72353 554.847 6.73667 554.959 6.75857C555.382 6.75857 555.805 6.75857 556.228 6.75857C556.228 6.78047 556.228 6.80237 556.228 6.82647C556.805 6.82647 557.368 6.83085 557.945 6.83304C557.945 6.80894 557.945 6.78485 557.945 6.76076C557.664 6.71477 557.368 6.69506 557.086 6.69506C557.368 6.69506 557.664 6.71696 557.945 6.76076C558.932 6.75419 559.904 6.74762 560.889 6.74105C562.637 6.75857 564.383 6.81551 566.116 6.71477C568.946 6.70601 571.764 6.69506 574.595 6.6863C574.989 6.80456 573.693 6.86151 574.159 6.99072C576.51 7.04986 578.863 6.93816 581.229 6.98415C582.2 6.99072 583.158 6.99729 584.116 7.00387C584.624 7.04329 585.088 7.04767 585.511 6.97758C587.131 6.97101 588.723 7.02139 590.301 7.0411C592.511 7.06957 594.821 7.1068 597.075 7.01701C597.836 6.98634 598.611 6.98415 599.385 7.02139C601.978 7.14622 604.583 7.22945 607.316 7.15279C607.471 7.1747 607.612 7.20317 607.78 7.21631C608.161 7.24697 608.611 7.27106 608.429 7.35867C608.302 7.42218 607.894 7.42437 607.541 7.42656C606.681 7.43094 605.808 7.4397 605.006 7.38495C603.921 7.31048 603.16 7.3959 602.034 7.51416C604.315 7.59082 606.33 7.59739 608.203 7.60396C609.88 7.61053 611.57 7.64995 613.26 7.64338C614.021 7.64119 614.823 7.66309 615.429 7.75727C615.696 7.77041 615.978 7.78355 616.246 7.79888C617.049 7.77041 617.795 7.82735 618.556 7.8383C619.768 7.85582 621.007 7.9062 622.288 7.80983C621.641 7.67185 621.106 7.58863 620.021 7.56454C617.556 7.51197 615.105 7.46817 612.613 7.45941C611.373 7.45503 609.949 7.44627 609.598 7.18346C609.119 7.17908 608.668 7.11994 608.189 7.1068C608.668 7.11994 609.119 7.17689 609.598 7.18346C610.823 7.22726 612.062 7.21193 613.302 7.22507C613.443 7.22726 613.598 7.23164 613.739 7.23383C614.162 7.23383 614.598 7.22945 615.02 7.22726C615.541 7.26011 615.978 7.25135 616.274 7.16813C616.725 7.16594 617.175 7.16374 617.627 7.16155C618.035 7.22726 618.458 7.24916 618.894 7.16593C619.302 7.16155 619.711 7.15717 620.119 7.15279C622.5 7.21193 624.894 7.26887 627.275 7.33457C628.415 7.36524 629.501 7.37619 630.613 7.31486C631.529 7.2623 632.444 7.28201 633.318 7.34552C633.656 7.36962 633.881 7.41342 633.825 7.47693C633.783 7.53388 633.472 7.54264 633.205 7.5514C632.501 7.57549 631.768 7.59082 631.106 7.70909C634.22 7.77479 637.078 7.68937 639.91 7.76822C640.192 7.76384 640.459 7.75946 640.741 7.75508C640.826 7.63462 640.248 7.58644 639.769 7.51855C639.319 7.45503 638.515 7.46379 638.206 7.31486C642.952 7.1506 647.474 7.27763 651.967 7.45722C652.601 7.44408 653.136 7.49007 653.671 7.53169C654.207 7.52512 654.756 7.51198 655.291 7.51198C655.77 7.51198 655.84 7.47255 655.813 7.41342C655.545 7.40466 655.278 7.39371 655.009 7.38495C654.573 7.40904 654.165 7.37838 653.771 7.35867C648.291 7.08052 642.657 6.98853 636.91 7.02796C634.614 7.04329 632.275 6.89436 630.022 7.08271C629.754 7.10461 629.304 7.09147 628.979 7.07395C625.303 6.87684 621.189 7.07395 617.654 6.76295C617.556 6.75419 617.387 6.76733 617.247 6.77171C617.189 6.75857 617.091 6.74981 616.978 6.752C616.978 6.64906 616.063 6.60526 616.274 6.4629C617.345 6.41253 618.344 6.46728 619.176 6.56803C619.866 6.65125 620.19 6.65125 620.965 6.57241C622.754 6.38844 624.712 6.24608 626.81 6.50452C627.26 6.55927 627.895 6.55708 628.458 6.52423C628.881 6.52642 629.29 6.52861 629.711 6.53299C630.501 6.58774 631.233 6.57022 631.952 6.50014C633.783 6.58555 635.656 6.58336 637.544 6.5746C638.388 6.64906 639.417 6.69068 640.206 6.62935C641.361 6.53956 642.319 6.487 643.445 6.62935C643.713 6.66221 644.291 6.6644 644.6 6.60088C644.714 6.57898 644.755 6.53737 644.714 6.51109C644.573 6.42348 644.094 6.43443 643.685 6.43881C641.502 6.46947 639.727 6.28331 637.839 6.16724C636.966 6.11248 637.571 6.03364 637.967 5.97232C638.994 5.96794 640.009 6.07306 641.023 6.00955C642.051 5.94603 642.91 5.99422 643.798 6.05773C644.206 6.27455 645.052 6.09496 645.67 6.10591C646.234 6.12343 646.812 6.14315 647.375 6.16067C647.798 6.43443 649.164 6.51328 650.713 6.52642C651.855 6.53518 652.911 6.54394 653.982 6.63592C654.953 6.72134 656.178 6.71696 657.306 6.71915C657.658 6.71915 657.996 6.6863 658.009 6.6184C658.009 6.56584 657.742 6.54175 657.474 6.5308C656.249 6.47823 655.15 6.37092 653.798 6.38625C652.404 6.40377 651.136 6.31617 650.024 6.19133C649.431 6.12562 648.643 6.05554 648.981 5.89785C649.234 5.90442 649.489 5.91099 649.728 5.91537C650.08 5.97232 650.432 6.02926 650.854 5.92851C651.347 5.91537 651.84 5.90442 652.249 5.95917C653.192 6.08839 654.362 6.11248 655.531 6.13876C656.052 6.2198 656.672 6.20009 657.306 6.18257C657.855 6.21323 658.405 6.24608 658.967 6.27674C659.222 6.34245 659.517 6.34245 659.84 6.28769C660.715 6.28769 661.532 6.32931 662.32 6.37968C665.293 6.56365 668.279 6.74762 671.532 6.76733C671.982 6.76952 672.391 6.80018 672.673 6.85056C673.392 6.98415 674.335 7.00168 675.378 7.00168C676.081 7.00168 676.786 7.03015 677.476 7.05643C684.561 7.33238 691.688 7.54483 699.042 7.51198C700.506 7.5054 701.858 7.47474 703.098 7.34772C703.675 7.35867 704.211 7.36086 704.394 7.24916C704.521 7.23821 704.662 7.22507 704.788 7.21412C706.971 7.1287 709.042 7.01044 711 6.80018C710 6.73229 709.169 6.84399 708.323 6.79142L708.423 6.7958ZM361.662 1.49131C361.761 1.49131 361.859 1.49131 361.944 1.4935C361.845 1.4935 361.747 1.4935 361.662 1.49131ZM293.15 0.91312C293.009 0.91312 292.868 0.91312 292.727 0.91312C292.868 0.91531 293.009 0.91531 293.15 0.91312ZM277.868 1.47379C277.868 1.47379 277.796 1.46065 277.754 1.45189C277.868 1.44532 277.966 1.43656 278.078 1.43437C278.107 1.43437 278.148 1.44751 278.191 1.45627C278.078 1.46284 277.98 1.4716 277.868 1.47379ZM72.0198 5.20139C72.0339 5.12474 71.9071 5.07436 71.3577 5.07217C71.2874 5.09188 71.2169 5.1116 71.1606 5.13131C71.231 5.1116 71.3015 5.09188 71.3577 5.07217C71.2733 4.92324 72.1888 4.89696 72.6677 4.81812C73.8087 4.79841 74.9496 4.7787 76.0906 4.75898C76.6258 4.85973 77.2737 4.89696 78.1329 4.88601C79.6542 4.86849 79.6683 4.87506 78.9077 5.1335C77.0201 5.16854 75.2736 5.27147 73.5129 5.3766C71.9916 5.46859 71.9493 5.45763 72.0198 5.20139ZM53.2578 5.41164C53.3001 5.38536 53.3704 5.35908 53.4832 5.34156C53.3704 5.35908 53.314 5.38536 53.2578 5.41164ZM63.5543 5.14664C63.5543 5.14664 63.5966 5.13131 63.6389 5.12474C63.991 5.03275 64.5544 5.06341 65.0615 5.06341C64.5544 5.06341 63.991 5.03275 63.6389 5.12693C63.5966 5.1335 63.5684 5.14007 63.5543 5.14883V5.14664ZM13.7898 9.09982C13.4095 9.24656 12.3108 9.38672 11.184 9.43272C12.3108 9.38672 13.4095 9.24437 13.7898 9.09982ZM42.7358 11.3622C42.8203 11.3666 42.919 11.3732 43.0034 11.3841C42.919 11.3754 42.8344 11.3688 42.7358 11.3622ZM380.608 2.33013C380.678 2.33013 380.763 2.33013 380.833 2.32794C380.763 2.32794 380.678 2.32794 380.608 2.33013ZM384.889 1.53731C385.073 1.52636 385.27 1.50226 385.453 1.46065C385.256 1.50007 385.073 1.52636 384.889 1.53731C384.763 1.54388 384.65 1.54388 384.524 1.53731C384.636 1.54607 384.763 1.54607 384.889 1.53731ZM364.48 2.53381C364.48 2.53381 364.522 2.53381 364.536 2.52943C364.522 2.53162 364.494 2.53162 364.48 2.53381ZM364.424 2.5382C364.424 2.5382 364.353 2.53381 364.31 2.52943C364.339 2.536 364.381 2.5382 364.424 2.5382ZM252.301 1.98847C252.358 1.99942 252.429 2.01037 252.471 2.02571C252.429 2.01037 252.358 2.00161 252.301 1.98847ZM252.133 1.95343C251.992 1.93372 251.822 1.91839 251.625 1.90963C251.822 1.92058 251.992 1.93591 252.133 1.95343ZM222.877 1.95343C222.764 1.97971 222.652 2.01475 222.524 2.03228C222.652 2.01256 222.75 1.97752 222.877 1.95343ZM181.606 2.18558C181.324 2.18777 181.043 2.18996 180.761 2.19215C180.226 2.13521 179.648 2.0936 179.029 2.07389C179.648 2.0936 180.226 2.13302 180.761 2.19215C181.043 2.19215 181.324 2.18777 181.606 2.18558ZM179.423 2.61266C178.972 2.52943 178.38 2.53381 177.789 2.53381C178.38 2.53381 178.957 2.52943 179.423 2.61266ZM175.676 2.52505C175.225 2.53381 174.76 2.52505 174.296 2.51848C174.76 2.52286 175.225 2.53381 175.676 2.52505C175.83 2.52286 175.971 2.51629 176.112 2.50753C176 2.44402 175.901 2.38051 175.789 2.31918C176.155 2.31042 176.521 2.29947 176.887 2.29071C177.014 2.36737 176.929 2.44183 176.761 2.5141C176.549 2.5141 176.324 2.50972 176.112 2.50972C175.971 2.51848 175.817 2.52505 175.676 2.52724V2.52505ZM163.632 1.63148C163.196 1.63148 162.773 1.6271 162.336 1.62491C161.534 1.66433 160.449 1.65776 159.506 1.61396C160.449 1.65557 161.548 1.66433 162.336 1.62491C162.773 1.62491 163.196 1.62929 163.632 1.63148C164.069 1.70157 164.604 1.70157 165.125 1.69719C164.59 1.70157 164.069 1.70157 163.632 1.63148ZM182.38 1.2066C182.268 1.2066 182.156 1.2066 182.057 1.20222C182.169 1.20441 182.268 1.2066 182.38 1.2066ZM144.687 1.97533L145.124 1.97971C145.56 1.9819 145.983 1.98409 146.42 1.98847C146.561 1.98847 146.702 1.98847 146.829 1.98847C147.11 1.98847 147.407 1.98628 147.687 1.98409C147.843 1.98409 147.984 1.98409 148.139 1.9819C148.969 1.98847 149.8 2.00161 150.617 1.96C150.843 1.8724 151.237 1.85926 151.66 1.86145C151.237 1.86145 150.843 1.8724 150.617 1.96C151.815 2.03009 153.364 2.04323 153.252 2.3367C152.97 2.34108 152.674 2.34546 152.392 2.34984C150.59 2.19654 148.674 2.23596 146.758 2.27757C141.18 2.29509 135.616 2.18339 130.038 2.2272C129.996 2.24472 129.926 2.25786 129.841 2.26881C129.926 2.25786 129.996 2.24253 130.038 2.2272C129.63 2.11769 129.024 2.19215 128.518 2.19215C127.249 2.19215 126.038 2.26005 124.728 2.22063C123.658 2.18777 123.249 2.11331 123.362 1.95562C123.742 1.9381 124.108 1.92058 124.489 1.90306C124.644 1.90306 124.784 1.90087 124.939 1.89868C127.827 1.91182 130.714 1.92934 133.616 1.94029C134.307 1.94248 135.039 1.95343 135.715 1.90963C136.292 1.94248 136.856 1.9381 137.405 1.89649C139.842 1.92277 142.265 1.94905 144.702 1.97533H144.687ZM140.546 2.45935C140.546 2.45935 140.476 2.46373 140.434 2.4703C140.462 2.46373 140.504 2.46154 140.546 2.45935ZM124.517 1.88554C124.517 1.88554 124.517 1.88116 124.517 1.87678C124.517 1.87897 124.517 1.88116 124.517 1.88554ZM123.193 11.0206C123.193 11.0206 123.305 11.0249 123.376 11.0293C123.32 11.0249 123.263 11.0206 123.193 11.0206ZM124.418 2.67179C124.615 2.67179 124.813 2.6696 125.01 2.66741C124.813 2.66741 124.615 2.6696 124.418 2.67179ZM132.616 10.9614C133.109 10.9614 133.588 10.968 134.081 10.9768C133.588 10.968 133.109 10.9636 132.616 10.9614ZM144.631 2.70464C144.195 2.62361 143.758 2.6258 143.335 2.70464C142.194 2.70683 141.04 2.70026 139.912 2.74407C139.899 2.80101 139.814 2.8689 139.617 2.90833C139.814 2.8689 139.885 2.80101 139.912 2.74407C138.771 2.68712 137.631 2.66084 136.447 2.71998C135.447 2.69588 134.448 2.68931 133.461 2.73531C131.884 2.7156 130.293 2.69588 128.715 2.67617C128.447 2.64551 128.165 2.64551 127.884 2.67179C127.869 2.69588 127.842 2.71998 127.827 2.74407C127.517 2.80101 127.573 2.84262 127.827 2.86233C127.56 2.84262 127.517 2.80101 127.827 2.74407C127.842 2.71998 127.869 2.69588 127.884 2.67179C127.249 2.65646 126.602 2.64332 125.968 2.62799C125.742 2.54039 125.601 2.46811 126.391 2.42212C127.334 2.36956 128.306 2.41117 129.25 2.38927C131.898 2.43088 134.602 2.36517 137.208 2.48344C138.251 2.52943 139.279 2.53381 140.335 2.49439C140.49 2.4922 140.645 2.49001 140.8 2.48782C143.167 2.50534 145.533 2.52505 147.913 2.54258C147.899 2.59514 147.886 2.6477 147.871 2.70026C147.73 2.70026 147.66 2.70902 147.646 2.73093C147.687 2.77911 147.814 2.80977 147.984 2.82948C147.801 2.80977 147.673 2.77911 147.646 2.73093C146.646 2.72217 145.645 2.71341 144.645 2.70464H144.631ZM163.985 2.58419C163.872 2.63894 163.661 2.68712 163.252 2.68712C163.661 2.68712 163.858 2.63894 163.985 2.58419C164.843 2.582 165.703 2.57762 166.562 2.57324C166.703 2.63456 166.844 2.69588 166.971 2.75502C166.844 2.69369 166.703 2.63237 166.562 2.57324C165.703 2.57762 164.843 2.57981 163.985 2.58419ZM172.563 2.60171C171.704 2.59952 170.845 2.59514 169.985 2.59295C169.887 2.54696 169.647 2.50096 169.676 2.45278C169.647 2.49877 169.887 2.54696 169.985 2.59295C170.845 2.59514 171.704 2.59952 172.563 2.60171C173.352 2.64332 174.113 2.68493 174.775 2.76159C174.113 2.68274 173.352 2.64113 172.563 2.60171ZM187.62 2.63894C187.761 2.65427 187.902 2.65865 188.03 2.65427C187.889 2.65865 187.761 2.65427 187.62 2.63894ZM189.649 2.45497C189.395 2.46811 189.156 2.47906 188.903 2.4922C188.621 2.4922 188.325 2.48782 188.043 2.48782C186.973 2.37613 185.986 2.48125 184.959 2.51191C183.676 2.46373 182.423 2.49658 181.169 2.536C180.705 2.43964 179.774 2.52505 179.268 2.41993C180.437 2.32575 181.662 2.31918 182.902 2.31918C183.493 2.31918 184.184 2.3586 184.592 2.2491C186.127 2.29071 187.649 2.22939 189.185 2.24253C189.339 2.30385 189.48 2.36298 189.635 2.42431L189.564 2.44183L189.649 2.45716C189.761 2.48563 189.888 2.50753 190.015 2.52505C189.874 2.50972 189.761 2.48782 189.649 2.45716V2.45497ZM190.748 2.55572C190.578 2.55572 190.423 2.55572 190.269 2.54477C190.423 2.55353 190.593 2.55791 190.748 2.55572ZM208.65 10.738C208.862 10.738 209.086 10.749 209.312 10.7621C209.086 10.749 208.876 10.738 208.65 10.738ZM223.778 10.7665C223.834 10.7534 223.891 10.7468 223.961 10.7468C223.905 10.7468 223.849 10.7556 223.778 10.7665ZM256.738 10.3263C256.866 10.3263 256.992 10.3329 257.133 10.3394C256.992 10.3329 256.852 10.3285 256.738 10.3263ZM260.893 10.2672C260.978 10.2672 261.049 10.2672 261.133 10.2715C261.049 10.2672 260.964 10.2672 260.893 10.2672ZM323.448 9.58603C323.604 9.5685 323.758 9.55755 323.913 9.55098C323.758 9.55755 323.604 9.57069 323.448 9.58603ZM332.843 2.62799C332.421 2.62799 331.985 2.62799 331.562 2.6258C331.985 2.6258 332.421 2.6258 332.843 2.62799ZM367.155 9.1918C367.254 9.19618 367.339 9.20056 367.437 9.20494C367.339 9.20056 367.254 9.19399 367.155 9.1918ZM371.804 9.19399C372.396 9.17209 372.946 9.18961 373.466 9.24437C372.946 9.18961 372.409 9.17209 371.804 9.19399ZM465.108 9.8576C465.108 9.8576 465.248 9.84227 465.333 9.84446C465.248 9.84446 465.177 9.84665 465.108 9.8576ZM464.882 9.91893C464.91 9.90797 464.938 9.89702 464.98 9.88826C464.953 9.89702 464.924 9.90797 464.882 9.91893ZM457.078 8.33984C456.854 8.34641 456.655 8.36393 456.473 8.39679C456.332 8.40993 456.247 8.42526 456.191 8.44278C456.261 8.42526 456.346 8.40993 456.473 8.39679C456.655 8.36393 456.867 8.34641 457.078 8.33984ZM423.119 9.70648C422.302 9.67582 423.104 9.60793 423.061 9.55755C423.329 9.56193 423.596 9.56631 423.865 9.57069C424.075 9.67582 423.737 9.72838 423.132 9.70648H423.119ZM408.765 1.73223C408.68 1.73223 408.582 1.72785 408.497 1.72347C408.582 1.72785 408.667 1.73004 408.765 1.73223ZM432.908 8.97279C433.132 8.91585 433.457 8.90709 434.33 8.87861C433.457 8.9049 433.132 8.91585 432.908 8.97279ZM462.614 8.92899C462.925 8.92023 463.149 8.90709 463.319 8.88519C463.163 8.90709 462.938 8.92023 462.614 8.92899ZM463.896 8.57638C463.783 8.56543 463.657 8.55886 463.53 8.55886C463.361 8.53038 463.163 8.51943 462.925 8.53476C462.643 8.54352 462.361 8.55229 462.079 8.56324C461.333 8.54134 460.586 8.526 459.84 8.55886C459.572 8.55229 459.304 8.54353 459.037 8.53695C458.896 8.572 458.712 8.58952 458.515 8.5939C458.712 8.58952 458.882 8.572 459.037 8.53695C459.402 8.48658 459.769 8.43621 460.136 8.38584C460.769 8.38146 461.417 8.37708 462.05 8.3727C462.247 8.33546 462.459 8.31356 462.685 8.29823C462.459 8.31137 462.247 8.33546 462.05 8.3727C462.585 8.44935 463.22 8.41431 463.825 8.41431C464.219 8.41431 464.783 8.39898 464.826 8.48001C464.868 8.56324 464.219 8.54353 463.896 8.57638ZM482.461 2.57543C482.461 2.57543 482.432 2.59514 482.39 2.6039C482.334 2.63237 482.278 2.66522 482.123 2.67836C482.291 2.66522 482.349 2.63237 482.39 2.6039C482.419 2.59514 482.447 2.58419 482.461 2.57543ZM615.317 6.09058C615.317 6.09058 614.993 6.07306 614.964 6.02269C614.95 5.98546 615.133 5.97013 615.359 5.97451C615.64 5.98108 615.908 5.99641 615.936 6.04897C615.951 6.0862 615.767 6.10153 615.317 6.09277V6.09058ZM610.513 6.05116C611.458 6.20885 611.682 6.24827 611.738 6.35121C611.682 6.24827 611.443 6.20885 610.513 6.05116C609.795 6.0424 609.09 6.03145 608.373 6.02269C607.95 6.06211 607.682 6.06649 607.513 6.05116C607.4 6.04021 607.33 6.02269 607.288 5.9986C607.245 5.9745 607.203 5.94822 607.175 5.91975C607.203 5.94822 607.231 5.9745 607.288 5.9986C607.344 6.02269 607.4 6.04021 607.513 6.05116C607.682 6.06649 607.95 6.06211 608.373 6.02269C609.09 6.03145 609.795 6.0424 610.513 6.05116ZM598.555 5.54305C598.512 5.56276 598.456 5.58904 598.385 5.60875C598.456 5.58904 598.499 5.56276 598.555 5.54305ZM602.372 5.74673C602.667 5.75111 602.949 5.75549 603.245 5.75768C602.949 5.7533 602.667 5.74892 602.372 5.74673C601.386 5.77958 600.554 5.75768 599.949 5.66132C600.569 5.75768 601.386 5.77958 602.372 5.74673ZM586.934 5.5759C587.794 5.57809 588.652 5.58028 589.525 5.58247C590.328 5.67446 591.258 5.64599 592.159 5.64599C591.258 5.64599 590.342 5.67227 589.525 5.58247C588.667 5.58028 587.807 5.57809 586.934 5.5759C586.695 5.52115 586.384 5.50582 586.061 5.50801C586.384 5.50801 586.695 5.52334 586.934 5.5759ZM576.624 5.42259C576.863 5.53867 577.384 5.6197 578.003 5.65256C577.384 5.61751 576.863 5.53648 576.624 5.42259C576.496 5.34813 576.158 5.31309 575.792 5.28023C576.158 5.31309 576.51 5.34813 576.624 5.42259ZM575.693 6.65782C575.891 6.62059 576.088 6.61183 576.285 6.63154C576.088 6.61183 575.905 6.62059 575.693 6.65782ZM577.792 6.65345C577.497 6.66002 577.215 6.66659 576.919 6.66659C577.215 6.66659 577.51 6.66221 577.792 6.65345C578.525 6.63373 579.243 6.60088 579.975 6.60745C580.722 6.54613 581.455 6.53299 582.201 6.56584C581.468 6.53299 580.722 6.54613 579.975 6.60745C579.229 6.59869 578.511 6.63373 577.792 6.65345ZM604.104 6.42567C604.626 6.41472 605.161 6.41691 605.682 6.41253L605.738 6.40596C605.823 6.38625 605.907 6.3753 606.02 6.38187C605.907 6.3753 605.808 6.38625 605.738 6.40596L605.682 6.41253C605.147 6.41472 604.626 6.41253 604.104 6.42567Z" fill="#F6B620"/>
<path d="M575.947 1.59642C576.411 1.58547 576.454 1.5351 576.51 1.48034C575.609 1.41683 574.707 1.35332 573.806 1.29199C573.848 1.42121 572.749 1.37741 572.567 1.48691C573.622 1.58547 574.736 1.6227 575.947 1.59642Z" fill="#F6B620"/>
<path d="M171.69 1.01172C171.789 1.01636 171.874 1.01868 171.972 1.02332C171.887 1.01636 171.802 1.01172 171.69 1.01172Z" fill="#F6B620"/>
<path d="M416.625 9.94296C415.427 9.95829 414.16 10.0459 412.991 9.91668C412.653 9.94953 412.315 9.94953 411.962 9.91887C410.863 10.0218 409.779 10.0087 408.68 9.91887C408.188 9.95172 407.708 9.96267 407.328 9.88382C405.685 9.86922 404.807 9.96121 404.694 10.1598C405.835 10.1642 407.004 10.1291 408.131 10.1861C408.723 10.1423 409.3 10.1423 409.891 10.1904C410.16 10.1642 410.441 10.1598 410.723 10.1795C411.935 10.0963 413.216 10.1576 414.469 10.1466C416.018 10.1313 417.569 10.1204 419.103 10.0787C419.103 10.0371 419.103 9.99552 419.09 9.9561C418.272 9.92544 417.47 9.93201 416.625 9.94077V9.94296Z" fill="#F6B620"/>
<path d="M326.391 0.571637C326.801 0.558497 327.195 0.516884 327.463 0.602299C327.73 0.61325 327.983 0.624201 328.251 0.635151C328.716 0.602299 329.181 0.597919 329.646 0.637341C330.42 0.61982 331.181 0.604489 331.956 0.586968C332.209 0.510314 332.449 0.424899 333.055 0.538786L333.857 0.569447C335.182 0.551926 336.519 0.540976 337.83 0.593539C340.379 0.516884 342.9 0.582588 345.435 0.61544C345.9 0.582588 346.379 0.584778 346.845 0.61544C348.958 0.584778 351.069 0.578208 353.155 0.639531C353.507 0.602299 353.816 0.602299 354.098 0.657052C354.888 0.663623 355.662 0.672383 356.45 0.674573C358.577 0.681144 360.719 0.735897 362.817 0.639531C362.817 0.589159 362.831 0.536595 362.846 0.486223C362.226 0.468701 361.606 0.453371 360.986 0.43585C360.62 0.508124 360.099 0.484032 359.62 0.484032C357.198 0.488413 354.774 0.503744 352.38 0.427089C352.098 0.427089 351.817 0.427089 351.535 0.424899C351.084 0.492793 350.648 0.479652 350.225 0.418329C346.225 0.409568 342.211 0.398617 338.21 0.389857C337.477 0.44899 336.758 0.459941 336.041 0.383287C335.759 0.383287 335.477 0.381096 335.195 0.378906C334.815 0.44461 334.293 0.43585 333.801 0.43804C331.773 0.44899 329.702 0.365765 327.716 0.490603C327.448 0.508124 327.166 0.479652 327.011 0.43804C325.744 0.376716 324.448 0.416138 323.166 0.407378C323.011 0.488413 322.194 0.44461 322.095 0.567257C323.519 0.62201 324.941 0.61544 326.378 0.571637H326.391Z" fill="#F6B620"/>
<path d="M203.607 1.24609C203.607 1.24609 203.607 1.24609 203.607 1.24831C203.607 1.24831 203.637 1.24831 203.65 1.25052L203.622 1.24609H203.607Z" fill="#F6B620"/>
<path d="M203.635 1.25296V1.24854C203.635 1.24854 203.621 1.24854 203.607 1.24854L203.635 1.25296Z" fill="#F6B620"/>
<path d="M205.072 1.2591C207.002 1.46059 209.115 1.40146 211.199 1.39051C211.678 1.38832 212.172 1.40584 212.665 1.4146C213.073 1.39489 213.467 1.41022 213.862 1.42993C214.919 1.39708 215.96 1.39708 216.99 1.44964C217.257 1.44526 217.538 1.44307 217.805 1.43869C218.017 1.3708 218.342 1.36861 218.721 1.39927C219.538 1.35328 220.328 1.3708 221.13 1.41241C221.624 1.3708 222.103 1.36204 222.595 1.41679C223.722 1.40803 224.849 1.39927 225.976 1.39051C226.37 1.29414 226.779 1.28319 227.229 1.38175C227.539 1.38832 227.849 1.39708 228.145 1.40365C228.314 1.33137 228.497 1.2591 228.033 1.19559C227.173 1.23282 226.314 1.25034 225.51 1.16931C224.68 1.22187 223.835 1.22625 223.003 1.16931C222.553 1.22187 222.103 1.22187 221.651 1.1715C220.666 1.2153 219.679 1.23063 218.707 1.16273C218.44 1.1934 218.172 1.18683 217.905 1.16712C217.285 1.21749 216.652 1.21311 216.017 1.17369C214.299 1.18245 212.58 1.21749 210.904 1.12988C208.495 1.2153 206.059 1.16054 203.635 1.17369C203.635 1.19778 203.635 1.22406 203.635 1.24815C204.129 1.24815 204.72 1.22625 205.072 1.26129V1.2591Z" fill="#F6B620"/>
<path d="M306.757 0.808357C308.418 0.725132 310.123 0.727322 311.827 0.749223C312.94 0.641907 314.151 0.648478 315.377 0.679139C315.814 0.622196 316.264 0.630956 316.729 0.670379C317.701 0.630956 318.686 0.633147 319.687 0.646287C319.644 0.554302 319.518 0.475457 318.758 0.468887C318.348 0.466697 317.941 0.446986 317.533 0.436035C316.828 0.446986 316.138 0.457936 315.433 0.468887C314.686 0.558682 313.828 0.51926 313.011 0.51707C311.968 0.51707 310.912 0.510499 309.87 0.506119C308.996 0.530211 308.151 0.576203 307.249 0.565253C306.686 0.639717 305.785 0.611245 305.292 0.711991C305.461 0.86311 306.094 0.839019 306.757 0.808357Z" fill="#F6B620"/>
<path d="M470.642 0.352851C473.827 0.33971 477.01 0.322189 480.193 0.300288C481.066 0.293718 481.982 0.293718 482.714 0.201732C482.461 0.131648 482.052 0.133838 481.756 0.103177C481.192 0.109747 480.644 0.15574 480.066 0.122888C479.798 0.131648 479.517 0.136029 479.249 0.146979C477.503 0.219253 475.826 0.0484235 474.08 0.109747C473.798 0.15574 473.489 0.151359 473.164 0.120698C472.896 0.146979 472.614 0.15793 472.305 0.146979C472.178 0.15355 472.037 0.15793 471.911 0.1645C470.939 0.195162 469.966 0.225824 468.994 0.256486C469.319 0.381323 470.051 0.352851 470.642 0.350661V0.352851Z" fill="#F6B620"/>
<path d="M249.879 1.15838C250.992 1.16933 252.091 1.15838 253.049 1.30074C253.47 1.36206 254.922 1.38396 254.992 1.25036C255.091 1.05325 255.724 1.07296 256.514 1.0642C257.204 1.05544 258.048 1.08829 258.471 0.906513C255.541 0.917464 252.767 0.867091 250.02 0.941555C249.794 0.985358 249.512 1.00945 249.161 1.0204C249.23 1.08829 249.302 1.15181 249.879 1.15838Z" fill="#F6B620"/>
<path d="M437.034 0.75084C437.612 0.658854 438.359 0.698277 439.035 0.689516C440.499 0.669805 441.992 0.682946 443.443 0.630383C444.204 0.601911 444.992 0.58439 445.204 0.437651C444.795 0.428891 444.387 0.42013 443.965 0.40918C443.246 0.446412 442.543 0.498975 441.753 0.472693C440.909 0.481454 440.063 0.492405 439.203 0.501165C438.781 0.560299 438.33 0.555918 437.851 0.520876C437.598 0.520876 437.33 0.520876 437.077 0.520876C436.105 0.639143 434.654 0.520876 433.584 0.682946C434.133 0.711417 434.527 0.733319 434.907 0.75303C435.612 0.75303 436.331 0.75303 437.034 0.75303V0.75084Z" fill="#F6B620"/>
<path d="M235.441 1.3421C235.835 1.26982 236.287 1.25887 236.793 1.31582C237.188 1.28296 237.61 1.28077 238.047 1.2961C238.244 1.21726 238.526 1.22164 238.85 1.27858C239.145 1.27858 239.441 1.27858 239.737 1.27858C240.146 1.21288 240.569 1.20193 241.019 1.27201C241.413 1.26763 241.794 1.26106 242.188 1.25668C242.23 1.19755 242.273 1.13622 242.315 1.07709C241.456 1.07271 240.596 1.06833 239.752 1.06395C239.456 1.11651 239.174 1.12089 238.892 1.05957C238.328 1.0749 237.765 1.10556 237.173 1.08366L237.019 1.10337L236.822 1.0968C235.638 1.17565 234.469 1.0749 233.287 1.0968C232.906 1.18879 231.68 1.17127 231.948 1.34648C233.117 1.34648 234.286 1.34648 235.469 1.34648L235.441 1.3421Z" fill="#F6B620"/>
<path d="M429.302 0.735557C429.725 0.735557 430.147 0.739937 430.569 0.735557C430.837 0.733367 431.162 0.735557 431.288 0.685184C431.471 0.60853 430.963 0.60415 430.752 0.569108C430.668 0.553777 430.64 0.531875 430.584 0.512164C430.161 0.507784 429.725 0.503404 429.302 0.499023C428.147 0.6151 426.823 0.536256 425.597 0.571298C424.766 0.595389 423.822 0.562537 422.85 0.720226C425.232 0.726797 427.274 0.731177 429.302 0.735557Z" fill="#F6B620"/>
<path d="M557.383 7.44692C554.65 7.38779 552.114 7.61556 549.382 7.57176C548.734 7.56081 548.283 7.64623 548.367 7.7404C548.438 7.82144 549.044 7.80172 549.438 7.79953C550.001 7.79515 550.579 7.78858 551.129 7.76668C552.875 7.69222 554.636 7.69003 556.41 7.73602C557.115 7.75354 557.679 7.76887 557.439 7.60023C557.326 7.52358 557.876 7.49949 558.326 7.49949C558.805 7.49949 559.326 7.52358 559.763 7.41845C558.861 7.36151 558.171 7.46663 557.383 7.44911V7.44692Z" fill="#F6B620"/>
<path d="M580.85 7.25382C579.498 7.29543 578.187 7.22973 576.834 7.22754C574.074 7.22754 574.074 7.22535 572.863 7.40713C576.919 7.29543 580.568 7.46407 584.272 7.58672C583.427 7.38523 581.526 7.47721 580.835 7.25382H580.85Z" fill="#F6B620"/>
<path d="M547.509 8.0135C549.86 8.21718 552.241 8.12081 554.621 8.03102C552.284 7.80105 549.902 7.98721 547.509 8.0135Z" fill="#F6B620"/>
<path d="M589.667 7.45487C590.709 7.51182 591.371 7.54686 592.455 7.43297C591.399 7.37165 590.709 7.35194 589.667 7.45487Z" fill="#F6B620"/>
<path d="M595.371 7.36513C595.273 7.36513 595.202 7.38923 595.118 7.40237C595.217 7.41113 595.315 7.42208 595.427 7.42865C595.456 7.42865 595.555 7.41551 595.568 7.40675C595.611 7.38266 595.526 7.36075 595.371 7.36294V7.36513Z" fill="#F6B620"/>
<path d="M458.05 1.02891C455.979 0.915027 454.036 1.01577 452.077 1.08805C454.092 1.10338 456.106 1.16689 458.05 1.02891Z" fill="#F6B620"/>
<path d="M646.263 6.32029C646.29 6.33781 646.586 6.35752 646.742 6.35752C647.037 6.35752 647.248 6.32029 647.206 6.27649C647.192 6.25897 646.897 6.24802 646.769 6.23926C646.389 6.24802 646.178 6.2743 646.248 6.32248L646.263 6.32029Z" fill="#F6B620"/>
<path d="M523.028 1.12134C526.957 1.10382 530.93 1.22866 534.845 1.0863C530.901 0.961462 526.972 1.09944 523.028 1.12134Z" fill="#F6B620"/>
<path d="M577.089 5.0791V5.08353C577.089 5.08353 577.102 5.08353 577.116 5.08353L577.089 5.0791Z" fill="#F6B620"/>
<path d="M577.272 5.05029C577.272 5.05029 577.186 5.06562 577.159 5.07438C577.186 5.07438 577.229 5.07219 577.244 5.07C577.271 5.06781 577.257 5.05686 577.272 5.05248V5.05029Z" fill="#F6B620"/>
<path d="M577.089 5.07935L577.116 5.08399C577.116 5.08399 577.145 5.07703 577.159 5.07471C577.131 5.07471 577.116 5.07703 577.089 5.07935Z" fill="#F6B620"/>
<path d="M629.993 7.65655C629.881 7.66312 629.783 7.68064 629.684 7.69378C629.768 7.70254 629.866 7.72225 629.951 7.72006C630.063 7.71787 630.163 7.70035 630.262 7.6894C630.262 7.66531 630.163 7.64998 630.007 7.65874L629.993 7.65655Z" fill="#F6B620"/>
<path d="M644.699 7.79223C644.488 7.78785 644.277 7.79223 643.53 7.79661C644.192 7.8426 644.432 7.86231 644.685 7.87545C644.882 7.8864 645.193 7.88859 645.249 7.85355C645.347 7.78566 644.938 7.79661 644.699 7.79004V7.79223Z" fill="#F6B620"/>
<path d="M400.004 9.83567C396.425 9.83348 392.847 9.83129 389.27 9.8291C389.058 9.91233 387.706 9.88824 388.397 10.0547C388.946 10.0678 389.495 10.081 390.045 10.0941C391.551 10.0372 393.017 10.0678 394.495 10.1226C396.622 10.1379 398.735 10.1532 400.862 10.1664C401.088 10.0744 402.088 10.0328 401.623 9.89262C401.088 9.8729 400.552 9.85538 400.017 9.83567H400.004Z" fill="#F6B620"/>
<path d="M286.474 1.25466C286.967 1.29627 287.432 1.30065 287.812 1.224C287.545 1.18896 287.305 1.17363 287.079 1.1802C286.855 1.18677 286.657 1.21086 286.459 1.25466H286.474Z" fill="#F6B620"/>
</g>
<defs>
<clipPath id="clip0_4021_213">
<rect width="711" height="12" fill="white"/>
</clipPath>
</defs>
</svg>
